<?xml version="1.0" encoding="utf-8"?>
<!-- Generator: Adobe Illustrator 15.0.0, SVG Export Plug-In . SVG Version: 6.00 Build 0)  -->
<!DOCTYPE svg PUBLIC "-//W3C//DTD SVG 1.1//EN" "http://www.w3.org/Graphics/SVG/1.1/DTD/svg11.dtd">
<svg version="1.1" xmlns="http://www.w3.org/2000/svg" xmlns:xlink="http://www.w3.org/1999/xlink" x="0px" y="0px" width="233px"
	 height="243.8px" viewBox="0 0 233 243.8" style="enable-background:new 0 0 233 243.8;" xml:space="preserve">
<g id="underlay" style="display:none;">
	
		<image style="display:inline;overflow:visible;" width="1440" height="900" xlink:href="../../../../../../WaterAtlas/AI files/CA-Water-Pricing/IMAGE files/legend_underlay.png"  transform="matrix(1 0 0 1 -1042.1367 -583.9214)">
	</image>
	
		<image style="display:inline;overflow:visible;" width="1440" height="900" xlink:href="../../../../../../WaterAtlas/AI files/CA-Water-Pricing/IMAGE files/legend_underlay1.png"  transform="matrix(1 0 0 1 -1042.4961 -677.5264)">
	</image>
</g>
<g id="guides" style="display:none;">
</g>
<g id="circles">
	<g>
		<g>
			<circle style="fill:none;stroke:#58595B;stroke-miterlimit:10;stroke-dasharray:1.9836,1.9836;" cx="351" cy="-147" r="12"/>
		</g>
		<g>
			<circle style="fill:none;stroke:#58595B;stroke-miterlimit:10;stroke-dasharray:1.9837,1.9837;" cx="351" cy="-159" r="24"/>
		</g>
		<line style="fill:none;stroke:#A7A9AC;stroke-miterlimit:10;" x1="361" y1="-158.5" x2="400" y2="-158.5"/>
		<line style="fill:none;stroke:#A7A9AC;stroke-miterlimit:10;" x1="361" y1="-183.5" x2="400" y2="-183.5"/>
		<rect x="404.7" y="-185.9" style="fill:none;" width="75.2" height="19.1"/>
		<text transform="matrix(1 0 0 1 404.666 -177.1152)" style="fill:#808285; font-family:'Muli'; font-size:12;">$2.00 (USD)/</text>
		<rect x="491.4" y="-185.9" style="fill:none;" width="26.9" height="19.1"/>
		<text transform="matrix(1 0 0 1 491.416 -177.1152)" style="fill:#808285; font-family:'Muli'; font-size:12;">/day</text>
		<g>
			<path style="fill:#808285;" d="M486.7-176.3h-5.9c-1.1,0-1.8-0.6-1.8-1.7c0-1.5,0.4-3.8,2.3-3.8c0.2,0,1.1,0.9,2.4,0.9
				s2.2-0.9,2.4-0.9c2,0,2.3,2.3,2.3,3.8C488.5-177,487.8-176.3,486.7-176.3z M483.8-181.5c-1.4,0-2.6-1.2-2.6-2.6s1.2-2.6,2.6-2.6
				s2.6,1.2,2.6,2.6S485.2-181.5,483.8-181.5z"/>
		</g>
		<rect x="404.7" y="-159.7" style="fill:none;" width="75.2" height="19.1"/>
		<text transform="matrix(1 0 0 1 404.666 -150.918)" style="fill:#808285; font-family:'Muli'; font-size:12;">$1.00 (USD)/</text>
		<rect x="491.4" y="-159.7" style="fill:none;" width="26.9" height="19.1"/>
		<text transform="matrix(1 0 0 1 491.416 -150.918)" style="fill:#808285; font-family:'Muli'; font-size:12;">/day</text>
		<g>
			<path style="fill:#808285;" d="M486.7-150.1h-5.9c-1.1,0-1.8-0.6-1.8-1.7c0-1.5,0.4-3.8,2.3-3.8c0.2,0,1.1,0.9,2.4,0.9
				s2.2-0.9,2.4-0.9c2,0,2.3,2.3,2.3,3.8C488.5-150.8,487.8-150.1,486.7-150.1z M483.8-155.3c-1.4,0-2.6-1.2-2.6-2.6
				s1.2-2.6,2.6-2.6s2.6,1.2,2.6,2.6S485.2-155.3,483.8-155.3z"/>
		</g>
	</g>
	<g>
		<circle style="fill:#A4AD50;" cx="351" cy="-113" r="12"/>
		<rect x="375" y="-117.1" style="fill:none;" width="104.3" height="19.1"/>
		<text transform="matrix(1 0 0 1 375 -108.3047)" style="fill:#939598; font-family:'Muli'; font-size:12;">Metered Users</text>
	</g>
	<g>
		<circle style="fill:#E4DA56;" cx="351" cy="-81" r="12"/>
		<rect x="375" y="-85.1" style="fill:none;" width="104.3" height="19.1"/>
		<text transform="matrix(1 0 0 1 375 -76.3047)" style="fill:#939598; font-family:'Muli'; font-size:12;">Flat Rate Users</text>
	</g>
	<rect x="327" y="-57.1" style="fill:none;" width="232.5" height="32.1"/>
	<text transform="matrix(1 0 0 1 327 -48.3047)"><tspan x="0" y="0" style="fill:#939598; font-family:'Muli'; font-size:12;">Note: flate rate billing does not take into </tspan><tspan x="0" y="14.4" style="fill:#939598; font-family:'Muli'; font-size:12;">account water consumption</tspan></text>
	<g>
		<g>
			<circle style="fill:none;stroke:#58595B;stroke-miterlimit:10;stroke-dasharray:1.963,1.963;" cx="25" cy="-145" r="10"/>
		</g>
		<g>
			<circle style="fill:none;stroke:#58595B;stroke-miterlimit:10;stroke-dasharray:2.0133,2.0133;" cx="25" cy="-160" r="25"/>
		</g>
		<line style="fill:none;stroke:#A7A9AC;stroke-miterlimit:10;" x1="35" y1="-153.5" x2="74" y2="-153.5"/>
		<line style="fill:none;stroke:#A7A9AC;stroke-miterlimit:10;" x1="35" y1="-183.5" x2="74" y2="-183.5"/>
		<rect x="78.7" y="-185.9" style="fill:none;" width="75.2" height="19.1"/>
		<text transform="matrix(1 0 0 1 78.6665 -177.1152)" style="fill:#808285; font-family:'Muli'; font-size:12;">5 CCF</text>
		<rect x="78.7" y="-154.7" style="fill:none;" width="75.2" height="19.1"/>
		<text transform="matrix(1 0 0 1 78.6665 -145.918)" style="fill:#808285; font-family:'Muli'; font-size:12;">1 CCF</text>
	</g>
	<g>
		<circle style="fill:#CC6633;" cx="25" cy="-98" r="12"/>
		<rect x="49" y="-102.1" style="fill:none;" width="184.2" height="19.1"/>
		<text transform="matrix(1 0 0 1 49 -93.3047)" style="fill:#939598; font-family:'Muli'; font-size:12;">Agency Surveyed User</text>
	</g>
	<rect x="1" y="-57.1" style="fill:none;" width="232.5" height="32.1"/>
	<text transform="matrix(1 0 0 1 1 -48.3047)"><tspan x="0" y="0" style="fill:#939598; font-family:'Muli'; font-size:12;">Note: agency data is as is and varies </tspan><tspan x="0" y="14.4" style="fill:#939598; font-family:'Muli'; font-size:12;">widely</tspan></text>
	<g>
		<path style="fill:#939598;" d="M52.8,13.5L52.3,12l-0.5,1.5l-2.2,7h-1.5l-2.9-10h1.3l2.1,7.6l0.3,1.1l0.3-1l2.5-7.7H53l2.5,7.6
			l0.3,1.1l0.2-1l2.1-7.7h1.2l-2.9,10H55L52.8,13.5z"/>
		<path style="fill:#939598;" d="M62.1,20.5h-1.2v-10h1.2v4.3h5.5v-4.3h1.2v10h-1.2v-4.6h-5.5V20.5z"/>
		<path style="fill:#939598;" d="M71.5,20.5h-1.3l4.1-10h1.3l4.1,10h-1.3l-1.1-2.7h-4.8L71.5,20.5z M73,16.8h4l-1.6-4.1
			c0-0.1-0.1-0.2-0.1-0.3c0-0.1-0.1-0.2-0.1-0.3c0-0.1-0.1-0.2-0.1-0.4c0,0.1-0.1,0.3-0.1,0.4c0,0.1-0.1,0.2-0.1,0.3
			c0,0.1-0.1,0.2-0.1,0.3L73,16.8z"/>
		<path style="fill:#939598;" d="M82.3,20.5v-8.9h-3.2v-1h7.6v1h-3.2v8.9H82.3z"/>
		<path style="fill:#939598;" d="M93.6,20.5h-1.2v-10h1.2V20.5z"/>
		<path style="fill:#939598;" d="M96.5,18.7c0.2,0.2,0.3,0.3,0.5,0.5c0.2,0.1,0.4,0.2,0.6,0.3c0.2,0.1,0.5,0.1,0.7,0.2
			c0.2,0,0.5,0.1,0.7,0.1c0.4,0,0.7,0,1-0.1c0.3-0.1,0.6-0.2,0.8-0.3c0.2-0.1,0.4-0.3,0.5-0.5c0.1-0.2,0.2-0.4,0.2-0.7
			c0-0.3-0.1-0.6-0.2-0.8c-0.2-0.2-0.4-0.4-0.6-0.6c-0.3-0.2-0.6-0.3-0.9-0.4c-0.3-0.1-0.7-0.3-1-0.4c-0.3-0.1-0.7-0.3-1-0.4
			c-0.3-0.2-0.6-0.3-0.9-0.6c-0.3-0.2-0.5-0.5-0.6-0.8c-0.2-0.3-0.2-0.6-0.2-1c0-0.4,0.1-0.8,0.3-1.2c0.2-0.3,0.5-0.6,0.8-0.8
			c0.3-0.2,0.7-0.4,1.1-0.5s0.9-0.2,1.3-0.2c0.3,0,0.5,0,0.8,0c0.3,0,0.5,0.1,0.8,0.2c0.3,0.1,0.5,0.2,0.7,0.3
			c0.2,0.1,0.4,0.3,0.5,0.5l-0.6,0.8c-0.1-0.2-0.3-0.3-0.5-0.4c-0.2-0.1-0.4-0.2-0.6-0.2c-0.2-0.1-0.4-0.1-0.6-0.1s-0.4,0-0.6,0
			c-0.3,0-0.6,0-0.8,0.1c-0.3,0.1-0.5,0.1-0.8,0.3c-0.2,0.1-0.4,0.3-0.5,0.5s-0.2,0.4-0.2,0.7c0,0.3,0.1,0.5,0.2,0.8
			s0.4,0.4,0.6,0.6s0.6,0.3,0.9,0.5c0.3,0.1,0.7,0.3,1,0.4s0.7,0.3,1,0.5c0.3,0.2,0.6,0.4,0.9,0.6c0.3,0.2,0.5,0.5,0.6,0.8
			s0.2,0.7,0.2,1.1c0,0.3-0.1,0.6-0.2,0.9s-0.2,0.5-0.4,0.7s-0.4,0.4-0.6,0.5s-0.5,0.3-0.8,0.3c-0.3,0.1-0.6,0.2-0.9,0.2
			s-0.6,0.1-0.9,0.1c-0.3,0-0.6,0-1-0.1s-0.6-0.1-0.8-0.3s-0.5-0.2-0.7-0.4c-0.2-0.2-0.4-0.3-0.5-0.5L96.5,18.7z"/>
		<path style="fill:#939598;" d="M109,20.5h-1.3l4.1-10h1.3l4.1,10H116l-1.1-2.7h-4.8L109,20.5z M110.5,16.8h4l-1.6-4.1
			c0-0.1-0.1-0.2-0.1-0.3c0-0.1-0.1-0.2-0.1-0.3c0-0.1-0.1-0.2-0.1-0.4c0,0.1-0.1,0.3-0.1,0.4c0,0.1-0.1,0.2-0.1,0.3
			c0,0.1-0.1,0.2-0.1,0.3L110.5,16.8z"/>
		<path style="fill:#939598;" d="M129.6,12.2c-0.7-0.5-1.5-0.8-2.4-0.8c-0.4,0-0.8,0.1-1.1,0.2c-0.3,0.1-0.7,0.3-0.9,0.5
			c-0.3,0.2-0.5,0.4-0.7,0.7c-0.2,0.3-0.4,0.6-0.5,0.9s-0.2,0.6-0.3,1c-0.1,0.3-0.1,0.7-0.1,1.1c0,0.5,0.1,1,0.2,1.5
			c0.1,0.5,0.4,0.9,0.6,1.3c0.3,0.4,0.7,0.7,1.1,0.9c0.4,0.2,1,0.3,1.6,0.3c0.6,0,1.1-0.1,1.6-0.2c0.5-0.2,0.9-0.4,1.3-0.7l0.4,1
			c-0.4,0.3-0.9,0.6-1.5,0.8c-0.6,0.2-1.2,0.3-2,0.3c-0.8,0-1.4-0.1-2-0.4s-1.1-0.6-1.4-1.1c-0.4-0.5-0.7-1-0.9-1.6
			c-0.2-0.6-0.3-1.3-0.3-2c0-0.5,0-0.9,0.1-1.4s0.2-0.9,0.4-1.2c0.2-0.4,0.4-0.7,0.7-1.1c0.3-0.3,0.6-0.6,1-0.8
			c0.4-0.2,0.8-0.4,1.2-0.5c0.4-0.1,0.9-0.2,1.4-0.2c0.6,0,1.2,0.1,1.7,0.2c0.5,0.2,0.9,0.4,1.4,0.8L129.6,12.2z"/>
		<path style="fill:#939598;" d="M138.8,12.2c-0.7-0.5-1.5-0.8-2.4-0.8c-0.4,0-0.8,0.1-1.1,0.2c-0.3,0.1-0.7,0.3-0.9,0.5
			c-0.3,0.2-0.5,0.4-0.7,0.7c-0.2,0.3-0.4,0.6-0.5,0.9s-0.2,0.6-0.3,1c-0.1,0.3-0.1,0.7-0.1,1.1c0,0.5,0.1,1,0.2,1.5
			c0.1,0.5,0.4,0.9,0.6,1.3c0.3,0.4,0.7,0.7,1.1,0.9c0.4,0.2,1,0.3,1.6,0.3c0.6,0,1.1-0.1,1.6-0.2c0.5-0.2,0.9-0.4,1.3-0.7l0.4,1
			c-0.4,0.3-0.9,0.6-1.5,0.8c-0.6,0.2-1.2,0.3-2,0.3c-0.8,0-1.4-0.1-2-0.4s-1.1-0.6-1.4-1.1c-0.4-0.5-0.7-1-0.9-1.6
			c-0.2-0.6-0.3-1.3-0.3-2c0-0.5,0-0.9,0.1-1.4s0.2-0.9,0.4-1.2c0.2-0.4,0.4-0.7,0.7-1.1c0.3-0.3,0.6-0.6,1-0.8
			c0.4-0.2,0.8-0.4,1.2-0.5c0.4-0.1,0.9-0.2,1.4-0.2c0.6,0,1.2,0.1,1.7,0.2c0.5,0.2,0.9,0.4,1.4,0.8L138.8,12.2z"/>
		<path style="fill:#939598;" d="M142.8,20.5h-1.2v-10h5.8v1h-4.6v3.4h4.4v1h-4.4V20.5z"/>
		<path style="fill:#939598;" d="M147.7,22l4.4-11.4h1.1L148.8,22H147.7z"/>
		<path style="fill:#939598;" d="M155.5,20.5h-1.2v-10h1.2v4.3h5.5v-4.3h1.2v10h-1.2v-4.6h-5.5V20.5z"/>
		<path style="fill:#939598;" d="M171.7,12.2c-0.7-0.5-1.5-0.8-2.4-0.8c-0.4,0-0.8,0.1-1.1,0.2c-0.3,0.1-0.7,0.3-0.9,0.5
			c-0.3,0.2-0.5,0.4-0.7,0.7c-0.2,0.3-0.4,0.6-0.5,0.9s-0.2,0.6-0.3,1c-0.1,0.3-0.1,0.7-0.1,1.1c0,0.5,0.1,1,0.2,1.5
			c0.1,0.5,0.4,0.9,0.6,1.3c0.3,0.4,0.7,0.7,1.1,0.9c0.4,0.2,1,0.3,1.6,0.3c0.6,0,1.1-0.1,1.6-0.2c0.5-0.2,0.9-0.4,1.3-0.7l0.4,1
			c-0.4,0.3-0.9,0.6-1.5,0.8c-0.6,0.2-1.2,0.3-2,0.3c-0.8,0-1.4-0.1-2-0.4s-1.1-0.6-1.4-1.1c-0.4-0.5-0.7-1-0.9-1.6
			c-0.2-0.6-0.3-1.3-0.3-2c0-0.5,0-0.9,0.1-1.4s0.2-0.9,0.4-1.2c0.2-0.4,0.4-0.7,0.7-1.1c0.3-0.3,0.6-0.6,1-0.8
			c0.4-0.2,0.8-0.4,1.2-0.5c0.4-0.1,0.9-0.2,1.4-0.2c0.6,0,1.2,0.1,1.7,0.2c0.5,0.2,0.9,0.4,1.4,0.8L171.7,12.2z"/>
		<path style="fill:#939598;" d="M175.6,20.5h-1.2v-10h5.8v1h-4.6v3.4h4.4v1h-4.4V20.5z"/>
		<path style="fill:#939598;" d="M183.3,18c0-0.1,0-0.3,0-0.4c0-0.1,0-0.2,0-0.4c0-0.1,0-0.2,0-0.3c0-0.3,0.1-0.5,0.2-0.8
			c0.1-0.2,0.3-0.5,0.5-0.7s0.4-0.4,0.6-0.6c0.2-0.2,0.4-0.4,0.6-0.6c0.2-0.2,0.4-0.4,0.5-0.7c0.1-0.2,0.2-0.5,0.2-0.8
			c0-0.3-0.1-0.5-0.2-0.7s-0.3-0.3-0.4-0.4c-0.2-0.1-0.4-0.2-0.6-0.3c-0.2-0.1-0.5-0.1-0.7-0.1c-0.3,0-0.6,0-0.9,0.1
			c-0.3,0.1-0.6,0.2-0.9,0.4v-1c0.3-0.2,0.7-0.3,1-0.3c0.3-0.1,0.6-0.1,0.9-0.1c0.4,0,0.8,0,1.2,0.1c0.4,0.1,0.7,0.2,0.9,0.4
			c0.3,0.2,0.5,0.4,0.6,0.7c0.2,0.3,0.2,0.6,0.2,1c0,0.3-0.1,0.6-0.2,0.8s-0.3,0.5-0.5,0.8c-0.2,0.2-0.4,0.5-0.7,0.7
			c-0.2,0.2-0.4,0.4-0.6,0.7c-0.2,0.2-0.4,0.4-0.5,0.6c-0.1,0.2-0.2,0.4-0.2,0.6c0,0.1,0,0.2,0,0.3s0,0.2,0,0.3c0,0.1,0,0.2,0.1,0.3
			H183.3z M184.6,20.6h-1.5v-1.4h1.5V20.6z"/>
	</g>
	<g>
		<path style="fill:#231F20;" d="M2.1,43c0.4-0.1,0.8-0.3,1.2-0.5c0.4-0.2,0.7-0.4,1.1-0.6l1.3-0.2v10.1h1.7v1.1H2.6v-1.1h1.7v-8.6
			c-0.3,0.2-0.7,0.4-1.1,0.5s-0.7,0.3-1.1,0.5V43z"/>
		<path style="fill:#939598;" d="M23.3,43.4c-0.8-0.6-1.7-0.9-2.8-0.9c-0.5,0-0.9,0.1-1.3,0.2c-0.4,0.1-0.8,0.3-1.1,0.5
			c-0.3,0.2-0.6,0.5-0.8,0.8c-0.2,0.3-0.4,0.6-0.6,1c-0.2,0.4-0.3,0.7-0.3,1.1c-0.1,0.4-0.1,0.8-0.1,1.2c0,0.6,0.1,1.2,0.2,1.8
			c0.2,0.6,0.4,1,0.7,1.5c0.3,0.4,0.8,0.8,1.3,1c0.5,0.2,1.1,0.4,1.8,0.4c0.6,0,1.2-0.1,1.8-0.3c0.6-0.2,1.1-0.5,1.5-0.8l0.5,1.1
			c-0.5,0.4-1.1,0.7-1.7,0.9c-0.7,0.2-1.4,0.3-2.2,0.3c-0.9,0-1.6-0.2-2.3-0.5s-1.2-0.7-1.7-1.2c-0.4-0.5-0.8-1.1-1-1.8
			c-0.2-0.7-0.3-1.4-0.3-2.2c0-0.5,0.1-1.1,0.2-1.6c0.1-0.5,0.3-1,0.5-1.4c0.2-0.4,0.5-0.9,0.8-1.2c0.3-0.4,0.7-0.7,1.1-1
			c0.4-0.3,0.9-0.5,1.4-0.6c0.5-0.1,1-0.2,1.6-0.2c0.7,0,1.3,0.1,1.9,0.3c0.6,0.2,1.1,0.5,1.5,0.9L23.3,43.4z"/>
		<path style="fill:#939598;" d="M33.8,43.4C33,42.8,32,42.5,31,42.5c-0.5,0-0.9,0.1-1.3,0.2c-0.4,0.1-0.8,0.3-1.1,0.5
			c-0.3,0.2-0.6,0.5-0.8,0.8s-0.4,0.6-0.6,1s-0.3,0.7-0.3,1.1c-0.1,0.4-0.1,0.8-0.1,1.2c0,0.6,0.1,1.2,0.2,1.8
			c0.2,0.6,0.4,1,0.7,1.5s0.8,0.8,1.3,1c0.5,0.2,1.1,0.4,1.8,0.4c0.6,0,1.2-0.1,1.8-0.3s1.1-0.5,1.5-0.8l0.5,1.1
			c-0.5,0.4-1.1,0.7-1.7,0.9s-1.4,0.3-2.2,0.3c-0.9,0-1.6-0.2-2.3-0.5s-1.2-0.7-1.7-1.2s-0.8-1.1-1-1.8s-0.3-1.4-0.3-2.2
			c0-0.5,0.1-1.1,0.2-1.6s0.3-1,0.5-1.4s0.5-0.9,0.8-1.2s0.7-0.7,1.1-1s0.9-0.5,1.4-0.6s1-0.2,1.6-0.2c0.7,0,1.3,0.1,1.9,0.3
			c0.6,0.2,1.1,0.5,1.5,0.9L33.8,43.4z"/>
		<path style="fill:#939598;" d="M38.3,52.9h-1.3V41.6h6.6v1.2h-5.2v3.9h5v1.2h-5V52.9z"/>
		<path style="fill:#939598;" d="M43.9,54.6l5-13h1.3l-5,13H43.9z"/>
		<path style="fill:#939598;" d="M52.8,52.9h-1.3V41.6h1.3v5h6.3v-5h1.3v11.4h-1.3v-5.3h-6.3V52.9z"/>
		<path style="fill:#939598;" d="M71.3,43.4c-0.8-0.6-1.7-0.9-2.8-0.9c-0.5,0-0.9,0.1-1.3,0.2c-0.4,0.1-0.8,0.3-1.1,0.5
			c-0.3,0.2-0.6,0.5-0.8,0.8s-0.4,0.6-0.6,1s-0.3,0.7-0.3,1.1c-0.1,0.4-0.1,0.8-0.1,1.2c0,0.6,0.1,1.2,0.2,1.8
			c0.2,0.6,0.4,1,0.7,1.5s0.8,0.8,1.3,1c0.5,0.2,1.1,0.4,1.8,0.4c0.6,0,1.2-0.1,1.8-0.3s1.1-0.5,1.5-0.8l0.5,1.1
			c-0.5,0.4-1.1,0.7-1.7,0.9s-1.4,0.3-2.2,0.3c-0.9,0-1.6-0.2-2.3-0.5s-1.2-0.7-1.7-1.2s-0.8-1.1-1-1.8s-0.3-1.4-0.3-2.2
			c0-0.5,0.1-1.1,0.2-1.6s0.3-1,0.5-1.4s0.5-0.9,0.8-1.2s0.7-0.7,1.1-1s0.9-0.5,1.4-0.6s1-0.2,1.6-0.2c0.7,0,1.3,0.1,1.9,0.3
			c0.6,0.2,1.1,0.5,1.5,0.9L71.3,43.4z"/>
		<path style="fill:#939598;" d="M75.9,52.9h-1.3V41.6h6.6v1.2h-5.2v3.9h5v1.2h-5V52.9z"/>
		<path style="fill:#939598;" d="M96.3,46.5v1.1h-8.2v-1.1H96.3z M96.3,49.7v1.1h-8.2v-1.1H96.3z"/>
		<path style="fill:#231F20;" d="M104.7,43c0.4-0.1,0.8-0.3,1.2-0.5s0.7-0.4,1.1-0.6l1.3-0.2v10.1h1.7v1.1h-4.8v-1.1h1.7v-8.6
			c-0.3,0.2-0.7,0.4-1.1,0.5s-0.7,0.3-1.1,0.5V43z"/>
		<path style="fill:#231F20;" d="M116.6,41.6c0.7,0,1.4,0.1,1.9,0.4c0.5,0.3,0.9,0.7,1.2,1.2c0.3,0.5,0.5,1.2,0.7,1.9
			c0.1,0.7,0.2,1.5,0.2,2.4c0,0.8-0.1,1.6-0.3,2.3s-0.4,1.3-0.8,1.8c-0.3,0.5-0.8,0.9-1.3,1.1c-0.5,0.3-1.1,0.4-1.7,0.4
			c-0.7,0-1.3-0.1-1.8-0.4s-0.9-0.7-1.2-1.2s-0.5-1.1-0.7-1.8s-0.2-1.5-0.2-2.3c0-0.9,0.1-1.7,0.3-2.4s0.4-1.3,0.8-1.8
			s0.7-0.9,1.2-1.1S115.9,41.6,116.6,41.6z M116.5,42.7c-0.4,0-0.8,0.1-1.1,0.3s-0.6,0.5-0.8,0.9s-0.4,0.9-0.5,1.4s-0.2,1.2-0.2,1.8
			c0,0.4,0,0.7,0,1.1c0,0.4,0.1,0.7,0.1,1.1s0.2,0.7,0.3,1c0.1,0.3,0.3,0.6,0.5,0.8c0.2,0.2,0.4,0.4,0.7,0.5s0.6,0.2,0.9,0.2
			c0.4,0,0.8-0.1,1.1-0.3s0.6-0.5,0.8-0.9s0.4-0.9,0.5-1.4s0.2-1.2,0.2-1.8c0-0.4,0-0.7,0-1.1s-0.1-0.7-0.1-1.1
			c-0.1-0.4-0.2-0.7-0.3-1c-0.1-0.3-0.3-0.6-0.5-0.8s-0.4-0.4-0.7-0.6C117.2,42.8,116.9,42.7,116.5,42.7z"/>
		<path style="fill:#231F20;" d="M125.9,41.6c0.7,0,1.4,0.1,1.9,0.4c0.5,0.3,0.9,0.7,1.2,1.2c0.3,0.5,0.5,1.2,0.7,1.9
			c0.1,0.7,0.2,1.5,0.2,2.4c0,0.8-0.1,1.6-0.3,2.3s-0.4,1.3-0.8,1.8c-0.3,0.5-0.8,0.9-1.3,1.1c-0.5,0.3-1.1,0.4-1.7,0.4
			c-0.7,0-1.3-0.1-1.8-0.4s-0.9-0.7-1.2-1.2s-0.5-1.1-0.7-1.8c-0.1-0.7-0.2-1.5-0.2-2.3c0-0.9,0.1-1.7,0.3-2.4
			c0.2-0.7,0.4-1.3,0.8-1.8s0.8-0.9,1.2-1.1S125.2,41.6,125.9,41.6z M125.8,42.7c-0.4,0-0.8,0.1-1.1,0.3s-0.6,0.5-0.8,0.9
			s-0.4,0.9-0.5,1.4s-0.2,1.2-0.2,1.8c0,0.4,0,0.7,0,1.1s0.1,0.7,0.1,1.1s0.2,0.7,0.3,1c0.1,0.3,0.3,0.6,0.5,0.8
			c0.2,0.2,0.4,0.4,0.7,0.5s0.6,0.2,0.9,0.2c0.4,0,0.8-0.1,1.1-0.3s0.6-0.5,0.8-0.9s0.4-0.9,0.5-1.4s0.2-1.2,0.2-1.8
			c0-0.4,0-0.7,0-1.1s-0.1-0.7-0.1-1.1c-0.1-0.4-0.2-0.7-0.3-1c-0.1-0.3-0.3-0.6-0.5-0.8s-0.4-0.4-0.7-0.6
			C126.5,42.8,126.2,42.7,125.8,42.7z"/>
		<path style="fill:#939598;" d="M144.5,43.4c-0.8-0.6-1.7-0.9-2.8-0.9c-0.5,0-0.9,0.1-1.3,0.2c-0.4,0.1-0.8,0.3-1.1,0.5
			c-0.3,0.2-0.6,0.5-0.8,0.8c-0.2,0.3-0.4,0.6-0.6,1c-0.2,0.4-0.3,0.7-0.3,1.1c-0.1,0.4-0.1,0.8-0.1,1.2c0,0.6,0.1,1.2,0.2,1.8
			c0.2,0.6,0.4,1,0.7,1.5c0.3,0.4,0.8,0.8,1.3,1c0.5,0.2,1.1,0.4,1.8,0.4c0.6,0,1.2-0.1,1.8-0.3c0.6-0.2,1.1-0.5,1.5-0.8l0.5,1.1
			c-0.5,0.4-1.1,0.7-1.7,0.9c-0.7,0.2-1.4,0.3-2.2,0.3c-0.9,0-1.6-0.2-2.3-0.5s-1.2-0.7-1.7-1.2c-0.4-0.5-0.8-1.1-1-1.8
			c-0.2-0.7-0.3-1.4-0.3-2.2c0-0.5,0.1-1.1,0.2-1.6c0.1-0.5,0.3-1,0.5-1.4c0.2-0.4,0.5-0.9,0.8-1.2c0.3-0.4,0.7-0.7,1.1-1
			c0.4-0.3,0.9-0.5,1.4-0.6c0.5-0.1,1-0.2,1.6-0.2c0.7,0,1.3,0.1,1.9,0.3c0.6,0.2,1.1,0.5,1.5,0.9L144.5,43.4z"/>
		<path style="fill:#939598;" d="M153,44.9h1.3V51c0,0.3,0,0.7,0,1s0,0.6,0.1,0.9H153l0-1.1c-0.6,0.8-1.5,1.2-2.6,1.2
			c-0.4,0-0.7,0-1-0.1c-0.3-0.1-0.6-0.2-0.8-0.4c-0.2-0.2-0.4-0.3-0.6-0.6s-0.3-0.4-0.4-0.7c-0.1-0.2-0.2-0.5-0.2-0.8
			s-0.1-0.5-0.1-0.8v-4.9h1.3v4.9c0,0.7,0.2,1.3,0.5,1.7c0.3,0.4,0.8,0.6,1.5,0.6c0.4,0,0.7-0.1,1-0.2s0.5-0.3,0.7-0.6
			c0.2-0.2,0.4-0.5,0.5-0.8c0.1-0.3,0.2-0.6,0.2-1V44.9z"/>
		<path style="fill:#939598;" d="M158.1,52.9h-1.3c0-0.4,0-0.7,0-1c0-0.1,0-0.2,0-0.4c0-0.1,0-0.2,0-0.3c0-0.1,0-0.2,0-0.3
			c0-0.1,0-0.1,0-0.2v-9.5h1.3v4.8c0.3-0.5,0.7-0.8,1.2-1c0.5-0.2,1-0.3,1.6-0.3c0.6,0,1.2,0.1,1.6,0.3c0.4,0.2,0.8,0.5,1.1,0.9
			s0.5,0.8,0.6,1.3s0.2,1,0.2,1.6c0,0.6-0.1,1.1-0.2,1.7c-0.2,0.5-0.4,1-0.7,1.4s-0.7,0.7-1.1,0.9c-0.5,0.2-1,0.3-1.6,0.3
			c-0.6,0-1.1-0.1-1.5-0.3s-0.8-0.5-1.2-0.9L158.1,52.9z M163.2,48.6c0-0.4-0.1-0.8-0.2-1.1c-0.1-0.3-0.3-0.7-0.5-0.9
			c-0.2-0.3-0.5-0.5-0.8-0.6c-0.3-0.2-0.7-0.2-1-0.2c-0.4,0-0.8,0.1-1.1,0.3s-0.6,0.4-0.8,0.7c-0.2,0.3-0.4,0.6-0.5,1
			c-0.1,0.4-0.2,0.8-0.2,1.2c0,0.5,0,0.9,0.1,1.2s0.2,0.7,0.4,0.9c0.2,0.3,0.5,0.5,0.8,0.6c0.3,0.1,0.7,0.2,1.2,0.2
			c0.5,0,0.9-0.1,1.2-0.3c0.3-0.2,0.6-0.4,0.8-0.7s0.3-0.6,0.4-1S163.2,49.1,163.2,48.6z"/>
		<path style="fill:#939598;" d="M166.6,44.9h1.3v8h-1.3V44.9z M167.9,41.5v1.2h-1.2v-1.2H167.9z"/>
		<path style="fill:#939598;" d="M176.1,46.7c-0.2-0.3-0.6-0.5-0.9-0.7s-0.7-0.2-1.1-0.2c-0.4,0-0.8,0.1-1.2,0.2
			c-0.3,0.2-0.6,0.4-0.9,0.7c-0.2,0.3-0.4,0.6-0.5,1s-0.2,0.8-0.2,1.2c0,0.4,0.1,0.8,0.2,1.2s0.3,0.7,0.5,1c0.2,0.3,0.5,0.5,0.9,0.7
			s0.8,0.2,1.2,0.2c0.9,0,1.7-0.3,2.4-0.9l0.4,1.1c-0.4,0.3-0.8,0.5-1.3,0.7s-1,0.2-1.6,0.2c-0.7,0-1.2-0.1-1.7-0.3
			c-0.5-0.2-0.9-0.5-1.2-0.9c-0.3-0.4-0.6-0.8-0.7-1.3c-0.2-0.5-0.2-1-0.2-1.6c0-0.6,0.1-1.1,0.3-1.7c0.2-0.5,0.4-1,0.8-1.4
			c0.3-0.4,0.8-0.7,1.2-0.9c0.5-0.2,1.1-0.3,1.7-0.3c0.6,0,1.2,0.1,1.7,0.3c0.5,0.2,0.8,0.5,1.1,0.8L176.1,46.7z"/>
		<path style="fill:#939598;" d="M185,52.9h-1.3V41.6h6.6v1.2H185v3.9h5v1.2h-5V52.9z"/>
		<path style="fill:#939598;" d="M199.1,52c-0.4,0.4-0.9,0.6-1.4,0.8c-0.5,0.2-1.1,0.3-1.8,0.3c-0.6,0-1.2-0.1-1.7-0.3
			c-0.5-0.2-0.9-0.5-1.3-0.9c-0.3-0.4-0.6-0.8-0.8-1.3s-0.3-1.1-0.3-1.7c0-0.6,0.1-1.1,0.3-1.6c0.2-0.5,0.4-1,0.8-1.3
			c0.3-0.4,0.8-0.7,1.2-0.9c0.5-0.2,1-0.3,1.7-0.3c0.6,0,1.1,0.1,1.6,0.3s0.8,0.5,1.1,0.8c0.3,0.4,0.5,0.8,0.7,1.3
			c0.1,0.5,0.2,1,0.2,1.6c0,0.1,0,0.1,0,0.2c0,0.1,0,0.1,0,0.2h-6.1l0,0.4c0,0.4,0.1,0.7,0.2,1.1s0.3,0.6,0.5,0.8
			c0.2,0.2,0.5,0.4,0.8,0.5s0.7,0.2,1.1,0.2c0.6,0,1.1-0.1,1.5-0.3s0.9-0.5,1.2-0.8L199.1,52z M198,48.2l0-0.1
			c0-0.3-0.1-0.6-0.2-0.9c-0.1-0.3-0.3-0.5-0.4-0.7s-0.4-0.4-0.7-0.5s-0.6-0.2-0.9-0.2c-0.4,0-0.7,0.1-1,0.2s-0.5,0.3-0.8,0.5
			c-0.2,0.2-0.4,0.5-0.5,0.8s-0.2,0.6-0.3,0.9H198z"/>
		<path style="fill:#939598;" d="M208.2,52c-0.4,0.4-0.9,0.6-1.4,0.8c-0.5,0.2-1.1,0.3-1.8,0.3c-0.6,0-1.2-0.1-1.7-0.3
			c-0.5-0.2-0.9-0.5-1.3-0.9c-0.3-0.4-0.6-0.8-0.8-1.3S201,49.6,201,49c0-0.6,0.1-1.1,0.3-1.6c0.2-0.5,0.4-1,0.8-1.3
			c0.3-0.4,0.8-0.7,1.2-0.9c0.5-0.2,1-0.3,1.7-0.3c0.6,0,1.1,0.1,1.6,0.3s0.8,0.5,1.1,0.8c0.3,0.4,0.5,0.8,0.7,1.3
			c0.1,0.5,0.2,1,0.2,1.6c0,0.1,0,0.1,0,0.2c0,0.1,0,0.1,0,0.2h-6.1l0,0.4c0,0.4,0.1,0.7,0.2,1.1s0.3,0.6,0.5,0.8
			c0.2,0.2,0.5,0.4,0.8,0.5s0.7,0.2,1.1,0.2c0.6,0,1.1-0.1,1.5-0.3s0.9-0.5,1.2-0.8L208.2,52z M207.2,48.2l0-0.1
			c0-0.3-0.1-0.6-0.2-0.9c-0.1-0.3-0.3-0.5-0.4-0.7s-0.4-0.4-0.7-0.5s-0.6-0.2-0.9-0.2c-0.4,0-0.7,0.1-1,0.2s-0.5,0.3-0.8,0.5
			c-0.2,0.2-0.4,0.5-0.5,0.8s-0.2,0.6-0.3,0.9H207.2z"/>
		<path style="fill:#939598;" d="M211.2,45.8h-1.6v-0.8h1.6l0-2.1l1.2-0.4v2.5h2v0.8h-2v4.8c0,0.2,0,0.4,0,0.5c0,0.2,0,0.4,0.1,0.5
			c0.1,0.2,0.2,0.3,0.3,0.4s0.3,0.1,0.5,0.1c0.2,0,0.3,0,0.5-0.1c0.2,0,0.4-0.1,0.6-0.2l0,1c-0.2,0.1-0.4,0.2-0.6,0.2
			c-0.2,0-0.5,0.1-0.7,0.1c-0.4,0-0.8-0.1-1.1-0.2c-0.3-0.1-0.5-0.3-0.6-0.6c-0.1-0.2-0.2-0.5-0.3-0.9s-0.1-0.7-0.1-1.1V45.8z"/>
		<path style="fill:#939598;" d="M229.4,46.5v1.1h-8.2v-1.1H229.4z M229.4,49.7v1.1h-8.2v-1.1H229.4z"/>
	</g>
	<g>
		<g>
			<path style="fill:#231F20;" d="M8.3,95.9v0.7L3.7,107H2.3l4.5-10H0.7v-1.1H8.3z"/>
			<path style="fill:#231F20;" d="M15,107v-2.7H9.5v-1l5.2-7.4h1.6v7.3H18v1h-1.7v2.7H15z M15,103.2v-6.3L14.3,98l-3.5,5.2H15z"/>
			<path style="fill:#231F20;" d="M23.2,95.6c0.5,0,1,0.1,1.4,0.2s0.8,0.3,1.1,0.6c0.3,0.2,0.6,0.5,0.8,0.9s0.3,0.7,0.3,1.2
				c0,0.7-0.2,1.2-0.6,1.7s-0.9,0.8-1.6,1c0.8,0.2,1.4,0.6,1.8,1.1c0.4,0.5,0.6,1.1,0.6,1.8c0,0.5-0.1,0.9-0.3,1.3
				c-0.2,0.4-0.5,0.7-0.9,1c-0.4,0.3-0.8,0.5-1.2,0.6s-1,0.2-1.5,0.2c-0.5,0-1-0.1-1.5-0.2s-0.9-0.3-1.2-0.6c-0.4-0.3-0.6-0.6-0.9-1
				c-0.2-0.4-0.3-0.8-0.3-1.3c0-0.7,0.2-1.3,0.6-1.8c0.4-0.5,1-0.9,1.8-1.1c-0.7-0.2-1.2-0.6-1.6-1s-0.6-1-0.6-1.7
				c0-0.4,0.1-0.8,0.3-1.2s0.4-0.6,0.8-0.9c0.3-0.2,0.7-0.4,1.1-0.6S22.7,95.6,23.2,95.6z M23.2,106.1c0.4,0,0.7,0,1-0.1
				s0.6-0.2,0.8-0.4s0.4-0.4,0.5-0.6s0.2-0.5,0.2-0.9c0-0.3-0.1-0.6-0.2-0.8s-0.3-0.5-0.5-0.7s-0.5-0.3-0.8-0.5s-0.6-0.2-1-0.3
				c-0.4,0.1-0.7,0.2-1,0.3s-0.6,0.3-0.8,0.5s-0.4,0.4-0.5,0.7s-0.2,0.5-0.2,0.8c0,0.3,0.1,0.6,0.2,0.9s0.3,0.5,0.5,0.6
				s0.5,0.3,0.8,0.4S22.8,106.1,23.2,106.1z M23.2,96.7c-0.3,0-0.6,0-0.9,0.1s-0.5,0.2-0.7,0.3s-0.4,0.3-0.5,0.6s-0.2,0.5-0.2,0.8
				c0,0.6,0.2,1,0.6,1.4s0.9,0.6,1.7,0.7c0.7-0.1,1.3-0.4,1.7-0.7s0.6-0.8,0.6-1.4c0-0.3-0.1-0.5-0.2-0.8s-0.3-0.4-0.5-0.6
				s-0.4-0.3-0.7-0.3S23.5,96.7,23.2,96.7z"/>
		</g>
		<g>
			<path style="fill:#939598;" d="M71.6,108.5c0.4,0.3,0.8,0.4,1.3,0.6s0.9,0.2,1.3,0.2c0.5,0,0.9-0.1,1.2-0.2
				c0.4-0.1,0.7-0.3,0.9-0.5s0.4-0.5,0.6-0.8s0.2-0.7,0.2-1.2v-1c-0.3,0.5-0.7,0.8-1.2,1s-1,0.3-1.6,0.3c-0.6,0-1.1-0.1-1.5-0.3
				s-0.8-0.5-1.1-0.8s-0.6-0.8-0.7-1.3c-0.2-0.5-0.2-1-0.2-1.6c0-0.6,0.1-1.1,0.2-1.6s0.4-1,0.7-1.3s0.7-0.7,1.2-0.9
				c0.5-0.2,1-0.3,1.6-0.3c0.6,0,1.1,0.1,1.6,0.3c0.4,0.2,0.8,0.5,1.1,1c0-0.1,0-0.2,0-0.3c0-0.1,0-0.2,0-0.4c0-0.1,0-0.3,0-0.4h1.3
				c0,0.2,0,0.5,0,0.7c0,0.2,0,0.4,0,0.6c0,0.2,0,0.4,0,0.6v4.9c0,0.4,0,0.7-0.1,1.1c0,0.4-0.1,0.7-0.2,1s-0.3,0.6-0.5,0.9
				c-0.2,0.3-0.4,0.5-0.7,0.7s-0.7,0.4-1.1,0.5c-0.4,0.1-0.9,0.2-1.5,0.2c-0.5,0-1-0.1-1.5-0.2c-0.5-0.1-0.9-0.3-1.4-0.5L71.6,108.5
				z M77.2,102.7c0-0.4-0.1-0.8-0.2-1.1c-0.1-0.3-0.3-0.7-0.5-0.9c-0.2-0.3-0.5-0.5-0.8-0.6c-0.3-0.2-0.7-0.2-1-0.2
				c-0.4,0-0.8,0.1-1.1,0.3c-0.3,0.2-0.6,0.4-0.8,0.7c-0.2,0.3-0.4,0.6-0.5,1c-0.1,0.4-0.2,0.8-0.2,1.2c0,0.5,0,0.9,0.1,1.2
				s0.2,0.7,0.4,0.9c0.2,0.3,0.5,0.5,0.8,0.6c0.3,0.1,0.7,0.2,1.2,0.2c0.5,0,0.9-0.1,1.2-0.3c0.3-0.2,0.6-0.4,0.8-0.7
				c0.2-0.3,0.3-0.6,0.4-1C77.1,103.5,77.2,103.1,77.2,102.7z"/>
			<path style="fill:#939598;" d="M84.3,98.8c0.3,0,0.6,0,0.9,0.1c0.3,0.1,0.5,0.1,0.8,0.3c0.2,0.1,0.4,0.2,0.6,0.4
				c0.2,0.2,0.4,0.3,0.5,0.5l0-1.1h1.3l0,2v6h-1.3l0-1.1c-0.1,0.2-0.3,0.3-0.5,0.5c-0.2,0.2-0.4,0.3-0.6,0.4
				c-0.2,0.1-0.5,0.2-0.8,0.3s-0.6,0.1-0.9,0.1c-0.4,0-0.9-0.1-1.2-0.2c-0.4-0.1-0.7-0.3-1-0.5c-0.3-0.2-0.5-0.4-0.7-0.7
				s-0.4-0.6-0.5-0.9c-0.1-0.3-0.2-0.6-0.3-1c-0.1-0.3-0.1-0.7-0.1-1c0-0.5,0.1-1,0.2-1.5c0.2-0.5,0.4-0.9,0.7-1.3s0.7-0.7,1.2-0.9
				C83.1,98.9,83.6,98.8,84.3,98.8z M84.4,106.1c0.4,0,0.7-0.1,1-0.2s0.6-0.4,0.8-0.7s0.4-0.6,0.6-1.1c0.1-0.4,0.2-0.9,0.2-1.5
				c0-0.4-0.1-0.8-0.2-1.2c-0.1-0.3-0.3-0.7-0.5-0.9s-0.5-0.5-0.9-0.6s-0.7-0.2-1.1-0.2c-0.3,0-0.6,0-0.9,0.1
				c-0.3,0.1-0.5,0.2-0.7,0.4c-0.2,0.2-0.4,0.3-0.5,0.5c-0.1,0.2-0.3,0.4-0.4,0.7s-0.2,0.5-0.2,0.7c0,0.2-0.1,0.5-0.1,0.7
				c0,0.2,0,0.5,0.1,0.7c0,0.3,0.1,0.5,0.2,0.7s0.2,0.5,0.3,0.7c0.1,0.2,0.3,0.4,0.5,0.5c0.2,0.2,0.4,0.3,0.7,0.4
				C83.7,106.1,84.1,106.1,84.4,106.1z"/>
			<path style="fill:#939598;" d="M92,95.3V107h-1.3V95.3H92z"/>
			<path style="fill:#939598;" d="M96,95.3V107h-1.3V95.3H96z"/>
			<path style="fill:#939598;" d="M102.1,98.8c0.7,0,1.3,0.1,1.8,0.3s0.9,0.5,1.3,0.9s0.6,0.8,0.8,1.3s0.3,1.1,0.3,1.6
				c0,0.6-0.1,1.1-0.3,1.6s-0.4,1-0.8,1.3s-0.8,0.7-1.3,0.9s-1.1,0.3-1.8,0.3c-0.7,0-1.3-0.1-1.8-0.3s-0.9-0.5-1.3-0.9
				s-0.6-0.8-0.8-1.3S98,103.6,98,103s0.1-1.1,0.3-1.6s0.4-1,0.8-1.3s0.8-0.7,1.3-0.9S101.5,98.8,102.1,98.8z M104.9,103
				c0-0.4-0.1-0.8-0.2-1.2s-0.3-0.7-0.5-1s-0.5-0.5-0.9-0.7c-0.3-0.2-0.8-0.3-1.2-0.3c-0.5,0-0.9,0.1-1.2,0.3
				c-0.3,0.2-0.6,0.4-0.9,0.7s-0.4,0.6-0.5,1s-0.2,0.8-0.2,1.2s0.1,0.8,0.2,1.2s0.3,0.7,0.5,1s0.5,0.5,0.9,0.7s0.8,0.3,1.2,0.3
				c0.5,0,0.9-0.1,1.2-0.3s0.6-0.4,0.8-0.7s0.4-0.6,0.5-1S104.9,103.4,104.9,103z"/>
			<path style="fill:#939598;" d="M109.6,107h-1.3v-6.1c0-0.2,0-0.5,0-0.7s0-0.4,0-0.6c0-0.2,0-0.4,0-0.6h1.3l0,1.1
				c0.3-0.4,0.7-0.8,1.1-1s1-0.3,1.6-0.3c0.6,0,1.1,0.1,1.4,0.3c0.4,0.2,0.7,0.5,0.9,0.8c0.2,0.3,0.4,0.8,0.5,1.2s0.1,1,0.1,1.6v4.3
				h-1.3v-4.1c0-0.5,0-0.9-0.1-1.2s-0.1-0.7-0.2-1s-0.3-0.5-0.6-0.6s-0.6-0.2-1-0.2c-0.4,0-0.7,0.1-1,0.2s-0.6,0.3-0.8,0.5
				s-0.4,0.4-0.5,0.7s-0.2,0.4-0.2,0.6V107z"/>
			<path style="fill:#939598;" d="M122.7,100.4c-0.3-0.2-0.6-0.3-1-0.4c-0.4-0.1-0.8-0.1-1.2-0.1c-0.2,0-0.5,0-0.7,0.1
				s-0.4,0.1-0.5,0.2s-0.3,0.2-0.4,0.4s-0.1,0.3-0.1,0.5c0,0.2,0,0.3,0.1,0.5c0.1,0.1,0.2,0.2,0.4,0.3c0.2,0.1,0.3,0.2,0.5,0.3
				s0.4,0.1,0.6,0.2c0.2,0.1,0.4,0.1,0.7,0.2s0.5,0.1,0.7,0.2s0.5,0.2,0.7,0.3s0.4,0.3,0.6,0.4s0.3,0.4,0.4,0.6s0.1,0.5,0.1,0.8
				c0,0.4-0.1,0.8-0.3,1.1s-0.4,0.5-0.7,0.7c-0.3,0.2-0.7,0.3-1.1,0.4c-0.4,0.1-0.8,0.1-1.2,0.1c-0.3,0-0.6,0-0.8,0
				c-0.3,0-0.5-0.1-0.8-0.2c-0.2-0.1-0.5-0.2-0.7-0.3s-0.4-0.3-0.5-0.4l0.3-1.1c0.1,0.2,0.3,0.3,0.5,0.4s0.4,0.2,0.6,0.3
				c0.2,0.1,0.4,0.1,0.7,0.2c0.2,0,0.5,0.1,0.7,0.1c0.3,0,0.6,0,0.8-0.1c0.2-0.1,0.5-0.1,0.6-0.2c0.2-0.1,0.3-0.2,0.4-0.4
				s0.2-0.3,0.2-0.6c0-0.2-0.1-0.4-0.2-0.6c-0.1-0.1-0.3-0.3-0.5-0.4s-0.4-0.2-0.7-0.3c-0.3-0.1-0.6-0.2-0.9-0.3
				c-0.4-0.1-0.7-0.3-1.1-0.4s-0.6-0.3-0.8-0.5s-0.4-0.4-0.5-0.6s-0.2-0.5-0.2-0.9c0-0.4,0.1-0.7,0.3-1s0.4-0.5,0.7-0.7
				c0.3-0.2,0.6-0.3,0.9-0.4s0.7-0.1,1.1-0.1c0.5,0,1,0.1,1.5,0.2s0.8,0.3,1.2,0.5L122.7,100.4z"/>
		</g>
		<g>
			<path style="fill:#D8A271;" d="M48,71.7c0,0-0.3,1.1,0.2,1.5c0.5,0.4,0.4,0.9,0.4,0.9s5.2,2.5,5.9,3.5c0.7,1,3,10.5,3,10.5
				c3.2,7.8,0.9,15.4-0.5,17.2c-1.4,1.8-7.9,2.1-8.1,1.7c-0.2-0.3-1.3-1.6-1.8-1.3c-0.5,0.3-1.9,1.7-1.9,1.7l-8.8-1.9
				c-7-6.6-0.9-26-0.7-26.1c0.2-0.1,7-4.9,7.2-5.3c-0.5-0.5,0-1,0-1v-1.6C46.6,70.7,48,71.7,48,71.7z M52.7,79.1
				c-0.9-0.7-2.1-0.6-2.1,0.8c-0.1,1.4,0.7,7.1,1.6,7.7c0.9,0.6,1.6,0.2,1.8-0.9C54.2,85.5,52.7,79.1,52.7,79.1z"/>
		</g>
	</g>
	<g>
		<g>
			<g>
				<path style="fill:#231F20;" d="M3,230c0.1,0,0.2,0,0.2,0c0.1,0,0.2,0,0.2,0c0.5,0,0.9,0,1.2-0.1s0.7-0.2,0.9-0.4
					c0.3-0.2,0.5-0.4,0.6-0.7c0.1-0.3,0.2-0.6,0.2-1c0-0.3-0.1-0.6-0.2-0.8s-0.3-0.4-0.5-0.5s-0.4-0.2-0.7-0.3
					c-0.3-0.1-0.6-0.1-0.9-0.1c-0.6,0-1,0.1-1.5,0.3c-0.4,0.2-0.8,0.6-1.1,1l-0.8-0.7c0.1-0.3,0.3-0.5,0.5-0.8s0.5-0.4,0.8-0.6
					c0.3-0.2,0.6-0.3,1-0.4c0.4-0.1,0.7-0.1,1.1-0.1c0.5,0,0.9,0.1,1.3,0.2c0.4,0.1,0.8,0.3,1.1,0.5c0.3,0.2,0.6,0.5,0.8,0.9
					s0.3,0.8,0.3,1.2c0,0.3-0.1,0.7-0.2,0.9s-0.3,0.5-0.5,0.8c-0.2,0.2-0.4,0.4-0.7,0.6c-0.3,0.2-0.6,0.3-0.9,0.4l0.1,0
					c0.4,0.1,0.7,0.2,1,0.3s0.6,0.4,0.8,0.6s0.4,0.5,0.5,0.8s0.2,0.6,0.2,1c0,0.5-0.1,1-0.3,1.4s-0.5,0.7-0.9,1s-0.8,0.5-1.3,0.6
					s-1,0.2-1.6,0.2c-0.4,0-0.8,0-1.1-0.1c-0.4-0.1-0.7-0.2-1-0.4s-0.5-0.4-0.7-0.6c-0.2-0.2-0.3-0.5-0.4-0.8l0.6-0.8
					c0.1,0.3,0.2,0.5,0.4,0.7s0.4,0.4,0.6,0.5c0.2,0.1,0.5,0.2,0.8,0.3c0.3,0.1,0.6,0.1,0.9,0.1c0.4,0,0.7,0,1.1-0.1
					c0.3-0.1,0.6-0.2,0.9-0.4s0.4-0.4,0.6-0.7c0.1-0.3,0.2-0.6,0.2-0.9c0-0.4-0.1-0.7-0.2-1s-0.4-0.5-0.6-0.7
					c-0.3-0.2-0.6-0.3-1-0.4c-0.4-0.1-0.8-0.1-1.3-0.1c-0.1,0-0.2,0-0.3,0c-0.1,0-0.2,0-0.3,0L3,230z"/>
			</g>
		</g>
		<g>
			<g>
				<path style="fill:#939598;" d="M72.8,236.4h-1.3v-6.1c0-0.3,0-0.7,0-1c0-0.3,0-0.6,0-0.9h1.3l0,1.2c0.2-0.4,0.5-0.8,0.9-1
					s0.8-0.4,1.2-0.4c0.3,0,0.6,0,0.8,0.1l0,1.2c-0.1-0.1-0.2-0.1-0.4-0.1s-0.3-0.1-0.5-0.1c-0.3,0-0.6,0.1-0.9,0.2
					c-0.3,0.1-0.5,0.3-0.7,0.5c-0.2,0.2-0.3,0.5-0.4,0.8s-0.2,0.7-0.2,1.1V236.4z"/>
				<path style="fill:#939598;" d="M83.9,235.5c-0.4,0.4-0.9,0.6-1.4,0.8c-0.5,0.2-1.1,0.3-1.8,0.3c-0.6,0-1.2-0.1-1.7-0.3
					c-0.5-0.2-0.9-0.5-1.3-0.9c-0.3-0.4-0.6-0.8-0.8-1.3s-0.3-1.1-0.3-1.7c0-0.6,0.1-1.1,0.3-1.6c0.2-0.5,0.4-1,0.8-1.3
					c0.3-0.4,0.8-0.7,1.2-0.9c0.5-0.2,1-0.3,1.7-0.3c0.6,0,1.1,0.1,1.6,0.3s0.8,0.5,1.1,0.8c0.3,0.4,0.5,0.8,0.7,1.3
					c0.1,0.5,0.2,1,0.2,1.6c0,0.1,0,0.1,0,0.2c0,0.1,0,0.1,0,0.2h-6.1l0,0.4c0,0.4,0.1,0.7,0.2,1.1s0.3,0.6,0.5,0.8s0.5,0.4,0.8,0.5
					s0.7,0.2,1.1,0.2c0.6,0,1.1-0.1,1.5-0.3c0.5-0.2,0.9-0.5,1.2-0.8L83.9,235.5z M82.9,231.6l0-0.1c0-0.3-0.1-0.6-0.2-0.9
					c-0.1-0.3-0.3-0.5-0.4-0.7s-0.4-0.4-0.7-0.5c-0.3-0.1-0.6-0.2-0.9-0.2c-0.4,0-0.7,0.1-1,0.2c-0.3,0.1-0.5,0.3-0.8,0.5
					s-0.4,0.5-0.5,0.8s-0.2,0.6-0.3,0.9H82.9z"/>
				<path style="fill:#939598;" d="M88.2,236.4h-1.3v-7.2h-1.6l0-0.8h1.6l0-0.9c0-0.4,0-0.8,0.1-1.2c0.1-0.4,0.2-0.7,0.4-0.9
					c0.2-0.3,0.4-0.5,0.7-0.6c0.3-0.1,0.7-0.2,1.1-0.2c0.1,0,0.2,0,0.3,0c0.1,0,0.2,0,0.3,0c0.1,0,0.2,0,0.2,0.1
					c0.1,0,0.2,0,0.3,0.1l0,1c-0.1,0-0.2-0.1-0.4-0.1c-0.2,0-0.3,0-0.5,0c-0.3,0-0.5,0-0.6,0.1s-0.3,0.2-0.4,0.3
					c-0.1,0.1-0.2,0.3-0.2,0.5c0,0.2-0.1,0.5-0.1,0.7l0,1.1h1.9l0,0.8h-1.9V236.4z"/>
				<path style="fill:#939598;" d="M93,236.4h-1.3v-6.1c0-0.3,0-0.7,0-1s0-0.6,0-0.9H93l0,1.2c0.2-0.4,0.5-0.8,0.9-1
					s0.8-0.4,1.2-0.4c0.3,0,0.6,0,0.8,0.1l0,1.2c-0.1-0.1-0.2-0.1-0.4-0.1s-0.3-0.1-0.5-0.1c-0.3,0-0.6,0.1-0.9,0.2
					s-0.5,0.3-0.7,0.5s-0.3,0.5-0.4,0.8s-0.2,0.7-0.2,1.1V236.4z"/>
				<path style="fill:#939598;" d="M97.5,228.3h1.3v8h-1.3V228.3z M98.8,224.9v1.2h-1.2v-1.2H98.8z"/>
				<path style="fill:#939598;" d="M101.7,237.8c0.4,0.3,0.8,0.4,1.3,0.6s0.9,0.2,1.3,0.2c0.5,0,0.9-0.1,1.2-0.2s0.7-0.3,0.9-0.5
					s0.4-0.5,0.6-0.8s0.2-0.7,0.2-1.2v-1c-0.3,0.5-0.7,0.8-1.2,1s-1,0.3-1.6,0.3c-0.6,0-1.1-0.1-1.5-0.3s-0.8-0.5-1.1-0.8
					s-0.6-0.8-0.7-1.3s-0.2-1-0.2-1.6c0-0.6,0.1-1.1,0.2-1.6s0.4-1,0.7-1.3s0.7-0.7,1.2-0.9s1-0.3,1.6-0.3c0.6,0,1.1,0.1,1.6,0.3
					s0.8,0.5,1.1,1c0-0.1,0-0.2,0-0.3s0-0.2,0-0.4c0-0.1,0-0.3,0-0.4h1.3c0,0.2,0,0.5,0,0.7c0,0.2,0,0.4,0,0.6s0,0.4,0,0.6v4.9
					c0,0.4,0,0.7-0.1,1.1s-0.1,0.7-0.2,1s-0.3,0.6-0.5,0.9s-0.4,0.5-0.7,0.7s-0.7,0.4-1.1,0.5s-0.9,0.2-1.5,0.2
					c-0.5,0-1-0.1-1.5-0.2s-0.9-0.3-1.4-0.5L101.7,237.8z M107.3,232.1c0-0.4-0.1-0.8-0.2-1.1c-0.1-0.3-0.3-0.7-0.5-0.9
					c-0.2-0.3-0.5-0.5-0.8-0.6c-0.3-0.2-0.7-0.2-1-0.2c-0.4,0-0.8,0.1-1.1,0.3c-0.3,0.2-0.6,0.4-0.8,0.7c-0.2,0.3-0.4,0.6-0.5,1
					c-0.1,0.4-0.2,0.8-0.2,1.2c0,0.5,0,0.9,0.1,1.2s0.2,0.7,0.4,0.9s0.5,0.5,0.8,0.6s0.7,0.2,1.2,0.2c0.5,0,0.9-0.1,1.2-0.3
					c0.3-0.2,0.6-0.4,0.8-0.7c0.2-0.3,0.3-0.6,0.4-1C107.2,232.9,107.3,232.5,107.3,232.1z"/>
				<path style="fill:#939598;" d="M117.9,235.5c-0.4,0.4-0.9,0.6-1.4,0.8c-0.5,0.2-1.1,0.3-1.8,0.3c-0.6,0-1.2-0.1-1.7-0.3
					s-0.9-0.5-1.3-0.9s-0.6-0.8-0.8-1.3s-0.3-1.1-0.3-1.7c0-0.6,0.1-1.1,0.3-1.6s0.4-1,0.8-1.3s0.8-0.7,1.2-0.9s1-0.3,1.7-0.3
					c0.6,0,1.1,0.1,1.6,0.3s0.8,0.5,1.1,0.8c0.3,0.4,0.5,0.8,0.7,1.3c0.1,0.5,0.2,1,0.2,1.6c0,0.1,0,0.1,0,0.2c0,0.1,0,0.1,0,0.2
					h-6.1l0,0.4c0,0.4,0.1,0.7,0.2,1.1c0.1,0.3,0.3,0.6,0.5,0.8s0.5,0.4,0.8,0.5c0.3,0.1,0.7,0.2,1.1,0.2c0.6,0,1.1-0.1,1.5-0.3
					s0.9-0.5,1.2-0.8L117.9,235.5z M116.9,231.6l0-0.1c0-0.3-0.1-0.6-0.2-0.9c-0.1-0.3-0.3-0.5-0.4-0.7s-0.4-0.4-0.7-0.5
					s-0.6-0.2-0.9-0.2c-0.4,0-0.7,0.1-1,0.2c-0.3,0.1-0.5,0.3-0.8,0.5c-0.2,0.2-0.4,0.5-0.5,0.8c-0.1,0.3-0.2,0.6-0.3,0.9H116.9z"/>
				<path style="fill:#939598;" d="M121.6,236.4h-1.3v-6.1c0-0.3,0-0.7,0-1c0-0.3,0-0.6,0-0.9h1.3l0,1.2c0.2-0.4,0.5-0.8,0.9-1
					s0.8-0.4,1.2-0.4c0.3,0,0.6,0,0.8,0.1l0,1.2c-0.1-0.1-0.2-0.1-0.4-0.1s-0.3-0.1-0.5-0.1c-0.3,0-0.6,0.1-0.9,0.2
					c-0.3,0.1-0.5,0.3-0.7,0.5c-0.2,0.2-0.3,0.5-0.4,0.8s-0.2,0.7-0.2,1.1V236.4z"/>
				<path style="fill:#939598;" d="M129.3,228.2c0.3,0,0.6,0,0.9,0.1c0.3,0.1,0.5,0.1,0.8,0.3c0.2,0.1,0.4,0.2,0.6,0.4
					c0.2,0.2,0.4,0.3,0.5,0.5l0-1.1h1.3l0,2v6h-1.3l0-1.1c-0.1,0.2-0.3,0.3-0.5,0.5c-0.2,0.2-0.4,0.3-0.6,0.4
					c-0.2,0.1-0.5,0.2-0.8,0.3s-0.6,0.1-0.9,0.1c-0.4,0-0.9-0.1-1.2-0.2c-0.4-0.1-0.7-0.3-1-0.5c-0.3-0.2-0.5-0.4-0.7-0.7
					s-0.4-0.6-0.5-0.9c-0.1-0.3-0.2-0.6-0.3-1c-0.1-0.3-0.1-0.7-0.1-1c0-0.5,0.1-1,0.2-1.5c0.2-0.5,0.4-0.9,0.7-1.3s0.7-0.7,1.2-0.9
					C128.1,228.3,128.7,228.2,129.3,228.2z M129.4,235.5c0.4,0,0.7-0.1,1-0.2s0.6-0.4,0.8-0.7s0.4-0.6,0.6-1.1
					c0.1-0.4,0.2-0.9,0.2-1.5c0-0.4-0.1-0.8-0.2-1.2c-0.1-0.3-0.3-0.7-0.5-0.9s-0.5-0.5-0.9-0.6s-0.7-0.2-1.1-0.2
					c-0.3,0-0.6,0-0.9,0.1c-0.3,0.1-0.5,0.2-0.7,0.4c-0.2,0.2-0.4,0.3-0.5,0.5c-0.1,0.2-0.3,0.4-0.4,0.7s-0.2,0.5-0.2,0.7
					c0,0.2-0.1,0.5-0.1,0.7c0,0.2,0,0.5,0.1,0.7c0,0.3,0.1,0.5,0.2,0.7s0.2,0.5,0.3,0.7c0.1,0.2,0.3,0.4,0.5,0.5
					c0.2,0.2,0.4,0.3,0.7,0.4C128.8,235.5,129.1,235.5,129.4,235.5z"/>
				<path style="fill:#939598;" d="M136.4,229.2h-1.6v-0.8h1.6l0-2.1l1.2-0.4v2.5h2v0.8h-2v4.8c0,0.2,0,0.4,0,0.5
					c0,0.2,0,0.4,0.1,0.5c0.1,0.2,0.2,0.3,0.3,0.4s0.3,0.1,0.5,0.1c0.2,0,0.3,0,0.5-0.1c0.2,0,0.4-0.1,0.6-0.2l0,1
					c-0.2,0.1-0.4,0.2-0.6,0.2c-0.2,0-0.5,0.1-0.7,0.1c-0.4,0-0.8-0.1-1.1-0.2c-0.3-0.1-0.5-0.3-0.6-0.6c-0.1-0.2-0.2-0.5-0.3-0.9
					s-0.1-0.7-0.1-1.1V229.2z"/>
				<path style="fill:#939598;" d="M144.9,228.2c0.7,0,1.3,0.1,1.8,0.3s0.9,0.5,1.3,0.9c0.3,0.4,0.6,0.8,0.8,1.3s0.3,1.1,0.3,1.6
					c0,0.6-0.1,1.1-0.3,1.6s-0.4,1-0.8,1.3c-0.3,0.4-0.8,0.7-1.3,0.9c-0.5,0.2-1.1,0.3-1.8,0.3c-0.7,0-1.3-0.1-1.8-0.3
					c-0.5-0.2-0.9-0.5-1.3-0.9c-0.3-0.4-0.6-0.8-0.8-1.3s-0.3-1.1-0.3-1.6s0.1-1.1,0.3-1.6c0.2-0.5,0.4-1,0.8-1.3s0.8-0.7,1.3-0.9
					C143.6,228.3,144.2,228.2,144.9,228.2z M147.6,232.4c0-0.4-0.1-0.8-0.2-1.2s-0.3-0.7-0.5-1s-0.5-0.5-0.9-0.7s-0.8-0.3-1.2-0.3
					c-0.5,0-0.9,0.1-1.2,0.3c-0.3,0.2-0.6,0.4-0.9,0.7s-0.4,0.6-0.5,1s-0.2,0.8-0.2,1.2s0.1,0.8,0.2,1.2s0.3,0.7,0.5,1
					s0.5,0.5,0.9,0.7s0.8,0.3,1.2,0.3c0.5,0,0.9-0.1,1.2-0.3c0.3-0.2,0.6-0.4,0.8-0.7s0.4-0.6,0.5-1S147.6,232.8,147.6,232.4z"/>
				<path style="fill:#939598;" d="M152.3,236.4H151v-6.1c0-0.3,0-0.7,0-1c0-0.3,0-0.6,0-0.9h1.3l0,1.2c0.2-0.4,0.5-0.8,0.9-1
					s0.8-0.4,1.2-0.4c0.3,0,0.6,0,0.8,0.1l0,1.2c-0.1-0.1-0.2-0.1-0.4-0.1s-0.3-0.1-0.5-0.1c-0.3,0-0.6,0.1-0.9,0.2
					c-0.3,0.1-0.5,0.3-0.7,0.5c-0.2,0.2-0.3,0.5-0.4,0.8s-0.2,0.7-0.2,1.1V236.4z"/>
				<path style="fill:#939598;" d="M161.8,229.7c-0.3-0.2-0.6-0.3-1-0.4c-0.4-0.1-0.8-0.1-1.2-0.1c-0.2,0-0.5,0-0.7,0.1
					s-0.4,0.1-0.5,0.2s-0.3,0.2-0.4,0.4s-0.1,0.3-0.1,0.5c0,0.2,0,0.3,0.1,0.5s0.2,0.2,0.4,0.3s0.3,0.2,0.5,0.3s0.4,0.1,0.6,0.2
					c0.2,0.1,0.4,0.1,0.7,0.2s0.5,0.1,0.7,0.2c0.2,0.1,0.5,0.2,0.7,0.3s0.4,0.3,0.6,0.4s0.3,0.4,0.4,0.6c0.1,0.2,0.1,0.5,0.1,0.8
					c0,0.4-0.1,0.8-0.3,1.1s-0.4,0.5-0.7,0.7c-0.3,0.2-0.7,0.3-1.1,0.4c-0.4,0.1-0.8,0.1-1.2,0.1c-0.3,0-0.5,0-0.8,0
					c-0.3,0-0.5-0.1-0.8-0.2c-0.2-0.1-0.5-0.2-0.7-0.3s-0.4-0.3-0.5-0.4l0.3-1.1c0.1,0.2,0.3,0.3,0.5,0.4s0.4,0.2,0.6,0.3
					s0.4,0.1,0.7,0.2c0.2,0,0.5,0.1,0.7,0.1c0.3,0,0.6,0,0.8-0.1c0.2-0.1,0.5-0.1,0.6-0.2s0.3-0.2,0.4-0.4s0.2-0.3,0.2-0.6
					c0-0.2-0.1-0.4-0.2-0.6s-0.3-0.3-0.5-0.4c-0.2-0.1-0.4-0.2-0.7-0.3s-0.6-0.2-0.9-0.3c-0.4-0.1-0.7-0.3-1.1-0.4
					c-0.3-0.1-0.6-0.3-0.8-0.5s-0.4-0.4-0.5-0.6s-0.2-0.5-0.2-0.9c0-0.4,0.1-0.7,0.3-1c0.2-0.3,0.4-0.5,0.7-0.7
					c0.3-0.2,0.6-0.3,0.9-0.4s0.7-0.1,1.1-0.1c0.5,0,1,0.1,1.5,0.2c0.5,0.1,0.8,0.3,1.2,0.5L161.8,229.7z"/>
			</g>
		</g>
		<g>
			<g>
				<path style="fill:#D8A271;" d="M35,146.8c0.7-0.2,1.3-0.5,2-0.4c9.7,1.2,19.4,2.5,29.1,3.7c1.3,0.2,2.5,1,3.1,2.2
					c0.6,0.9,0.8,2,0.7,3.1c0,1,0.1,2.1-0.1,3.1c0,2.1,0.1,4.2-0.1,6.2c0,1.7,0,3.4,0,5.1l-0.1,0.1c-4.9,2.3-9.8,4.5-14.7,6.8
					c-1.3,0.6-2.5,1.2-3.8,1.7c0-2.8,0.1-5.5-0.1-8.3c0-1.5-0.1-3.1,0.1-4.6c0-0.9,0-1.7,0-2.6c0-2-1-3.9-2.7-4.9
					c-0.9-0.5-1.9-0.5-2.9-0.6c-9.7-1.3-19.3-2.7-29-4c0.1-0.2,0.3-0.2,0.5-0.3C23.1,150.9,29,148.9,35,146.8z"/>
				<g>
					<path style="fill:#D8A271;" d="M14.3,154.4c0.4-0.1,0.8-0.3,1.2-0.3c7.8,1.1,15.6,2.1,23.3,3.2c2.5,0.3,5,0.7,7.4,1
						c1.4,0.2,2.4,1.3,3.1,2.5c0.5,0.8,0.7,1.8,0.7,2.7c0,4.9,0,9.9,0,14.8c-0.1,0-0.3,0-0.4,0c-8.6-1.4-17.1-2.7-25.7-4.1
						c-3.8-0.6-7.7-1.2-11.5-1.8c0-0.9,0-1.8,0-2.7c-0.1-1.1,0-2.2-0.1-3.3c0-0.8,0-1.6,0-2.4c-0.1-1.1,0-2.3-0.1-3.4
						c0-1,0-2.1,0-3.1C12.3,156.3,13,154.9,14.3,154.4z M16,164.3c-0.3,0.1-0.6,0.4-0.7,0.7c-0.3,1,0.4,2.2,1.5,2.3
						c2.6,0.4,5.1,0.8,7.7,1.2c0.4,0,0.7,0.2,1.1,0c0.4-0.1,0.6-0.5,0.8-0.9c0.2-0.8-0.2-1.7-1-2.1c-0.3-0.2-0.7-0.2-1.1-0.2
						c-2.4-0.4-4.8-0.7-7.2-1.1C16.7,164.2,16.3,164.1,16,164.3z"/>
				</g>
				<path style="fill:#D8A271;" d="M67.5,172.4c0.8-0.3,1.5-0.7,2.3-1c0,2,0.1,4,0,6c0,1.9,0.1,3.8-0.1,5.7c0,1.8,0,3.7,0,5.5
					c-0.1,1.4,0,2.9-0.1,4.4c-0.2,2.3,0,4.7-0.1,7c0,1.6,0,3.2,0,4.7c-0.2,2.4,0,4.8-0.1,7.2c0,1.9,0,3.8,0,5.8
					c-0.2,1.5,0.1,3.1-0.1,4.6c-0.1,0.9-0.6,1.8-1.4,2.3c-5.4,3.4-10.7,6.8-16.1,10.2c-0.4,0.2-0.7,0.5-1.1,0.7
					c0.2-0.4,0.4-0.7,0.5-1c0.1-0.4,0.2-0.9,0.2-1.3c0-17.6,0-35.2,0-52.9c0-0.2,0.2-0.3,0.3-0.3C56.9,177.3,62.2,174.9,67.5,172.4z
					"/>
				<g>
					<path style="fill:#D8A271;" d="M12.6,173.9c1.4,0.1,2.8,0.4,4.1,0.6c6.2,1,12.3,2,18.5,3c4.9,0.8,9.9,1.6,14.8,2.4
						c0,17.7,0,35.4,0,53.1c0,1.1-0.5,2.4-1.5,2.9c-0.7,0.4-1.5,0.4-2.3,0.4c-9.3-2.1-18.6-4.2-27.9-6.3c-0.7-0.2-1.4-0.3-2-0.6
						c-1.4-0.8-2.4-2.3-2.6-3.8c-0.1-1.2-0.1-2.5-0.1-3.7c-0.1-1.2,0-2.4-0.1-3.6c0-0.9,0.1-1.9-0.1-2.8c0-0.9,0.1-1.9-0.1-2.8
						c0-0.9,0-1.7,0-2.6c-0.1-1,0-1.9-0.1-2.9c-0.1-1.1,0-2.2-0.1-3.2c0-0.8,0-1.6,0-2.4c-0.1-1.2,0-2.3-0.1-3.5
						c0-0.9,0.1-1.9-0.1-2.8c0-0.8,0-1.6,0-2.4c-0.1-1.1,0-2.2-0.1-3.3c0-0.9,0-1.7,0-2.6c-0.1-1.1,0-2.3-0.1-3.4
						c0-1.7-0.1-3.3-0.1-5c-0.1-1,0-2-0.1-3.1C12.5,175.1,12.5,174.5,12.6,173.9z M16.5,186c-0.3,0.2-0.5,0.4-0.6,0.7
						c-0.1,0.5,0,0.9,0,1.4c0,2.4,0.1,4.8,0.1,7.3c0,1.1,1.1,2.1,2.2,1.8c0.5-0.1,0.8-0.6,0.8-1.1c0-2.8-0.1-5.5-0.1-8.3
						C18.9,186.6,17.6,185.6,16.5,186z"/>
				</g>
			</g>
		</g>
	</g>
	<g>
		<g>
			<rect x="-0.2" y="506.4" style="fill:none;" width="36.3" height="19.1"/>
			<text transform="matrix(1 0 0 1 -0.2178 518.0146)" style="fill:#808285; font-family:'Muli'; font-size:16;">1/10  </text>
		</g>
		<g>
			<rect x="83.1" y="506.4" style="fill:none;" width="127" height="19.1"/>
			<text transform="matrix(1 0 0 1 83.0981 518.0146)" style="fill:#808285; font-family:'Muli'; font-size:16;">cargo container  </text>
		</g>
		<g>
			<path d="M179.6,501.1h15.8c0.8-0.2,4.2-0.2,5,0H233v-4.3H31.4v2.7c0.7,1.5,1.2,1.6,2.8,1.6h3.5l2.9,11.5H41
				c1,4.3,4.8,7.4,9.4,7.4c4.6,0,8.4-3.2,9.4-7.4h1.3c1,4.3,4.8,7.4,9.4,7.4c4.6,0,8.4-3.2,9.4-7.4h0.4l1.9-11.5c0,0,51.6,0,51.6,0
				h40.8C175.4,500.9,178.8,500.9,179.6,501.1z M53.8,512.6c-0.8,1.2-2,2-3.5,2c-1.5,0-2.7-0.8-3.5-2c-0.4-0.7-0.7-1.4-0.7-2.2
				c0-2.3,1.9-4.2,4.2-4.2s4.2,1.9,4.2,4.2C54.6,511.2,54.2,512,53.8,512.6z M73.9,512.6c-0.8,1.2-2,2-3.5,2c-1.5,0-2.7-0.8-3.5-2
				c-0.4-0.7-0.7-1.4-0.7-2.2c0-2.3,1.9-4.2,4.2-4.2c2.3,0,4.2,1.9,4.2,4.2C74.7,511.2,74.4,512,73.9,512.6z"/>
			<g>
				<rect x="207.7" y="428.1" width="20" height="59.6"/>
			</g>
			<rect x="197.2" y="497.6" width="4.4" height="8.8"/>
			<g>
				<path d="M229.8,426.2v63.2h-195v-63.2H229.8 M233,423H31.5v69.7H233V423L233,423z"/>
			</g>
		</g>
	</g>
	<g>
		<g>
			<path style="fill:#808285;" d="M116.8,140.2c0,0.8-0.1,1.4-0.3,2.1c-0.2,0.6-0.5,1.2-1,1.6c-0.4,0.5-0.9,0.8-1.5,1.1
				c-0.6,0.3-1.3,0.4-2.1,0.4c-0.8,0-1.4-0.1-2-0.4c-0.6-0.2-1.1-0.6-1.5-1c-0.4-0.4-0.7-1-1-1.6s-0.3-1.3-0.3-2.1
				c0-0.7,0.1-1.4,0.3-2.1s0.5-1.2,1-1.6c0.4-0.5,0.9-0.8,1.6-1.1c0.6-0.3,1.3-0.4,2.1-0.4c0.7,0,1.4,0.1,2,0.4
				c0.6,0.2,1.1,0.6,1.5,1c0.4,0.5,0.7,1,1,1.6C116.7,138.7,116.8,139.4,116.8,140.2z M108.3,140.2c0,0.6,0.1,1.1,0.2,1.6
				c0.2,0.5,0.4,0.9,0.7,1.3c0.3,0.4,0.7,0.7,1.1,0.9c0.5,0.2,1,0.3,1.6,0.3c0.6,0,1.1-0.1,1.6-0.3c0.5-0.2,0.8-0.5,1.1-0.9
				c0.3-0.4,0.5-0.8,0.7-1.3c0.2-0.5,0.2-1.1,0.2-1.7c0-0.6-0.1-1.1-0.2-1.6s-0.4-0.9-0.7-1.3s-0.7-0.7-1.1-0.9
				c-0.4-0.2-1-0.3-1.6-0.3c-0.6,0-1.1,0.1-1.6,0.3s-0.8,0.5-1.1,0.9c-0.3,0.4-0.5,0.8-0.7,1.3C108.4,139.1,108.3,139.7,108.3,140.2
				z"/>
			<path style="fill:#808285;" d="M120.2,140.7v4.5H119v-10h2.4c0.3,0,0.6,0,0.9,0c0.3,0,0.6,0,1,0.1c0.3,0,0.6,0.1,0.9,0.2
				c0.3,0.1,0.6,0.3,0.8,0.4c0.2,0.2,0.4,0.4,0.6,0.7c0.1,0.3,0.2,0.7,0.2,1.1c0,0.3-0.1,0.6-0.2,0.9c-0.1,0.3-0.2,0.5-0.4,0.7
				c-0.2,0.2-0.4,0.4-0.7,0.5c-0.3,0.1-0.6,0.3-0.9,0.3h0c0.3,0.1,0.5,0.2,0.7,0.4c0.2,0.2,0.3,0.4,0.5,0.7c0.1,0.3,0.3,0.6,0.4,1
				c0.1,0.4,0.3,0.8,0.5,1.3l0.6,1.5h-1.3l-1-2.9c-0.1-0.3-0.2-0.6-0.3-0.8s-0.2-0.4-0.4-0.5c-0.2-0.1-0.3-0.2-0.5-0.3
				c-0.2,0-0.5-0.1-0.8-0.1H120.2z M120.2,139.7h1.8c0.3,0,0.6,0,0.9-0.1c0.3-0.1,0.6-0.1,0.8-0.3c0.2-0.1,0.4-0.3,0.6-0.5
				s0.2-0.5,0.2-0.9c0-0.3-0.1-0.6-0.2-0.8c-0.1-0.2-0.3-0.4-0.5-0.5c-0.2-0.1-0.5-0.2-0.8-0.3s-0.6-0.1-1-0.1h-1.9V139.7z"/>
		</g>
		<line style="fill:none;stroke:#E6E7E8;stroke-miterlimit:10;" x1="86" y1="140.5" x2="102" y2="140.5"/>
		<line style="fill:none;stroke:#E6E7E8;stroke-miterlimit:10;" x1="131" y1="140.5" x2="147" y2="140.5"/>
	</g>
</g>
</svg>
