<?xml version="1.0" encoding="utf-8"?>
<!-- Generator: Adobe Illustrator 15.0.0, SVG Export Plug-In . SVG Version: 6.00 Build 0)  -->
<!DOCTYPE svg PUBLIC "-//W3C//DTD SVG 1.1//EN" "http://www.w3.org/Graphics/SVG/1.1/DTD/svg11.dtd">
<svg version="1.1" xmlns="http://www.w3.org/2000/svg" xmlns:xlink="http://www.w3.org/1999/xlink" x="0px" y="0px" width="233px"
	 height="156px" viewBox="0 0 233 156" style="enable-background:new 0 0 233 156;" xml:space="preserve">
<g id="underlay" style="display:none;">
	
		<image style="display:inline;overflow:visible;" width="1440" height="900" xlink:href="../IMAGE files/legend_underlay.png"  transform="matrix(1 0 0 1 -1042.1367 -396.2544)">
	</image>
	
		<image style="display:inline;overflow:visible;" width="1440" height="900" xlink:href="../IMAGE files/legend_underlay1.png"  transform="matrix(1 0 0 1 -1042.4961 -489.8594)">
	</image>
</g>
<g id="guides" style="display:none;">
</g>
<g id="circles">
	<g>
		<g>
			<circle style="fill:none;stroke:#58595B;stroke-miterlimit:10;stroke-dasharray:1.9836,1.9836;" cx="24" cy="40.7" r="12"/>
		</g>
		<g>
			<circle style="fill:none;stroke:#58595B;stroke-miterlimit:10;stroke-dasharray:1.9837,1.9837;" cx="24" cy="28.7" r="24"/>
		</g>
		<line style="fill:none;stroke:#A7A9AC;stroke-miterlimit:10;" x1="34" y1="29.2" x2="73" y2="29.2"/>
		<line style="fill:none;stroke:#A7A9AC;stroke-miterlimit:10;" x1="34" y1="4.2" x2="73" y2="4.2"/>
		<rect x="77.7" y="1.8" style="fill:none;" width="75.2" height="19.1"/>
		<text transform="matrix(1 0 0 1 77.6665 10.5518)" style="fill:#808285; font-family:'Muli'; font-size:12;">$2.00 (USD)/</text>
		<rect x="164.4" y="1.8" style="fill:none;" width="26.9" height="19.1"/>
		<text transform="matrix(1 0 0 1 164.416 10.5518)" style="fill:#808285; font-family:'Muli'; font-size:12;">/day</text>
		<g>
			<path style="fill:#808285;" d="M159.7,11.3h-5.9c-1.1,0-1.8-0.6-1.8-1.7c0-1.5,0.4-3.8,2.3-3.8c0.2,0,1.1,0.9,2.4,0.9
				s2.2-0.9,2.4-0.9c2,0,2.3,2.3,2.3,3.8C161.5,10.7,160.8,11.3,159.7,11.3z M156.8,6.2c-1.4,0-2.6-1.2-2.6-2.6s1.2-2.6,2.6-2.6
				s2.6,1.2,2.6,2.6S158.2,6.2,156.8,6.2z"/>
		</g>
		<rect x="77.7" y="28" style="fill:none;" width="75.2" height="19.1"/>
		<text transform="matrix(1 0 0 1 77.6665 36.749)" style="fill:#808285; font-family:'Muli'; font-size:12;">$1.00 (USD)/</text>
		<rect x="164.4" y="28" style="fill:none;" width="26.9" height="19.1"/>
		<text transform="matrix(1 0 0 1 164.416 36.749)" style="fill:#808285; font-family:'Muli'; font-size:12;">/day</text>
		<g>
			<path style="fill:#808285;" d="M159.7,37.5h-5.9c-1.1,0-1.8-0.6-1.8-1.7c0-1.5,0.4-3.8,2.3-3.8c0.2,0,1.1,0.9,2.4,0.9
				s2.2-0.9,2.4-0.9c2,0,2.3,2.3,2.3,3.8C161.5,36.9,160.8,37.5,159.7,37.5z M156.8,32.4c-1.4,0-2.6-1.2-2.6-2.6s1.2-2.6,2.6-2.6
				s2.6,1.2,2.6,2.6S158.2,32.4,156.8,32.4z"/>
		</g>
	</g>
	<g>
		<circle style="fill:#A4AD50;" cx="24" cy="74.7" r="12"/>
		<rect x="48" y="70.6" style="fill:none;" width="104.3" height="19.1"/>
		<text transform="matrix(1 0 0 1 48 79.3623)" style="fill:#939598; font-family:'Muli'; font-size:12;">Metered Users</text>
	</g>
	<g>
		<circle style="fill:#E4DA56;" cx="24" cy="106.7" r="12"/>
		<rect x="48" y="102.6" style="fill:none;" width="104.3" height="19.1"/>
		<text transform="matrix(1 0 0 1 48 111.3623)" style="fill:#939598; font-family:'Muli'; font-size:12;">Flat Rate Users</text>
	</g>
	<rect y="130.6" style="fill:none;" width="232.5" height="32.1"/>
	<text transform="matrix(1 0 0 1 0 139.3623)"><tspan x="0" y="0" style="fill:#939598; font-family:'Muli'; font-size:12;">Note: flate rate billing does not take into </tspan><tspan x="0" y="14.4" style="fill:#939598; font-family:'Muli'; font-size:12;">account water consumption.</tspan></text>
	<rect y="198" style="fill:none;" width="248.6" height="19.1"/>
	<text transform="matrix(1 0 0 1 68.644 208.1758)" style="fill:#939598; font-family:'Muli'; font-size:14;">WHAT IS A CCF?  </text>
	<rect y="228.9" style="fill:none;" width="262.7" height="19.1"/>
	<text transform="matrix(1 0 0 1 0 240.6113)"><tspan x="0" y="0" style="fill:#231F20; font-family:'Muli'; font-size:16;">1</tspan><tspan x="9.3" y="0" style="fill:#939598; font-family:'Muli'; font-size:16;"> CCF = </tspan><tspan x="65.5" y="0" style="fill:#231F20; font-family:'Muli'; font-size:16;">100</tspan><tspan x="93.4" y="0" style="fill:#939598; font-family:'Muli'; font-size:16;"> Cubic Feet =   </tspan></text>
	<g>
		<rect y="283" style="fill:none;" width="35.2" height="19.1"/>
		<text transform="matrix(1 0 0 1 0 294.6641)" style="fill:#231F20; font-family:'Muli'; font-size:16;">748  </text>
		<rect x="70" y="283" style="fill:none;" width="114.2" height="19.1"/>
		<text transform="matrix(1 0 0 1 70.0322 294.6641)" style="fill:#939598; font-family:'Muli'; font-size:16;">gallons  </text>
		<g>
			<path style="fill:#D8A271;" d="M48,259.4c0,0-0.3,1.1,0.2,1.5c0.5,0.4,0.4,0.9,0.4,0.9s5.2,2.5,5.9,3.5c0.7,1,3,10.5,3,10.5
				c3.2,7.8,0.9,15.4-0.5,17.2c-1.4,1.8-7.9,2.1-8.1,1.7c-0.2-0.3-1.3-1.6-1.8-1.3c-0.5,0.3-1.9,1.7-1.9,1.7l-8.8-1.9
				c-7-6.6-0.9-26-0.7-26.1c0.2-0.1,7-4.9,7.2-5.3c-0.5-0.5,0-1,0-1v-1.6C46.6,258.4,48,259.4,48,259.4z M52.7,266.8
				c-0.9-0.7-2.1-0.6-2.1,0.8c-0.1,1.4,0.7,7.1,1.6,7.7c0.9,0.6,1.6,0.2,1.8-0.9C54.2,273.2,52.7,266.8,52.7,266.8z"/>
		</g>
	</g>
	<g>
		<g>
			<rect y="412.4" style="fill:none;" width="27" height="19.1"/>
			<text transform="matrix(1 0 0 1 0 424.0283)" style="fill:#231F20; font-family:'Muli'; font-size:16;">3  </text>
		</g>
		<g>
			<rect x="70.2" y="412.4" style="fill:none;" width="204.8" height="19.1"/>
			<text transform="matrix(1 0 0 1 70.25 424.0283)" style="fill:#939598; font-family:'Muli'; font-size:16;">refrigerators  </text>
		</g>
		<g>
			<g>
				<path style="fill:#D8A271;" d="M35,334.5c0.7-0.2,1.3-0.5,2-0.4c9.7,1.2,19.4,2.5,29.1,3.7c1.3,0.2,2.5,1,3.1,2.2
					c0.6,0.9,0.8,2,0.7,3.1c0,1,0.1,2.1-0.1,3.1c0,2.1,0.1,4.2-0.1,6.2c0,1.7,0,3.4,0,5.1l-0.1,0.1c-4.9,2.3-9.8,4.5-14.7,6.8
					c-1.3,0.6-2.5,1.2-3.8,1.7c0-2.8,0.1-5.5-0.1-8.3c0-1.5-0.1-3.1,0.1-4.6c0-0.9,0-1.7,0-2.6c0-2-1-3.9-2.7-4.9
					c-0.9-0.5-1.9-0.5-2.9-0.6c-9.7-1.3-19.3-2.7-29-4c0.1-0.2,0.3-0.2,0.5-0.3C23.1,338.6,29,336.5,35,334.5z"/>
				<g>
					<path style="fill:#D8A271;" d="M14.3,342.1c0.4-0.1,0.8-0.3,1.2-0.3c7.8,1.1,15.6,2.1,23.3,3.2c2.5,0.3,5,0.7,7.4,1
						c1.4,0.2,2.4,1.3,3.1,2.5c0.5,0.8,0.7,1.8,0.7,2.7c0,4.9,0,9.9,0,14.8c-0.1,0-0.3,0-0.4,0c-8.6-1.4-17.1-2.7-25.7-4.1
						c-3.8-0.6-7.7-1.2-11.5-1.8c0-0.9,0-1.8,0-2.7c-0.1-1.1,0-2.2-0.1-3.3c0-0.8,0-1.6,0-2.4c-0.1-1.1,0-2.3-0.1-3.4
						c0-1,0-2.1,0-3.1C12.3,344,13,342.6,14.3,342.1z M16,352c-0.3,0.1-0.6,0.4-0.7,0.7c-0.3,1,0.4,2.2,1.5,2.3
						c2.6,0.4,5.1,0.8,7.7,1.2c0.4,0,0.7,0.2,1.1,0c0.4-0.1,0.6-0.5,0.8-0.9c0.2-0.8-0.2-1.7-1-2.1c-0.3-0.2-0.7-0.2-1.1-0.2
						c-2.4-0.4-4.8-0.7-7.2-1.1C16.7,351.9,16.3,351.8,16,352z"/>
				</g>
				<path style="fill:#D8A271;" d="M67.5,360.1c0.8-0.3,1.5-0.7,2.3-1c0,2,0.1,4,0,6c0,1.9,0.1,3.8-0.1,5.7c0,1.8,0,3.7,0,5.5
					c-0.1,1.4,0,2.9-0.1,4.4c-0.2,2.3,0,4.7-0.1,7c0,1.6,0,3.2,0,4.7c-0.2,2.4,0,4.8-0.1,7.2c0,1.9,0,3.8,0,5.8
					c-0.2,1.5,0.1,3.1-0.1,4.6c-0.1,0.9-0.6,1.8-1.4,2.3c-5.4,3.4-10.7,6.8-16.1,10.2c-0.4,0.2-0.7,0.5-1.1,0.7
					c0.2-0.4,0.4-0.7,0.5-1c0.1-0.4,0.2-0.9,0.2-1.3c0-17.6,0-35.2,0-52.9c0-0.2,0.2-0.3,0.3-0.3C56.9,365,62.2,362.5,67.5,360.1z"
					/>
				<g>
					<path style="fill:#D8A271;" d="M12.6,361.6c1.4,0.1,2.8,0.4,4.1,0.6c6.2,1,12.3,2,18.5,3c4.9,0.8,9.9,1.6,14.8,2.4
						c0,17.7,0,35.4,0,53.1c0,1.1-0.5,2.4-1.5,2.9c-0.7,0.4-1.5,0.4-2.3,0.4c-9.3-2.1-18.6-4.2-27.9-6.3c-0.7-0.2-1.4-0.3-2-0.6
						c-1.4-0.8-2.4-2.3-2.6-3.8c-0.1-1.2-0.1-2.5-0.1-3.7c-0.1-1.2,0-2.4-0.1-3.6c0-0.9,0.1-1.9-0.1-2.8c0-0.9,0.1-1.9-0.1-2.8
						c0-0.9,0-1.7,0-2.6c-0.1-1,0-1.9-0.1-2.9c-0.1-1.1,0-2.2-0.1-3.2c0-0.8,0-1.6,0-2.4c-0.1-1.2,0-2.3-0.1-3.5
						c0-0.9,0.1-1.9-0.1-2.8c0-0.8,0-1.6,0-2.4c-0.1-1.1,0-2.2-0.1-3.3c0-0.9,0-1.7,0-2.6c-0.1-1.1,0-2.3-0.1-3.4
						c0-1.7-0.1-3.3-0.1-5c-0.1-1,0-2-0.1-3.1C12.5,362.7,12.5,362.2,12.6,361.6z M16.5,373.7c-0.3,0.2-0.5,0.4-0.6,0.7
						c-0.1,0.5,0,0.9,0,1.4c0,2.4,0.1,4.8,0.1,7.3c0,1.1,1.1,2.1,2.2,1.8c0.5-0.1,0.8-0.6,0.8-1.1c0-2.8-0.1-5.5-0.1-8.3
						C18.9,374.3,17.6,373.2,16.5,373.7z"/>
				</g>
			</g>
		</g>
	</g>
	<g>
		<g>
			<rect x="-0.2" y="694" style="fill:none;" width="36.3" height="19.1"/>
			<text transform="matrix(1 0 0 1 -0.2178 705.6816)" style="fill:#808285; font-family:'Muli'; font-size:16;">1/10  </text>
		</g>
		<g>
			<rect x="83.1" y="694" style="fill:none;" width="127" height="19.1"/>
			<text transform="matrix(1 0 0 1 83.0981 705.6816)" style="fill:#808285; font-family:'Muli'; font-size:16;">cargo container  </text>
		</g>
		<g>
			<path d="M179.6,688.8h15.8c0.8-0.2,4.2-0.2,5,0H233v-4.3H31.4v2.7c0.7,1.5,1.2,1.6,2.8,1.6h3.5l2.9,11.5H41
				c1,4.3,4.8,7.4,9.4,7.4c4.6,0,8.4-3.2,9.4-7.4h1.3c1,4.3,4.8,7.4,9.4,7.4c4.6,0,8.4-3.2,9.4-7.4h0.4l1.9-11.5c0,0,51.6,0,51.6,0
				h40.8C175.4,688.5,178.8,688.5,179.6,688.8z M53.8,700.3c-0.8,1.2-2,2-3.5,2c-1.5,0-2.7-0.8-3.5-2c-0.4-0.7-0.7-1.4-0.7-2.2
				c0-2.3,1.9-4.2,4.2-4.2s4.2,1.9,4.2,4.2C54.6,698.9,54.2,699.6,53.8,700.3z M73.9,700.3c-0.8,1.2-2,2-3.5,2c-1.5,0-2.7-0.8-3.5-2
				c-0.4-0.7-0.7-1.4-0.7-2.2c0-2.3,1.9-4.2,4.2-4.2c2.3,0,4.2,1.9,4.2,4.2C74.7,698.9,74.4,699.6,73.9,700.3z"/>
			<g>
				<rect x="207.7" y="615.8" width="20" height="59.6"/>
			</g>
			<rect x="197.2" y="685.3" width="4.4" height="8.8"/>
			<g>
				<path d="M229.8,613.9v63.2h-195v-63.2H229.8 M233,610.7H31.5v69.7H233V610.7L233,610.7z"/>
			</g>
		</g>
	</g>
	<g>
		<rect y="322.6" style="fill:none;" width="233.3" height="19.1"/>
		<text transform="matrix(1 0 0 1 106.2769 332.8428)" style="fill:#808285; font-family:'Muli'; font-size:14;">OR</text>
		<line style="fill:none;stroke:#E6E7E8;stroke-miterlimit:10;" x1="86" y1="328.2" x2="102" y2="328.2"/>
		<line style="fill:none;stroke:#E6E7E8;stroke-miterlimit:10;" x1="131" y1="328.2" x2="147" y2="328.2"/>
	</g>
</g>
</svg>
