<?xml version="1.0" encoding="utf-8"?>
<!-- Generator: Adobe Illustrator 15.0.0, SVG Export Plug-In . SVG Version: 6.00 Build 0)  -->
<!DOCTYPE svg PUBLIC "-//W3C//DTD SVG 1.1//EN" "http://www.w3.org/Graphics/SVG/1.1/DTD/svg11.dtd">
<svg version="1.1" xmlns="http://www.w3.org/2000/svg" xmlns:xlink="http://www.w3.org/1999/xlink" x="0px" y="0px" width="233px"
	 height="167px" viewBox="0 0 233 167" style="enable-background:new 0 0 233 167;" xml:space="preserve">
<g id="underlay" style="display:none;">
	
		<image style="display:inline;overflow:visible;" width="1440" height="900" xlink:href="../IMAGE files/legend_underlay.png"  transform="matrix(1 0 0 1 -1042.1367 -391.9214)">
	</image>
	
		<image style="display:inline;overflow:visible;" width="1440" height="900" xlink:href="../IMAGE files/legend_underlay1.png"  transform="matrix(1 0 0 1 -1042.4961 -485.5264)">
	</image>
</g>
<g id="guides" style="display:none;">
</g>
<g id="circles">
	<g>
		<g>
			<circle style="fill:none;stroke:#58595B;stroke-miterlimit:10;stroke-dasharray:1.9836,1.9836;" cx="351" cy="45" r="12"/>
		</g>
		<g>
			<circle style="fill:none;stroke:#58595B;stroke-miterlimit:10;stroke-dasharray:1.9837,1.9837;" cx="351" cy="33" r="24"/>
		</g>
		<line style="fill:none;stroke:#A7A9AC;stroke-miterlimit:10;" x1="361" y1="33.5" x2="400" y2="33.5"/>
		<line style="fill:none;stroke:#A7A9AC;stroke-miterlimit:10;" x1="361" y1="8.5" x2="400" y2="8.5"/>
		<rect x="404.7" y="6.1" style="fill:none;" width="75.2" height="19.1"/>
		<text transform="matrix(1 0 0 1 404.666 14.8848)" style="fill:#808285; font-family:'Muli'; font-size:12;">$2.00 (USD)/</text>
		<rect x="491.4" y="6.1" style="fill:none;" width="26.9" height="19.1"/>
		<text transform="matrix(1 0 0 1 491.416 14.8848)" style="fill:#808285; font-family:'Muli'; font-size:12;">/day</text>
		<g>
			<path style="fill:#808285;" d="M486.7,15.7h-5.9c-1.1,0-1.8-0.6-1.8-1.7c0-1.5,0.4-3.8,2.3-3.8c0.2,0,1.1,0.9,2.4,0.9
				s2.2-0.9,2.4-0.9c2,0,2.3,2.3,2.3,3.8C488.5,15,487.8,15.7,486.7,15.7z M483.8,10.5c-1.4,0-2.6-1.2-2.6-2.6s1.2-2.6,2.6-2.6
				s2.6,1.2,2.6,2.6S485.2,10.5,483.8,10.5z"/>
		</g>
		<rect x="404.7" y="32.3" style="fill:none;" width="75.2" height="19.1"/>
		<text transform="matrix(1 0 0 1 404.666 41.082)" style="fill:#808285; font-family:'Muli'; font-size:12;">$1.00 (USD)/</text>
		<rect x="491.4" y="32.3" style="fill:none;" width="26.9" height="19.1"/>
		<text transform="matrix(1 0 0 1 491.416 41.082)" style="fill:#808285; font-family:'Muli'; font-size:12;">/day</text>
		<g>
			<path style="fill:#808285;" d="M486.7,41.9h-5.9c-1.1,0-1.8-0.6-1.8-1.7c0-1.5,0.4-3.8,2.3-3.8c0.2,0,1.1,0.9,2.4,0.9
				s2.2-0.9,2.4-0.9c2,0,2.3,2.3,2.3,3.8C488.5,41.2,487.8,41.9,486.7,41.9z M483.8,36.7c-1.4,0-2.6-1.2-2.6-2.6s1.2-2.6,2.6-2.6
				s2.6,1.2,2.6,2.6S485.2,36.7,483.8,36.7z"/>
		</g>
	</g>
	<g>
		<circle style="fill:#A4AD50;" cx="351" cy="79" r="12"/>
		<rect x="375" y="74.9" style="fill:none;" width="104.3" height="19.1"/>
		<text transform="matrix(1 0 0 1 375 83.6953)" style="fill:#939598; font-family:'Muli'; font-size:12;">Metered Users</text>
	</g>
	<g>
		<circle style="fill:#E4DA56;" cx="351" cy="111" r="12"/>
		<rect x="375" y="106.9" style="fill:none;" width="104.3" height="19.1"/>
		<text transform="matrix(1 0 0 1 375 115.6953)" style="fill:#939598; font-family:'Muli'; font-size:12;">Flat Rate Users</text>
	</g>
	<rect x="327.1" y="140.5" style="fill:none;" width="232.5" height="32.1"/>
	<text transform="matrix(1 0 0 1 327.083 149.2783)"><tspan x="0" y="0" style="fill:#939598; font-family:'Muli'; font-size:12;">Note: flate rate billing does not take into </tspan><tspan x="0" y="14.4" style="fill:#939598; font-family:'Muli'; font-size:12;">account water consumption</tspan></text>
	<g>
		<g>
			<circle style="fill:none;stroke:#58595B;stroke-miterlimit:10;stroke-dasharray:1.963,1.963;" cx="25" cy="47" r="10"/>
		</g>
		<g>
			<circle style="fill:none;stroke:#58595B;stroke-miterlimit:10;stroke-dasharray:2.0133,2.0133;" cx="25" cy="32" r="25"/>
		</g>
		<line style="fill:none;stroke:#A7A9AC;stroke-miterlimit:10;" x1="35" y1="38.5" x2="74" y2="38.5"/>
		<line style="fill:none;stroke:#A7A9AC;stroke-miterlimit:10;" x1="35" y1="8.5" x2="74" y2="8.5"/>
		<g>
			<path style="fill:#808285;" d="M80,13.2c0.2,0.3,0.5,0.6,0.8,0.8s0.7,0.2,1,0.2c0.3,0,0.6-0.1,0.9-0.2s0.5-0.2,0.6-0.4
				s0.3-0.4,0.4-0.6s0.1-0.5,0.1-0.8c0-0.2,0-0.5-0.1-0.7s-0.2-0.4-0.3-0.6s-0.3-0.3-0.5-0.4s-0.5-0.1-0.8-0.1
				c-0.3,0-0.5,0.1-0.7,0.2S81,10.8,80.9,11l-1,0V6.5h4.6v0.8h-3.7L80.7,10c0.2-0.1,0.5-0.2,0.7-0.3c0.2-0.1,0.5-0.1,0.8-0.1
				c0.4,0,0.8,0.1,1.1,0.2s0.6,0.3,0.9,0.6s0.4,0.5,0.5,0.8c0.1,0.3,0.2,0.7,0.2,1.1c0,0.4-0.1,0.8-0.2,1.1
				c-0.1,0.3-0.3,0.6-0.6,0.9s-0.6,0.4-1,0.6S82.4,15,81.9,15c-0.2,0-0.5,0-0.7-0.1s-0.4-0.1-0.6-0.2s-0.4-0.2-0.6-0.4
				s-0.3-0.3-0.5-0.5L80,13.2z"/>
			<path style="fill:#808285;" d="M96.1,7.7c-0.6-0.4-1.3-0.7-2.1-0.7c-0.4,0-0.7,0-1,0.1s-0.6,0.2-0.8,0.4C92,7.8,91.8,8,91.6,8.2
				S91.3,8.7,91.2,9c-0.1,0.3-0.2,0.6-0.3,0.9c-0.1,0.3-0.1,0.6-0.1,0.9c0,0.5,0.1,0.9,0.2,1.3c0.1,0.4,0.3,0.8,0.6,1.1
				s0.6,0.6,0.9,0.8s0.8,0.3,1.4,0.3c0.5,0,0.9-0.1,1.4-0.2c0.4-0.1,0.8-0.3,1.1-0.6l0.3,0.8c-0.4,0.3-0.8,0.5-1.3,0.7
				c-0.5,0.1-1.1,0.2-1.7,0.2c-0.6,0-1.2-0.1-1.7-0.3s-0.9-0.5-1.2-0.9s-0.6-0.8-0.8-1.4s-0.3-1.1-0.3-1.7c0-0.4,0-0.8,0.1-1.2
				s0.2-0.7,0.4-1.1s0.4-0.6,0.6-0.9s0.5-0.5,0.8-0.7s0.6-0.4,1-0.5s0.8-0.2,1.2-0.2c0.5,0,1,0.1,1.4,0.2c0.4,0.1,0.8,0.4,1.2,0.7
				L96.1,7.7z"/>
			<path style="fill:#808285;" d="M104,7.7c-0.6-0.4-1.3-0.7-2.1-0.7c-0.4,0-0.7,0-1,0.1s-0.6,0.2-0.8,0.4c-0.2,0.2-0.4,0.4-0.6,0.6
				S99.2,8.7,99.1,9c-0.1,0.3-0.2,0.6-0.3,0.9c-0.1,0.3-0.1,0.6-0.1,0.9c0,0.5,0.1,0.9,0.2,1.3c0.1,0.4,0.3,0.8,0.6,1.1
				s0.6,0.6,0.9,0.8s0.8,0.3,1.4,0.3c0.5,0,0.9-0.1,1.4-0.2s0.8-0.3,1.1-0.6l0.3,0.8c-0.4,0.3-0.8,0.5-1.3,0.7s-1.1,0.2-1.7,0.2
				c-0.6,0-1.2-0.1-1.7-0.3s-0.9-0.5-1.2-0.9s-0.6-0.8-0.8-1.4s-0.3-1.1-0.3-1.7c0-0.4,0-0.8,0.1-1.2s0.2-0.7,0.4-1.1
				s0.4-0.6,0.6-0.9s0.5-0.5,0.8-0.7s0.6-0.4,1-0.5s0.8-0.2,1.2-0.2c0.5,0,1,0.1,1.4,0.2s0.8,0.4,1.2,0.7L104,7.7z"/>
			<path style="fill:#808285;" d="M107.4,14.9h-1V6.4h4.9v0.9h-3.9v2.9h3.7V11h-3.7V14.9z"/>
		</g>
		<g>
			<path style="fill:#808285;" d="M80.3,38.6c0.3-0.1,0.6-0.2,0.9-0.4s0.5-0.3,0.8-0.5l1-0.2v7.6h1.3v0.8h-3.6v-0.8h1.3v-6.5
				c-0.3,0.1-0.5,0.3-0.8,0.4s-0.5,0.2-0.8,0.4V38.6z"/>
			<path style="fill:#808285;" d="M96.1,38.9c-0.6-0.4-1.3-0.7-2.1-0.7c-0.4,0-0.7,0-1,0.1s-0.6,0.2-0.8,0.4
				c-0.2,0.2-0.4,0.4-0.6,0.6s-0.3,0.5-0.4,0.8c-0.1,0.3-0.2,0.6-0.3,0.9c-0.1,0.3-0.1,0.6-0.1,0.9c0,0.5,0.1,0.9,0.2,1.3
				c0.1,0.4,0.3,0.8,0.6,1.1s0.6,0.6,0.9,0.8s0.8,0.3,1.4,0.3c0.5,0,0.9-0.1,1.4-0.2c0.4-0.1,0.8-0.3,1.1-0.6l0.3,0.8
				c-0.4,0.3-0.8,0.5-1.3,0.7c-0.5,0.1-1.1,0.2-1.7,0.2c-0.6,0-1.2-0.1-1.7-0.3s-0.9-0.5-1.2-0.9s-0.6-0.8-0.8-1.4s-0.3-1.1-0.3-1.7
				c0-0.4,0-0.8,0.1-1.2s0.2-0.7,0.4-1.1s0.4-0.6,0.6-0.9s0.5-0.5,0.8-0.7s0.6-0.4,1-0.5s0.8-0.2,1.2-0.2c0.5,0,1,0.1,1.4,0.2
				c0.4,0.1,0.8,0.4,1.2,0.7L96.1,38.9z"/>
			<path style="fill:#808285;" d="M104,38.9c-0.6-0.4-1.3-0.7-2.1-0.7c-0.4,0-0.7,0-1,0.1s-0.6,0.2-0.8,0.4
				c-0.2,0.2-0.4,0.4-0.6,0.6s-0.3,0.5-0.4,0.8c-0.1,0.3-0.2,0.6-0.3,0.9c-0.1,0.3-0.1,0.6-0.1,0.9c0,0.5,0.1,0.9,0.2,1.3
				c0.1,0.4,0.3,0.8,0.6,1.1s0.6,0.6,0.9,0.8s0.8,0.3,1.4,0.3c0.5,0,0.9-0.1,1.4-0.2s0.8-0.3,1.1-0.6l0.3,0.8
				c-0.4,0.3-0.8,0.5-1.3,0.7s-1.1,0.2-1.7,0.2c-0.6,0-1.2-0.1-1.7-0.3s-0.9-0.5-1.2-0.9s-0.6-0.8-0.8-1.4s-0.3-1.1-0.3-1.7
				c0-0.4,0-0.8,0.1-1.2s0.2-0.7,0.4-1.1s0.4-0.6,0.6-0.9s0.5-0.5,0.8-0.7s0.6-0.4,1-0.5s0.8-0.2,1.2-0.2c0.5,0,1,0.1,1.4,0.2
				s0.8,0.4,1.2,0.7L104,38.9z"/>
			<path style="fill:#808285;" d="M107.4,46.1h-1v-8.5h4.9v0.9h-3.9v2.9h3.7v0.9h-3.7V46.1z"/>
		</g>
	</g>
	<g>
		<circle style="fill:#CC6633;" cx="25" cy="94" r="12"/>
		<g>
			<path style="fill:#939598;" d="M50.2,98.7h-1.1l3.5-8.5h1.1l3.5,8.5h-1.1l-1-2.3h-4.1L50.2,98.7z M51.4,95.5h3.4L53.5,92
				c0-0.1-0.1-0.2-0.1-0.3s-0.1-0.2-0.1-0.3c0-0.1-0.1-0.2-0.1-0.3c0,0.1-0.1,0.2-0.1,0.4c0,0.1-0.1,0.2-0.1,0.3s-0.1,0.2-0.1,0.2
				L51.4,95.5z"/>
			<path style="fill:#939598;" d="M58.5,99.8c0.3,0.2,0.6,0.3,1,0.4s0.7,0.1,1,0.1c0.3,0,0.7,0,0.9-0.1s0.5-0.2,0.7-0.4
				s0.3-0.4,0.4-0.6s0.1-0.5,0.1-0.9v-0.7c-0.2,0.3-0.5,0.6-0.9,0.8s-0.7,0.3-1.2,0.3c-0.4,0-0.8-0.1-1.2-0.2s-0.6-0.3-0.9-0.6
				s-0.4-0.6-0.5-0.9s-0.2-0.8-0.2-1.2c0-0.4,0.1-0.8,0.2-1.2s0.3-0.7,0.5-1s0.5-0.5,0.9-0.7s0.8-0.3,1.2-0.3c0.5,0,0.8,0.1,1.2,0.2
				s0.6,0.4,0.8,0.7c0-0.1,0-0.1,0-0.2s0-0.2,0-0.3c0-0.1,0-0.2,0-0.3h1c0,0.2,0,0.4,0,0.6c0,0.2,0,0.3,0,0.5s0,0.3,0,0.4v3.7
				c0,0.3,0,0.5,0,0.8s-0.1,0.5-0.2,0.8s-0.2,0.5-0.3,0.7s-0.3,0.4-0.6,0.6s-0.5,0.3-0.8,0.4s-0.7,0.1-1.1,0.1c-0.4,0-0.8,0-1.1-0.1
				s-0.7-0.2-1-0.4L58.5,99.8z M62.7,95.5c0-0.3,0-0.6-0.1-0.8c-0.1-0.3-0.2-0.5-0.4-0.7s-0.4-0.3-0.6-0.5s-0.5-0.2-0.8-0.2
				c-0.3,0-0.6,0.1-0.8,0.2s-0.4,0.3-0.6,0.5s-0.3,0.5-0.4,0.8s-0.1,0.6-0.1,0.9c0,0.3,0,0.6,0.1,0.9c0.1,0.3,0.2,0.5,0.3,0.7
				c0.2,0.2,0.3,0.3,0.6,0.4s0.5,0.2,0.9,0.2c0.4,0,0.6-0.1,0.9-0.2s0.4-0.3,0.6-0.5s0.3-0.5,0.3-0.8S62.7,95.8,62.7,95.5z"/>
			<path style="fill:#939598;" d="M70.7,98c-0.3,0.3-0.7,0.5-1.1,0.6s-0.8,0.2-1.3,0.2c-0.5,0-0.9-0.1-1.3-0.2s-0.7-0.4-0.9-0.6
				s-0.5-0.6-0.6-1s-0.2-0.8-0.2-1.3c0-0.4,0.1-0.8,0.2-1.2s0.3-0.7,0.6-1s0.6-0.5,0.9-0.7s0.8-0.3,1.3-0.3c0.5,0,0.9,0.1,1.2,0.2
				s0.6,0.4,0.8,0.6s0.4,0.6,0.5,0.9s0.2,0.8,0.2,1.2c0,0,0,0.1,0,0.1s0,0.1,0,0.2h-4.6l0,0.3c0,0.3,0.1,0.6,0.2,0.8
				s0.2,0.5,0.4,0.6s0.4,0.3,0.6,0.4c0.2,0.1,0.5,0.1,0.8,0.1c0.4,0,0.8-0.1,1.1-0.2c0.3-0.1,0.7-0.4,0.9-0.6L70.7,98z M69.9,95.1
				L69.9,95.1c0-0.3-0.1-0.6-0.2-0.8s-0.2-0.4-0.3-0.5s-0.3-0.3-0.5-0.4s-0.4-0.1-0.7-0.1c-0.3,0-0.5,0-0.7,0.1s-0.4,0.2-0.6,0.4
				s-0.3,0.4-0.4,0.6s-0.2,0.5-0.2,0.7H69.9z"/>
			<path style="fill:#939598;" d="M73.4,98.7h-1v-4.6c0-0.2,0-0.4,0-0.5s0-0.3,0-0.5c0-0.2,0-0.3,0-0.5h1l0,0.8
				c0.2-0.3,0.5-0.6,0.8-0.7s0.7-0.2,1.2-0.2c0.4,0,0.8,0.1,1.1,0.2s0.5,0.3,0.7,0.6s0.3,0.6,0.3,0.9s0.1,0.8,0.1,1.2v3.2h-1v-3.1
				c0-0.3,0-0.6,0-0.9s-0.1-0.5-0.2-0.7s-0.2-0.3-0.4-0.5s-0.4-0.2-0.8-0.2c-0.3,0-0.6,0.1-0.8,0.2s-0.4,0.2-0.6,0.4
				s-0.3,0.3-0.4,0.5s-0.1,0.3-0.1,0.5V98.7z"/>
			<path style="fill:#939598;" d="M83.8,94c-0.2-0.2-0.4-0.4-0.7-0.5s-0.6-0.2-0.9-0.2c-0.3,0-0.6,0.1-0.9,0.2s-0.5,0.3-0.6,0.5
				s-0.3,0.5-0.4,0.8s-0.1,0.6-0.1,0.9c0,0.3,0,0.6,0.1,0.9s0.2,0.5,0.4,0.7s0.4,0.4,0.6,0.5s0.6,0.2,0.9,0.2c0.7,0,1.3-0.2,1.8-0.7
				l0.3,0.8c-0.3,0.2-0.6,0.4-1,0.5s-0.7,0.2-1.2,0.2c-0.5,0-0.9-0.1-1.3-0.2s-0.7-0.4-0.9-0.7s-0.4-0.6-0.6-1s-0.2-0.8-0.2-1.2
				c0-0.4,0.1-0.9,0.2-1.2s0.3-0.7,0.6-1s0.6-0.5,0.9-0.7s0.8-0.3,1.3-0.3c0.5,0,0.9,0.1,1.2,0.2s0.6,0.4,0.8,0.6L83.8,94z"/>
			<path style="fill:#939598;" d="M84.9,92.7h1.1l1.9,5l2-5h1l-2.7,6.4c-0.1,0.3-0.2,0.5-0.4,0.7s-0.3,0.4-0.5,0.6s-0.4,0.3-0.6,0.5
				s-0.5,0.2-0.8,0.3l-0.5-0.7c0.3-0.1,0.6-0.2,0.8-0.3s0.4-0.3,0.5-0.4s0.2-0.3,0.3-0.4s0.1-0.3,0.2-0.4l0.1-0.3L84.9,92.7z"/>
			<path style="fill:#939598;" d="M95.8,97.1c0.1,0.2,0.3,0.3,0.5,0.4s0.4,0.2,0.6,0.3s0.4,0.1,0.6,0.1s0.4,0,0.6,0
				c0.3,0,0.6,0,0.8-0.1s0.5-0.2,0.7-0.3s0.3-0.3,0.4-0.4s0.2-0.4,0.2-0.6c0-0.3-0.1-0.5-0.2-0.7s-0.3-0.3-0.5-0.5s-0.5-0.3-0.8-0.4
				s-0.6-0.2-0.9-0.3s-0.6-0.2-0.9-0.4s-0.5-0.3-0.8-0.5s-0.4-0.4-0.5-0.7s-0.2-0.6-0.2-0.9c0-0.4,0.1-0.7,0.3-1s0.4-0.5,0.7-0.7
				s0.6-0.3,1-0.4S98,90,98.4,90c0.2,0,0.5,0,0.7,0s0.5,0.1,0.7,0.1c0.2,0.1,0.4,0.2,0.6,0.3s0.3,0.3,0.5,0.4l-0.5,0.7
				c-0.1-0.1-0.3-0.2-0.4-0.3s-0.3-0.2-0.5-0.2s-0.3-0.1-0.5-0.1s-0.4,0-0.5,0c-0.2,0-0.5,0-0.7,0.1s-0.5,0.1-0.6,0.2
				s-0.3,0.2-0.5,0.4c-0.1,0.2-0.2,0.4-0.2,0.6c0,0.2,0.1,0.5,0.2,0.6c0.1,0.2,0.3,0.3,0.5,0.5s0.5,0.3,0.8,0.4s0.6,0.2,0.9,0.4
				c0.3,0.1,0.6,0.3,0.9,0.4s0.5,0.3,0.8,0.5s0.4,0.4,0.5,0.7c0.1,0.3,0.2,0.6,0.2,0.9c0,0.3,0,0.5-0.1,0.7s-0.2,0.4-0.4,0.6
				s-0.3,0.3-0.6,0.4s-0.4,0.2-0.7,0.3s-0.5,0.1-0.8,0.2s-0.5,0.1-0.8,0.1c-0.3,0-0.6,0-0.8-0.1s-0.5-0.1-0.7-0.2s-0.4-0.2-0.6-0.3
				s-0.3-0.3-0.4-0.4L95.8,97.1z"/>
			<path style="fill:#939598;" d="M107,92.7h1v4.6c0,0.3,0,0.5,0,0.7s0,0.5,0,0.7h-1l0-0.8c-0.5,0.6-1.1,0.9-2,0.9
				c-0.3,0-0.6,0-0.8-0.1s-0.4-0.2-0.6-0.3s-0.3-0.3-0.4-0.4s-0.2-0.3-0.3-0.5s-0.1-0.4-0.1-0.6s0-0.4,0-0.6v-3.7h1v3.7
				c0,0.6,0.1,1,0.4,1.3s0.6,0.4,1.1,0.4c0.3,0,0.5-0.1,0.7-0.2s0.4-0.2,0.6-0.4s0.3-0.4,0.3-0.6s0.1-0.5,0.1-0.7V92.7z"/>
			<path style="fill:#939598;" d="M110.9,98.7h-1v-4.6c0-0.2,0-0.5,0-0.7s0-0.5,0-0.7h1l0,0.9c0.2-0.3,0.4-0.6,0.7-0.8
				s0.6-0.3,0.9-0.3c0.2,0,0.4,0,0.6,0.1l0,0.9c-0.1,0-0.2-0.1-0.3-0.1s-0.2,0-0.4,0c-0.2,0-0.4,0-0.6,0.1s-0.4,0.2-0.5,0.4
				s-0.2,0.4-0.3,0.6s-0.1,0.5-0.1,0.8V98.7z"/>
			<path style="fill:#939598;" d="M113.8,92.7h1.1l1.6,4c0,0.1,0.1,0.2,0.1,0.3s0.1,0.2,0.1,0.3c0,0.1,0.1,0.3,0.1,0.4
				c0-0.1,0.1-0.3,0.1-0.4c0-0.1,0.1-0.2,0.1-0.3s0.1-0.2,0.1-0.3l1.6-4h1l-2.5,6h-1L113.8,92.7z"/>
			<path style="fill:#939598;" d="M126,98c-0.3,0.3-0.7,0.5-1.1,0.6s-0.8,0.2-1.3,0.2c-0.5,0-0.9-0.1-1.3-0.2s-0.7-0.4-0.9-0.6
				s-0.5-0.6-0.6-1s-0.2-0.8-0.2-1.3c0-0.4,0.1-0.8,0.2-1.2s0.3-0.7,0.6-1s0.6-0.5,0.9-0.7s0.8-0.3,1.2-0.3c0.5,0,0.9,0.1,1.2,0.2
				s0.6,0.4,0.8,0.6s0.4,0.6,0.5,0.9s0.2,0.8,0.2,1.2c0,0,0,0.1,0,0.1s0,0.1,0,0.2h-4.6l0,0.3c0,0.3,0.1,0.6,0.2,0.8
				s0.2,0.5,0.4,0.6s0.4,0.3,0.6,0.4s0.5,0.1,0.8,0.1c0.4,0,0.8-0.1,1.1-0.2s0.7-0.4,0.9-0.6L126,98z M125.2,95.1L125.2,95.1
				c0-0.3-0.1-0.6-0.2-0.8s-0.2-0.4-0.3-0.5s-0.3-0.3-0.5-0.4c-0.2-0.1-0.4-0.1-0.7-0.1c-0.3,0-0.5,0-0.7,0.1s-0.4,0.2-0.6,0.4
				s-0.3,0.4-0.4,0.6s-0.2,0.5-0.2,0.7H125.2z"/>
			<path style="fill:#939598;" d="M126.9,92.7h1.1l1.9,5l2-5h1l-2.7,6.4c-0.1,0.3-0.2,0.5-0.4,0.7s-0.3,0.4-0.5,0.6
				s-0.4,0.3-0.6,0.5s-0.5,0.2-0.8,0.3l-0.5-0.7c0.3-0.1,0.6-0.2,0.8-0.3s0.4-0.3,0.5-0.4s0.2-0.3,0.3-0.4s0.1-0.3,0.2-0.4l0.1-0.3
				L126.9,92.7z"/>
			<path style="fill:#939598;" d="M139.1,98c-0.3,0.3-0.7,0.5-1.1,0.6s-0.8,0.2-1.3,0.2c-0.5,0-0.9-0.1-1.3-0.2s-0.7-0.4-0.9-0.6
				s-0.5-0.6-0.6-1s-0.2-0.8-0.2-1.3c0-0.4,0.1-0.8,0.2-1.2s0.3-0.7,0.6-1s0.6-0.5,0.9-0.7s0.8-0.3,1.2-0.3c0.5,0,0.9,0.1,1.2,0.2
				s0.6,0.4,0.8,0.6s0.4,0.6,0.5,0.9s0.2,0.8,0.2,1.2c0,0,0,0.1,0,0.1s0,0.1,0,0.2h-4.6l0,0.3c0,0.3,0.1,0.6,0.2,0.8
				s0.2,0.5,0.4,0.6s0.4,0.3,0.6,0.4s0.5,0.1,0.8,0.1c0.4,0,0.8-0.1,1.1-0.2s0.7-0.4,0.9-0.6L139.1,98z M138.3,95.1L138.3,95.1
				c0-0.3-0.1-0.6-0.2-0.8s-0.2-0.4-0.3-0.5s-0.3-0.3-0.5-0.4c-0.2-0.1-0.4-0.1-0.7-0.1c-0.3,0-0.5,0-0.7,0.1s-0.4,0.2-0.6,0.4
				s-0.3,0.4-0.4,0.6s-0.2,0.5-0.2,0.7H138.3z"/>
			<path style="fill:#939598;" d="M145.2,98.7l0-0.9c-0.3,0.4-0.5,0.6-0.9,0.8s-0.7,0.2-1.2,0.2c-0.5,0-0.9-0.1-1.2-0.2
				s-0.6-0.4-0.8-0.7s-0.4-0.6-0.5-1s-0.2-0.8-0.2-1.2c0-0.4,0.1-0.8,0.2-1.2s0.3-0.7,0.5-1s0.5-0.5,0.9-0.7s0.7-0.3,1.2-0.3
				c0.4,0,0.8,0.1,1.2,0.2s0.6,0.4,0.9,0.7V90h1v7.2c0,0.2,0,0.5,0,0.8s0,0.5,0,0.7H145.2z M143.3,98.1c0.3,0,0.6-0.1,0.8-0.2
				s0.4-0.3,0.6-0.5s0.3-0.5,0.4-0.8s0.1-0.7,0.1-1.1c0-0.3,0-0.6-0.1-0.9s-0.2-0.5-0.4-0.7s-0.4-0.3-0.6-0.4
				c-0.2-0.1-0.5-0.2-0.8-0.2c-0.3,0-0.6,0.1-0.9,0.2c-0.2,0.1-0.4,0.3-0.6,0.5c-0.2,0.2-0.3,0.5-0.3,0.8s-0.1,0.6-0.1,0.9
				c0,0.3,0,0.6,0.1,0.9s0.2,0.5,0.3,0.7s0.3,0.4,0.6,0.5C142.6,98,142.9,98.1,143.3,98.1z"/>
			<path style="fill:#939598;" d="M151.8,90.2h1v5.3c0,0.8,0.2,1.4,0.6,1.8s1,0.6,1.8,0.6c0.4,0,0.7-0.1,1-0.2
				c0.3-0.1,0.5-0.3,0.7-0.5s0.4-0.5,0.5-0.8s0.2-0.6,0.2-1v-5.4h1l0,5.3c0,0.5-0.1,1-0.2,1.4s-0.4,0.8-0.6,1.1s-0.6,0.5-1.1,0.7
				s-0.9,0.2-1.5,0.2c-0.6,0-1.1-0.1-1.5-0.2s-0.8-0.4-1-0.7s-0.4-0.6-0.6-1s-0.2-0.9-0.2-1.3V90.2z"/>
			<path style="fill:#939598;" d="M164.2,93.7c-0.2-0.1-0.5-0.2-0.8-0.3c-0.3-0.1-0.6-0.1-0.9-0.1c-0.2,0-0.3,0-0.5,0.1
				s-0.3,0.1-0.4,0.2s-0.2,0.2-0.3,0.3s-0.1,0.2-0.1,0.3c0,0.1,0,0.3,0.1,0.4s0.2,0.2,0.3,0.3s0.2,0.1,0.4,0.2
				c0.2,0.1,0.3,0.1,0.5,0.2c0.2,0,0.3,0.1,0.5,0.1s0.4,0.1,0.5,0.2s0.3,0.1,0.5,0.2s0.3,0.2,0.4,0.3s0.2,0.3,0.3,0.4
				s0.1,0.4,0.1,0.6c0,0.3-0.1,0.6-0.2,0.8s-0.3,0.4-0.6,0.6s-0.5,0.3-0.8,0.3s-0.6,0.1-0.9,0.1c-0.2,0-0.4,0-0.6,0
				s-0.4-0.1-0.6-0.1s-0.4-0.1-0.5-0.2s-0.3-0.2-0.4-0.3l0.3-0.8c0.1,0.1,0.2,0.2,0.4,0.3s0.3,0.2,0.5,0.2s0.3,0.1,0.5,0.1
				s0.3,0,0.5,0c0.2,0,0.4,0,0.6-0.1s0.3-0.1,0.5-0.2c0.1-0.1,0.2-0.2,0.3-0.3s0.1-0.3,0.1-0.4c0-0.2,0-0.3-0.1-0.4
				s-0.2-0.2-0.4-0.3s-0.3-0.2-0.5-0.2c-0.2-0.1-0.4-0.1-0.7-0.2c-0.3-0.1-0.6-0.2-0.8-0.3c-0.2-0.1-0.4-0.2-0.6-0.4
				s-0.3-0.3-0.4-0.5s-0.1-0.4-0.1-0.6c0-0.3,0.1-0.5,0.2-0.7s0.3-0.4,0.5-0.5c0.2-0.1,0.4-0.2,0.7-0.3c0.3-0.1,0.5-0.1,0.8-0.1
				c0.4,0,0.8,0,1.1,0.1c0.3,0.1,0.6,0.2,0.9,0.4L164.2,93.7z"/>
			<path style="fill:#939598;" d="M171.6,98c-0.3,0.3-0.7,0.5-1.1,0.6s-0.8,0.2-1.3,0.2c-0.5,0-0.9-0.1-1.3-0.2s-0.7-0.4-0.9-0.6
				s-0.5-0.6-0.6-1s-0.2-0.8-0.2-1.3c0-0.4,0.1-0.8,0.2-1.2s0.3-0.7,0.6-1s0.6-0.5,0.9-0.7s0.8-0.3,1.2-0.3c0.5,0,0.9,0.1,1.2,0.2
				s0.6,0.4,0.8,0.6s0.4,0.6,0.5,0.9s0.2,0.8,0.2,1.2c0,0,0,0.1,0,0.1s0,0.1,0,0.2h-4.6l0,0.3c0,0.3,0.1,0.6,0.2,0.8
				s0.2,0.5,0.4,0.6s0.4,0.3,0.6,0.4s0.5,0.1,0.8,0.1c0.4,0,0.8-0.1,1.1-0.2s0.7-0.4,0.9-0.6L171.6,98z M170.8,95.1L170.8,95.1
				c0-0.3-0.1-0.6-0.2-0.8s-0.2-0.4-0.3-0.5s-0.3-0.3-0.5-0.4c-0.2-0.1-0.4-0.1-0.7-0.1c-0.3,0-0.5,0-0.7,0.1s-0.4,0.2-0.6,0.4
				s-0.3,0.4-0.4,0.6s-0.2,0.5-0.2,0.7H170.8z"/>
			<path style="fill:#939598;" d="M174.3,98.7h-1v-4.6c0-0.2,0-0.5,0-0.7s0-0.5,0-0.7h1l0,0.9c0.2-0.3,0.4-0.6,0.7-0.8
				s0.6-0.3,0.9-0.3c0.2,0,0.4,0,0.6,0.1l0,0.9c-0.1,0-0.2-0.1-0.3-0.1s-0.2,0-0.4,0c-0.2,0-0.4,0-0.6,0.1s-0.4,0.2-0.5,0.4
				s-0.2,0.4-0.3,0.6s-0.1,0.5-0.1,0.8V98.7z"/>
		</g>
	</g>
	<g>
		<path style="fill:#939598;" d="M2.1,163.7v-8.5h1.2l4.4,6.5l0.5,0.7v-1.4v-5.9h1v8.5H8l-4.4-6.5l-0.4-0.7v1.1v6.1H2.1z"/>
		<path style="fill:#939598;" d="M14,157.6c0.5,0,0.9,0.1,1.3,0.2s0.7,0.4,1,0.7s0.4,0.6,0.6,1s0.2,0.8,0.2,1.2
			c0,0.4-0.1,0.8-0.2,1.2s-0.3,0.7-0.6,1s-0.6,0.5-1,0.7s-0.8,0.3-1.3,0.3c-0.5,0-0.9-0.1-1.3-0.2s-0.7-0.4-1-0.7s-0.5-0.6-0.6-1
			s-0.2-0.8-0.2-1.2s0.1-0.8,0.2-1.2s0.3-0.7,0.6-1s0.6-0.5,1-0.7S13.5,157.6,14,157.6z M16,160.7c0-0.3,0-0.6-0.1-0.9
			c-0.1-0.3-0.2-0.5-0.4-0.8c-0.2-0.2-0.4-0.4-0.6-0.5c-0.3-0.1-0.6-0.2-0.9-0.2c-0.3,0-0.6,0.1-0.9,0.2c-0.3,0.1-0.5,0.3-0.6,0.5
			c-0.2,0.2-0.3,0.5-0.4,0.8c-0.1,0.3-0.1,0.6-0.1,0.9s0,0.6,0.1,0.9c0.1,0.3,0.2,0.5,0.4,0.7c0.2,0.2,0.4,0.4,0.7,0.5
			c0.3,0.1,0.6,0.2,0.9,0.2c0.3,0,0.6-0.1,0.9-0.2c0.3-0.1,0.5-0.3,0.6-0.5c0.2-0.2,0.3-0.5,0.4-0.8C16,161.3,16,161,16,160.7z"/>
		<path style="fill:#939598;" d="M19,158.3h-1.2v-0.6H19l0-1.6l0.9-0.3v1.9h1.5v0.6H20v3.6c0,0.1,0,0.3,0,0.4s0,0.3,0.1,0.4
			s0.1,0.2,0.2,0.3s0.2,0.1,0.4,0.1c0.1,0,0.3,0,0.4,0s0.3-0.1,0.5-0.1l0,0.7c-0.1,0.1-0.3,0.1-0.4,0.2s-0.3,0-0.5,0
			c-0.3,0-0.6-0.1-0.8-0.2s-0.3-0.3-0.5-0.4s-0.2-0.4-0.2-0.7s-0.1-0.5-0.1-0.8V158.3z"/>
		<path style="fill:#939598;" d="M27.9,163c-0.3,0.3-0.7,0.5-1.1,0.6s-0.8,0.2-1.3,0.2c-0.5,0-0.9-0.1-1.3-0.2s-0.7-0.4-0.9-0.6
			s-0.5-0.6-0.6-1s-0.2-0.8-0.2-1.3c0-0.4,0.1-0.8,0.2-1.2s0.3-0.7,0.6-1s0.6-0.5,0.9-0.7s0.8-0.3,1.3-0.3c0.5,0,0.9,0.1,1.2,0.2
			s0.6,0.4,0.8,0.6s0.4,0.6,0.5,0.9s0.2,0.8,0.2,1.2c0,0,0,0.1,0,0.1s0,0.1,0,0.2h-4.6l0,0.3c0,0.3,0.1,0.6,0.2,0.8s0.2,0.5,0.4,0.6
			s0.4,0.3,0.6,0.4c0.2,0.1,0.5,0.1,0.8,0.1c0.4,0,0.8-0.1,1.1-0.2c0.3-0.1,0.7-0.4,0.9-0.6L27.9,163z M27.1,160.2L27.1,160.2
			c0-0.3-0.1-0.6-0.2-0.8s-0.2-0.4-0.3-0.5s-0.3-0.3-0.5-0.4c-0.2-0.1-0.4-0.1-0.7-0.1c-0.3,0-0.5,0-0.7,0.1s-0.4,0.2-0.6,0.4
			s-0.3,0.4-0.4,0.6c-0.1,0.2-0.2,0.5-0.2,0.7H27.1z"/>
		<path style="fill:#939598;" d="M30.8,158.8h-1.3v-1.2h1.3V158.8z M30.8,163.8h-1.3v-1.2h1.3V163.8z"/>
		<path style="fill:#939598;" d="M38.7,157.6c0.2,0,0.5,0,0.7,0.1s0.4,0.1,0.6,0.2s0.3,0.2,0.5,0.3s0.3,0.3,0.4,0.4l0-0.8h1l0,1.5
			v4.5h-1l0-0.8c-0.1,0.1-0.2,0.2-0.4,0.4s-0.3,0.2-0.5,0.3s-0.4,0.2-0.6,0.2s-0.4,0.1-0.7,0.1c-0.3,0-0.6,0-0.9-0.1
			s-0.5-0.2-0.7-0.4s-0.4-0.3-0.6-0.5s-0.3-0.4-0.4-0.7s-0.2-0.5-0.2-0.7s-0.1-0.5-0.1-0.8c0-0.4,0.1-0.8,0.2-1.1s0.3-0.7,0.5-1
			s0.5-0.5,0.9-0.7S38.2,157.6,38.7,157.6z M38.8,163.1c0.3,0,0.5-0.1,0.8-0.2s0.5-0.3,0.6-0.5s0.3-0.5,0.4-0.8s0.2-0.7,0.2-1.1
			c0-0.3,0-0.6-0.1-0.9s-0.2-0.5-0.4-0.7s-0.4-0.3-0.6-0.4s-0.5-0.2-0.8-0.2c-0.2,0-0.5,0-0.6,0.1s-0.4,0.2-0.5,0.3
			s-0.3,0.2-0.4,0.4s-0.2,0.3-0.3,0.5s-0.1,0.4-0.2,0.5s0,0.4,0,0.6c0,0.2,0,0.4,0,0.6s0.1,0.4,0.1,0.5s0.1,0.3,0.2,0.5
			s0.2,0.3,0.4,0.4s0.3,0.2,0.5,0.3S38.6,163.1,38.8,163.1z"/>
		<path style="fill:#939598;" d="M43.8,164.8c0.3,0.2,0.6,0.3,1,0.4s0.7,0.1,1,0.1c0.3,0,0.7,0,0.9-0.1s0.5-0.2,0.7-0.4
			s0.3-0.4,0.4-0.6s0.1-0.5,0.1-0.9v-0.7c-0.2,0.3-0.5,0.6-0.9,0.8s-0.7,0.3-1.2,0.3c-0.4,0-0.8-0.1-1.2-0.2s-0.6-0.3-0.9-0.6
			s-0.4-0.6-0.5-0.9s-0.2-0.8-0.2-1.2c0-0.4,0.1-0.8,0.2-1.2s0.3-0.7,0.5-1s0.5-0.5,0.9-0.7s0.8-0.3,1.2-0.3c0.5,0,0.8,0.1,1.2,0.2
			s0.6,0.4,0.8,0.7c0-0.1,0-0.1,0-0.2s0-0.2,0-0.3c0-0.1,0-0.2,0-0.3h1c0,0.2,0,0.4,0,0.6c0,0.2,0,0.3,0,0.5s0,0.3,0,0.4v3.7
			c0,0.3,0,0.5,0,0.8s-0.1,0.5-0.2,0.8s-0.2,0.5-0.3,0.7s-0.3,0.4-0.6,0.6s-0.5,0.3-0.8,0.4s-0.7,0.1-1.1,0.1c-0.4,0-0.8,0-1.1-0.1
			s-0.7-0.2-1-0.4L43.8,164.8z M48,160.5c0-0.3,0-0.6-0.1-0.8c-0.1-0.3-0.2-0.5-0.4-0.7s-0.4-0.3-0.6-0.5s-0.5-0.2-0.8-0.2
			c-0.3,0-0.6,0.1-0.8,0.2s-0.4,0.3-0.6,0.5s-0.3,0.5-0.4,0.8s-0.1,0.6-0.1,0.9c0,0.3,0,0.6,0.1,0.9c0.1,0.3,0.2,0.5,0.3,0.7
			c0.2,0.2,0.3,0.3,0.6,0.4s0.5,0.2,0.9,0.2c0.4,0,0.6-0.1,0.9-0.2s0.4-0.3,0.6-0.5s0.3-0.5,0.3-0.8S48,160.8,48,160.5z"/>
		<path style="fill:#939598;" d="M56,163c-0.3,0.3-0.7,0.5-1.1,0.6s-0.8,0.2-1.3,0.2c-0.5,0-0.9-0.1-1.3-0.2s-0.7-0.4-0.9-0.6
			s-0.5-0.6-0.6-1s-0.2-0.8-0.2-1.3c0-0.4,0.1-0.8,0.2-1.2s0.3-0.7,0.6-1s0.6-0.5,0.9-0.7s0.8-0.3,1.3-0.3c0.5,0,0.9,0.1,1.2,0.2
			s0.6,0.4,0.8,0.6s0.4,0.6,0.5,0.9s0.2,0.8,0.2,1.2c0,0,0,0.1,0,0.1s0,0.1,0,0.2h-4.6l0,0.3c0,0.3,0.1,0.6,0.2,0.8s0.2,0.5,0.4,0.6
			s0.4,0.3,0.6,0.4c0.2,0.1,0.5,0.1,0.8,0.1c0.4,0,0.8-0.1,1.1-0.2c0.3-0.1,0.7-0.4,0.9-0.6L56,163z M55.2,160.2L55.2,160.2
			c0-0.3-0.1-0.6-0.2-0.8s-0.2-0.4-0.3-0.5s-0.3-0.3-0.5-0.4c-0.2-0.1-0.4-0.1-0.7-0.1c-0.3,0-0.5,0-0.7,0.1s-0.4,0.2-0.6,0.4
			s-0.3,0.4-0.4,0.6c-0.1,0.2-0.2,0.5-0.2,0.7H55.2z"/>
		<path style="fill:#939598;" d="M58.7,163.7h-1v-4.6c0-0.2,0-0.4,0-0.5s0-0.3,0-0.5c0-0.2,0-0.3,0-0.5h1l0,0.8
			c0.2-0.3,0.5-0.6,0.8-0.7s0.7-0.2,1.2-0.2c0.4,0,0.8,0.1,1.1,0.2s0.5,0.3,0.7,0.6s0.3,0.6,0.3,0.9s0.1,0.8,0.1,1.2v3.2h-1v-3.1
			c0-0.3,0-0.6,0-0.9s-0.1-0.5-0.2-0.7s-0.2-0.3-0.4-0.5s-0.4-0.2-0.8-0.2c-0.3,0-0.6,0.1-0.8,0.2s-0.4,0.2-0.6,0.4
			s-0.3,0.3-0.4,0.5s-0.1,0.3-0.1,0.5V163.7z"/>
		<path style="fill:#939598;" d="M69,159c-0.2-0.2-0.4-0.4-0.7-0.5s-0.6-0.2-0.9-0.2c-0.3,0-0.6,0.1-0.9,0.2s-0.5,0.3-0.6,0.5
			s-0.3,0.5-0.4,0.8s-0.1,0.6-0.1,0.9c0,0.3,0,0.6,0.1,0.9s0.2,0.5,0.4,0.7s0.4,0.4,0.6,0.5s0.6,0.2,0.9,0.2c0.7,0,1.3-0.2,1.8-0.7
			l0.3,0.8c-0.3,0.2-0.6,0.4-1,0.5s-0.7,0.2-1.2,0.2c-0.5,0-0.9-0.1-1.3-0.2s-0.7-0.4-0.9-0.7s-0.4-0.6-0.6-1s-0.2-0.8-0.2-1.2
			c0-0.4,0.1-0.9,0.2-1.2s0.3-0.7,0.6-1s0.6-0.5,0.9-0.7s0.8-0.3,1.3-0.3c0.5,0,0.9,0.1,1.2,0.2s0.6,0.4,0.8,0.6L69,159z"/>
		<path style="fill:#939598;" d="M70.1,157.7h1.1l1.9,5l2-5h1l-2.7,6.4c-0.1,0.3-0.2,0.5-0.4,0.7s-0.3,0.4-0.5,0.6s-0.4,0.3-0.6,0.5
			s-0.5,0.2-0.8,0.3l-0.5-0.7c0.3-0.1,0.6-0.2,0.8-0.3s0.4-0.3,0.5-0.4s0.2-0.3,0.3-0.4s0.1-0.3,0.2-0.4l0.1-0.3L70.1,157.7z"/>
		<path style="fill:#939598;" d="M85.1,163.7l0-0.9c-0.3,0.4-0.5,0.6-0.9,0.8s-0.7,0.2-1.2,0.2c-0.5,0-0.9-0.1-1.2-0.2
			s-0.6-0.4-0.8-0.7s-0.4-0.6-0.5-1s-0.2-0.8-0.2-1.2c0-0.4,0.1-0.8,0.2-1.2s0.3-0.7,0.5-1s0.5-0.5,0.9-0.7s0.7-0.3,1.2-0.3
			c0.4,0,0.8,0.1,1.2,0.2s0.6,0.4,0.9,0.7V155h1v7.2c0,0.2,0,0.5,0,0.8s0,0.5,0,0.7H85.1z M83.2,163.1c0.3,0,0.6-0.1,0.8-0.2
			c0.2-0.1,0.4-0.3,0.6-0.5s0.3-0.5,0.4-0.8s0.1-0.7,0.1-1.1c0-0.3,0-0.6-0.1-0.9s-0.2-0.5-0.4-0.7s-0.4-0.3-0.6-0.4
			c-0.2-0.1-0.5-0.2-0.8-0.2c-0.3,0-0.6,0.1-0.9,0.2c-0.2,0.1-0.4,0.3-0.6,0.5c-0.2,0.2-0.3,0.5-0.3,0.8s-0.1,0.6-0.1,0.9
			c0,0.3,0,0.6,0.1,0.9s0.2,0.5,0.3,0.7c0.1,0.2,0.3,0.4,0.6,0.5C82.6,163,82.9,163.1,83.2,163.1z"/>
		<path style="fill:#939598;" d="M90.5,157.6c0.2,0,0.5,0,0.7,0.1s0.4,0.1,0.6,0.2s0.3,0.2,0.5,0.3s0.3,0.3,0.4,0.4l0-0.8h1l0,1.5
			v4.5h-1l0-0.8c-0.1,0.1-0.2,0.2-0.4,0.4s-0.3,0.2-0.5,0.3s-0.4,0.2-0.6,0.2s-0.4,0.1-0.7,0.1c-0.3,0-0.6,0-0.9-0.1
			s-0.5-0.2-0.7-0.4s-0.4-0.3-0.6-0.5s-0.3-0.4-0.4-0.7s-0.2-0.5-0.2-0.7s-0.1-0.5-0.1-0.8c0-0.4,0.1-0.8,0.2-1.1s0.3-0.7,0.5-1
			s0.5-0.5,0.9-0.7S90,157.6,90.5,157.6z M90.6,163.1c0.3,0,0.5-0.1,0.8-0.2s0.5-0.3,0.6-0.5s0.3-0.5,0.4-0.8s0.2-0.7,0.2-1.1
			c0-0.3,0-0.6-0.1-0.9s-0.2-0.5-0.4-0.7s-0.4-0.3-0.6-0.4s-0.5-0.2-0.8-0.2c-0.2,0-0.5,0-0.6,0.1s-0.4,0.2-0.5,0.3
			s-0.3,0.2-0.4,0.4s-0.2,0.3-0.3,0.5s-0.1,0.4-0.2,0.5s0,0.4,0,0.6c0,0.2,0,0.4,0,0.6s0.1,0.4,0.1,0.5s0.1,0.3,0.2,0.5
			s0.2,0.3,0.4,0.4s0.3,0.2,0.5,0.3S90.3,163.1,90.6,163.1z"/>
		<path style="fill:#939598;" d="M95.8,158.3h-1.2v-0.6h1.2l0-1.6l0.9-0.3v1.9h1.5v0.6h-1.5v3.6c0,0.1,0,0.3,0,0.4s0,0.3,0.1,0.4
			s0.1,0.2,0.2,0.3s0.2,0.1,0.4,0.1c0.1,0,0.3,0,0.4,0s0.3-0.1,0.5-0.1l0,0.7c-0.1,0.1-0.3,0.1-0.4,0.2s-0.3,0-0.5,0
			c-0.3,0-0.6-0.1-0.8-0.2s-0.3-0.3-0.5-0.4s-0.2-0.4-0.2-0.7s-0.1-0.5-0.1-0.8V158.3z"/>
		<path style="fill:#939598;" d="M102,157.6c0.2,0,0.5,0,0.7,0.1s0.4,0.1,0.6,0.2s0.3,0.2,0.5,0.3s0.3,0.3,0.4,0.4l0-0.8h1l0,1.5
			v4.5h-1l0-0.8c-0.1,0.1-0.2,0.2-0.4,0.4s-0.3,0.2-0.5,0.3s-0.4,0.2-0.6,0.2s-0.4,0.1-0.7,0.1c-0.3,0-0.6,0-0.9-0.1
			s-0.5-0.2-0.7-0.4s-0.4-0.3-0.6-0.5s-0.3-0.4-0.4-0.7s-0.2-0.5-0.2-0.7s-0.1-0.5-0.1-0.8c0-0.4,0.1-0.8,0.2-1.1s0.3-0.7,0.5-1
			s0.5-0.5,0.9-0.7S101.5,157.6,102,157.6z M102.1,163.1c0.3,0,0.5-0.1,0.8-0.2s0.5-0.3,0.6-0.5s0.3-0.5,0.4-0.8s0.2-0.7,0.2-1.1
			c0-0.3,0-0.6-0.1-0.9s-0.2-0.5-0.4-0.7s-0.4-0.3-0.6-0.4s-0.5-0.2-0.8-0.2c-0.2,0-0.5,0-0.6,0.1s-0.4,0.2-0.5,0.3
			s-0.3,0.2-0.4,0.4s-0.2,0.3-0.3,0.5s-0.1,0.4-0.2,0.5s0,0.4,0,0.6c0,0.2,0,0.4,0,0.6s0.1,0.4,0.1,0.5s0.1,0.3,0.2,0.5
			s0.2,0.3,0.4,0.4s0.3,0.2,0.5,0.3S101.9,163.1,102.1,163.1z"/>
		<path style="fill:#939598;" d="M110.4,157.7h1v6h-1V157.7z M111.3,155.2v0.9h-0.9v-0.9H111.3z"/>
		<path style="fill:#939598;" d="M117,158.8c-0.2-0.1-0.5-0.2-0.8-0.3c-0.3-0.1-0.6-0.1-0.9-0.1c-0.2,0-0.3,0-0.5,0.1
			s-0.3,0.1-0.4,0.2s-0.2,0.2-0.3,0.3s-0.1,0.2-0.1,0.3c0,0.1,0,0.3,0.1,0.4s0.2,0.2,0.3,0.3s0.2,0.1,0.4,0.2
			c0.2,0.1,0.3,0.1,0.5,0.2c0.2,0,0.3,0.1,0.5,0.1s0.4,0.1,0.5,0.2s0.3,0.1,0.5,0.2s0.3,0.2,0.4,0.3s0.2,0.3,0.3,0.4
			s0.1,0.4,0.1,0.6c0,0.3-0.1,0.6-0.2,0.8s-0.3,0.4-0.6,0.6s-0.5,0.3-0.8,0.3s-0.6,0.1-0.9,0.1c-0.2,0-0.4,0-0.6,0s-0.4-0.1-0.6-0.1
			c-0.2-0.1-0.4-0.1-0.5-0.2s-0.3-0.2-0.4-0.3l0.3-0.8c0.1,0.1,0.2,0.2,0.4,0.3s0.3,0.2,0.5,0.2c0.2,0.1,0.3,0.1,0.5,0.1
			s0.3,0,0.5,0c0.2,0,0.4,0,0.6-0.1s0.3-0.1,0.5-0.2c0.1-0.1,0.2-0.2,0.3-0.3s0.1-0.3,0.1-0.4c0-0.2,0-0.3-0.1-0.4s-0.2-0.2-0.4-0.3
			s-0.3-0.2-0.5-0.2c-0.2-0.1-0.4-0.1-0.7-0.2c-0.3-0.1-0.6-0.2-0.8-0.3c-0.2-0.1-0.4-0.2-0.6-0.4s-0.3-0.3-0.4-0.5
			s-0.1-0.4-0.1-0.6c0-0.3,0.1-0.5,0.2-0.7s0.3-0.4,0.5-0.5c0.2-0.1,0.4-0.2,0.7-0.3c0.3-0.1,0.5-0.1,0.8-0.1c0.4,0,0.8,0,1.1,0.1
			c0.3,0.1,0.6,0.2,0.9,0.4L117,158.8z"/>
		<path style="fill:#939598;" d="M123.9,157.7h-1.1l0.9-2.6h0.8L123.9,157.7z M125.9,157.7h-1.1l0.9-2.6h0.8L125.9,157.7z"/>
		<path style="fill:#939598;" d="M131.2,157.6c0.2,0,0.5,0,0.7,0.1s0.4,0.1,0.6,0.2s0.3,0.2,0.5,0.3s0.3,0.3,0.4,0.4l0-0.8h1l0,1.5
			v4.5h-1l0-0.8c-0.1,0.1-0.2,0.2-0.4,0.4s-0.3,0.2-0.5,0.3s-0.4,0.2-0.6,0.2s-0.4,0.1-0.7,0.1c-0.3,0-0.6,0-0.9-0.1
			s-0.5-0.2-0.7-0.4s-0.4-0.3-0.6-0.5s-0.3-0.4-0.4-0.7s-0.2-0.5-0.2-0.7s-0.1-0.5-0.1-0.8c0-0.4,0.1-0.8,0.2-1.1s0.3-0.7,0.5-1
			s0.5-0.5,0.9-0.7S130.7,157.6,131.2,157.6z M131.3,163.1c0.3,0,0.5-0.1,0.8-0.2s0.5-0.3,0.6-0.5s0.3-0.5,0.4-0.8s0.2-0.7,0.2-1.1
			c0-0.3,0-0.6-0.1-0.9s-0.2-0.5-0.4-0.7s-0.4-0.3-0.6-0.4s-0.5-0.2-0.8-0.2c-0.2,0-0.5,0-0.6,0.1s-0.4,0.2-0.5,0.3
			s-0.3,0.2-0.4,0.4s-0.2,0.3-0.3,0.5s-0.1,0.4-0.2,0.5s-0.1,0.4-0.1,0.6c0,0.2,0,0.4,0,0.6s0.1,0.4,0.1,0.5s0.1,0.3,0.2,0.5
			s0.2,0.3,0.4,0.4s0.3,0.2,0.5,0.3S131,163.1,131.3,163.1z"/>
		<path style="fill:#939598;" d="M139.7,158.8c-0.2-0.1-0.5-0.2-0.8-0.3c-0.3-0.1-0.6-0.1-0.9-0.1c-0.2,0-0.3,0-0.5,0.1
			s-0.3,0.1-0.4,0.2s-0.2,0.2-0.3,0.3s-0.1,0.2-0.1,0.3c0,0.1,0,0.3,0.1,0.4s0.2,0.2,0.3,0.3s0.2,0.1,0.4,0.2
			c0.2,0.1,0.3,0.1,0.5,0.2c0.2,0,0.3,0.1,0.5,0.1s0.4,0.1,0.5,0.2s0.3,0.1,0.5,0.2s0.3,0.2,0.4,0.3s0.2,0.3,0.3,0.4
			s0.1,0.4,0.1,0.6c0,0.3-0.1,0.6-0.2,0.8s-0.3,0.4-0.6,0.6s-0.5,0.3-0.8,0.3s-0.6,0.1-0.9,0.1c-0.2,0-0.4,0-0.6,0s-0.4-0.1-0.6-0.1
			s-0.4-0.1-0.5-0.2s-0.3-0.2-0.4-0.3l0.3-0.8c0.1,0.1,0.2,0.2,0.4,0.3s0.3,0.2,0.5,0.2s0.3,0.1,0.5,0.1s0.3,0,0.5,0
			c0.2,0,0.4,0,0.6-0.1s0.3-0.1,0.5-0.2c0.1-0.1,0.2-0.2,0.3-0.3s0.1-0.3,0.1-0.4c0-0.2,0-0.3-0.1-0.4s-0.2-0.2-0.4-0.3
			s-0.3-0.2-0.5-0.2c-0.2-0.1-0.4-0.1-0.7-0.2c-0.3-0.1-0.6-0.2-0.8-0.3c-0.2-0.1-0.4-0.2-0.6-0.4s-0.3-0.3-0.4-0.5
			s-0.1-0.4-0.1-0.6c0-0.3,0.1-0.5,0.2-0.7s0.3-0.4,0.5-0.5c0.2-0.1,0.4-0.2,0.7-0.3c0.3-0.1,0.5-0.1,0.8-0.1c0.4,0,0.8,0,1.1,0.1
			c0.3,0.1,0.6,0.2,0.9,0.4L139.7,158.8z"/>
		<path style="fill:#939598;" d="M145.6,164.8c0.3,0.2,0.6,0.3,1,0.4s0.7,0.1,1,0.1c0.3,0,0.7,0,0.9-0.1s0.5-0.2,0.7-0.4
			s0.3-0.4,0.4-0.6s0.1-0.5,0.1-0.9v-0.7c-0.2,0.3-0.5,0.6-0.9,0.8s-0.8,0.3-1.2,0.3c-0.4,0-0.8-0.1-1.2-0.2s-0.6-0.3-0.9-0.6
			s-0.4-0.6-0.5-0.9s-0.2-0.8-0.2-1.2c0-0.4,0.1-0.8,0.2-1.2s0.3-0.7,0.5-1s0.5-0.5,0.9-0.7s0.8-0.3,1.2-0.3c0.5,0,0.8,0.1,1.2,0.2
			s0.6,0.4,0.8,0.7c0-0.1,0-0.1,0-0.2s0-0.2,0-0.3c0-0.1,0-0.2,0-0.3h1c0,0.2,0,0.4,0,0.6c0,0.2,0,0.3,0,0.5s0,0.3,0,0.4v3.7
			c0,0.3,0,0.5,0,0.8s-0.1,0.5-0.2,0.8s-0.2,0.5-0.3,0.7s-0.3,0.4-0.6,0.6s-0.5,0.3-0.8,0.4s-0.7,0.1-1.1,0.1c-0.4,0-0.8,0-1.1-0.1
			s-0.7-0.2-1-0.4L145.6,164.8z M149.8,160.5c0-0.3,0-0.6-0.1-0.8c-0.1-0.3-0.2-0.5-0.4-0.7s-0.4-0.3-0.6-0.5s-0.5-0.2-0.8-0.2
			c-0.3,0-0.6,0.1-0.8,0.2s-0.4,0.3-0.6,0.5s-0.3,0.5-0.4,0.8s-0.1,0.6-0.1,0.9c0,0.3,0,0.6,0.1,0.9c0.1,0.3,0.2,0.5,0.3,0.7
			c0.2,0.2,0.3,0.3,0.6,0.4s0.5,0.2,0.9,0.2c0.4,0,0.6-0.1,0.9-0.2s0.4-0.3,0.6-0.5s0.3-0.5,0.3-0.8S149.8,160.8,149.8,160.5z"/>
		<path style="fill:#939598;" d="M152.7,157.7h1v6h-1V157.7z M153.7,155.2v0.9h-0.9v-0.9H153.7z"/>
		<path style="fill:#939598;" d="M154.8,157.7h1.1l1.6,4c0,0.1,0.1,0.2,0.1,0.3s0.1,0.2,0.1,0.3c0,0.1,0.1,0.3,0.1,0.4
			c0-0.1,0.1-0.3,0.1-0.4c0-0.1,0.1-0.2,0.1-0.3s0.1-0.2,0.1-0.3l1.6-4h1l-2.5,6h-1L154.8,157.7z"/>
		<path style="fill:#939598;" d="M166.9,163c-0.3,0.3-0.7,0.5-1.1,0.6s-0.8,0.2-1.3,0.2c-0.5,0-0.9-0.1-1.3-0.2s-0.7-0.4-0.9-0.6
			s-0.5-0.6-0.6-1s-0.2-0.8-0.2-1.3c0-0.4,0.1-0.8,0.2-1.2s0.3-0.7,0.6-1s0.6-0.5,0.9-0.7s0.8-0.3,1.2-0.3c0.5,0,0.9,0.1,1.2,0.2
			s0.6,0.4,0.8,0.6s0.4,0.6,0.5,0.9s0.2,0.8,0.2,1.2c0,0,0,0.1,0,0.1s0,0.1,0,0.2h-4.6l0,0.3c0,0.3,0.1,0.6,0.2,0.8s0.2,0.5,0.4,0.6
			s0.4,0.3,0.6,0.4s0.5,0.1,0.8,0.1c0.4,0,0.8-0.1,1.1-0.2s0.7-0.4,0.9-0.6L166.9,163z M166.2,160.2L166.2,160.2
			c0-0.3-0.1-0.6-0.2-0.8s-0.2-0.4-0.3-0.5s-0.3-0.3-0.5-0.4c-0.2-0.1-0.4-0.1-0.7-0.1c-0.3,0-0.5,0-0.7,0.1s-0.4,0.2-0.6,0.4
			s-0.3,0.4-0.4,0.6s-0.2,0.5-0.2,0.7H166.2z"/>
		<path style="fill:#939598;" d="M169.7,163.7h-1v-4.6c0-0.2,0-0.4,0-0.5s0-0.3,0-0.5c0-0.2,0-0.3,0-0.5h1l0,0.8
			c0.2-0.3,0.5-0.6,0.8-0.7s0.7-0.2,1.2-0.2c0.4,0,0.8,0.1,1.1,0.2s0.5,0.3,0.7,0.6s0.3,0.6,0.3,0.9s0.1,0.8,0.1,1.2v3.2h-1v-3.1
			c0-0.3,0-0.6,0-0.9s-0.1-0.5-0.2-0.7s-0.2-0.3-0.4-0.5s-0.4-0.2-0.8-0.2c-0.3,0-0.6,0.1-0.8,0.2s-0.4,0.2-0.6,0.4
			s-0.3,0.3-0.4,0.5s-0.1,0.3-0.1,0.5V163.7z"/>
		<path style="fill:#939598;" d="M176.7,155.1h1.1l-0.9,2.6h-0.8L176.7,155.1z M178.6,155.1h1.1l-0.9,2.6H178L178.6,155.1z"/>
		<path style="fill:#939598;" d="M182.5,163.8h-1.3v-1.2h1.3V163.8z"/>
	</g>
	<rect y="202.3" style="fill:none;" width="233.1" height="19.1"/>
	<text transform="matrix(1 0 0 1 44.4604 212.5088)" style="fill:#939598; font-family:'Muli'; font-size:14;">WHAT IS A CCF/HCF?  </text>
	<rect y="233.3" style="fill:none;" width="262.7" height="19.1"/>
	<text transform="matrix(1 0 0 1 0 244.9443)"><tspan x="0" y="0" style="fill:#231F20; font-family:'Muli'; font-size:16;">1</tspan><tspan x="9.3" y="0" style="fill:#939598; font-family:'Muli'; font-size:16;"> CCF/HCF = </tspan><tspan x="103" y="0" style="fill:#231F20; font-family:'Muli'; font-size:16;">100</tspan><tspan x="130.9" y="0" style="fill:#939598; font-family:'Muli'; font-size:16;"> Cubic Feet =   </tspan></text>
	<g>
		<rect y="287.3" style="fill:none;" width="35.2" height="19.1"/>
		<text transform="matrix(1 0 0 1 0 298.9971)" style="fill:#231F20; font-family:'Muli'; font-size:16;">748  </text>
		<rect x="70" y="287.3" style="fill:none;" width="114.2" height="19.1"/>
		<text transform="matrix(1 0 0 1 70.0322 298.9971)" style="fill:#939598; font-family:'Muli'; font-size:16;">gallons  </text>
		<g>
			<path style="fill:#D8A271;" d="M48,263.7c0,0-0.3,1.1,0.2,1.5c0.5,0.4,0.4,0.9,0.4,0.9s5.2,2.5,5.9,3.5c0.7,1,3,10.5,3,10.5
				c3.2,7.8,0.9,15.4-0.5,17.2c-1.4,1.8-7.9,2.1-8.1,1.7c-0.2-0.3-1.3-1.6-1.8-1.3c-0.5,0.3-1.9,1.7-1.9,1.7l-8.8-1.9
				c-7-6.6-0.9-26-0.7-26.1c0.2-0.1,7-4.9,7.2-5.3c-0.5-0.5,0-1,0-1v-1.6C46.6,262.7,48,263.7,48,263.7z M52.7,271.1
				c-0.9-0.7-2.1-0.6-2.1,0.8c-0.1,1.4,0.7,7.1,1.6,7.7c0.9,0.6,1.6,0.2,1.8-0.9C54.2,277.5,52.7,271.1,52.7,271.1z"/>
		</g>
	</g>
	<g>
		<g>
			<rect y="416.7" style="fill:none;" width="27" height="19.1"/>
			<text transform="matrix(1 0 0 1 0 428.3613)" style="fill:#231F20; font-family:'Muli'; font-size:16;">3  </text>
		</g>
		<g>
			<rect x="70.2" y="416.7" style="fill:none;" width="204.8" height="19.1"/>
			<text transform="matrix(1 0 0 1 70.25 428.3613)" style="fill:#939598; font-family:'Muli'; font-size:16;">refrigerators  </text>
		</g>
		<g>
			<g>
				<path style="fill:#D8A271;" d="M35,338.8c0.7-0.2,1.3-0.5,2-0.4c9.7,1.2,19.4,2.5,29.1,3.7c1.3,0.2,2.5,1,3.1,2.2
					c0.6,0.9,0.8,2,0.7,3.1c0,1,0.1,2.1-0.1,3.1c0,2.1,0.1,4.2-0.1,6.2c0,1.7,0,3.4,0,5.1l-0.1,0.1c-4.9,2.3-9.8,4.5-14.7,6.8
					c-1.3,0.6-2.5,1.2-3.8,1.7c0-2.8,0.1-5.5-0.1-8.3c0-1.5-0.1-3.1,0.1-4.6c0-0.9,0-1.7,0-2.6c0-2-1-3.9-2.7-4.9
					c-0.9-0.5-1.9-0.5-2.9-0.6c-9.7-1.3-19.3-2.7-29-4c0.1-0.2,0.3-0.2,0.5-0.3C23.1,342.9,29,340.9,35,338.8z"/>
				<g>
					<path style="fill:#D8A271;" d="M14.3,346.4c0.4-0.1,0.8-0.3,1.2-0.3c7.8,1.1,15.6,2.1,23.3,3.2c2.5,0.3,5,0.7,7.4,1
						c1.4,0.2,2.4,1.3,3.1,2.5c0.5,0.8,0.7,1.8,0.7,2.7c0,4.9,0,9.9,0,14.8c-0.1,0-0.3,0-0.4,0c-8.6-1.4-17.1-2.7-25.7-4.1
						c-3.8-0.6-7.7-1.2-11.5-1.8c0-0.9,0-1.8,0-2.7c-0.1-1.1,0-2.2-0.1-3.3c0-0.8,0-1.6,0-2.4c-0.1-1.1,0-2.3-0.1-3.4
						c0-1,0-2.1,0-3.1C12.3,348.3,13,346.9,14.3,346.4z M16,356.3c-0.3,0.1-0.6,0.4-0.7,0.7c-0.3,1,0.4,2.2,1.5,2.3
						c2.6,0.4,5.1,0.8,7.7,1.2c0.4,0,0.7,0.2,1.1,0c0.4-0.1,0.6-0.5,0.8-0.9c0.2-0.8-0.2-1.7-1-2.1c-0.3-0.2-0.7-0.2-1.1-0.2
						c-2.4-0.4-4.8-0.7-7.2-1.1C16.7,356.2,16.3,356.1,16,356.3z"/>
				</g>
				<path style="fill:#D8A271;" d="M67.5,364.4c0.8-0.3,1.5-0.7,2.3-1c0,2,0.1,4,0,6c0,1.9,0.1,3.8-0.1,5.7c0,1.8,0,3.7,0,5.5
					c-0.1,1.4,0,2.9-0.1,4.4c-0.2,2.3,0,4.7-0.1,7c0,1.6,0,3.2,0,4.7c-0.2,2.4,0,4.8-0.1,7.2c0,1.9,0,3.8,0,5.8
					c-0.2,1.5,0.1,3.1-0.1,4.6c-0.1,0.9-0.6,1.8-1.4,2.3c-5.4,3.4-10.7,6.8-16.1,10.2c-0.4,0.2-0.7,0.5-1.1,0.7
					c0.2-0.4,0.4-0.7,0.5-1c0.1-0.4,0.2-0.9,0.2-1.3c0-17.6,0-35.2,0-52.9c0-0.2,0.2-0.3,0.3-0.3C56.9,369.3,62.2,366.9,67.5,364.4z
					"/>
				<g>
					<path style="fill:#D8A271;" d="M12.6,365.9c1.4,0.1,2.8,0.4,4.1,0.6c6.2,1,12.3,2,18.5,3c4.9,0.8,9.9,1.6,14.8,2.4
						c0,17.7,0,35.4,0,53.1c0,1.1-0.5,2.4-1.5,2.9c-0.7,0.4-1.5,0.4-2.3,0.4c-9.3-2.1-18.6-4.2-27.9-6.3c-0.7-0.2-1.4-0.3-2-0.6
						c-1.4-0.8-2.4-2.3-2.6-3.8c-0.1-1.2-0.1-2.5-0.1-3.7c-0.1-1.2,0-2.4-0.1-3.6c0-0.9,0.1-1.9-0.1-2.8c0-0.9,0.1-1.9-0.1-2.8
						c0-0.9,0-1.7,0-2.6c-0.1-1,0-1.9-0.1-2.9c-0.1-1.1,0-2.2-0.1-3.2c0-0.8,0-1.6,0-2.4c-0.1-1.2,0-2.3-0.1-3.5
						c0-0.9,0.1-1.9-0.1-2.8c0-0.8,0-1.6,0-2.4c-0.1-1.1,0-2.2-0.1-3.3c0-0.9,0-1.7,0-2.6c-0.1-1.1,0-2.3-0.1-3.4
						c0-1.7-0.1-3.3-0.1-5c-0.1-1,0-2-0.1-3.1C12.5,367.1,12.5,366.5,12.6,365.9z M16.5,378c-0.3,0.2-0.5,0.4-0.6,0.7
						c-0.1,0.5,0,0.9,0,1.4c0,2.4,0.1,4.8,0.1,7.3c0,1.1,1.1,2.1,2.2,1.8c0.5-0.1,0.8-0.6,0.8-1.1c0-2.8-0.1-5.5-0.1-8.3
						C18.9,378.6,17.6,377.6,16.5,378z"/>
				</g>
			</g>
		</g>
	</g>
	<g>
		<g>
			<rect x="-0.2" y="698.4" style="fill:none;" width="36.3" height="19.1"/>
			<text transform="matrix(1 0 0 1 -0.2178 710.0146)" style="fill:#808285; font-family:'Muli'; font-size:16;">1/10  </text>
		</g>
		<g>
			<rect x="83.1" y="698.4" style="fill:none;" width="127" height="19.1"/>
			<text transform="matrix(1 0 0 1 83.0981 710.0146)" style="fill:#808285; font-family:'Muli'; font-size:16;">cargo container  </text>
		</g>
		<g>
			<path d="M179.6,693.1h15.8c0.8-0.2,4.2-0.2,5,0H233v-4.3H31.4v2.7c0.7,1.5,1.2,1.6,2.8,1.6h3.5l2.9,11.5H41
				c1,4.3,4.8,7.4,9.4,7.4c4.6,0,8.4-3.2,9.4-7.4h1.3c1,4.3,4.8,7.4,9.4,7.4c4.6,0,8.4-3.2,9.4-7.4h0.4l1.9-11.5c0,0,51.6,0,51.6,0
				h40.8C175.4,692.9,178.8,692.9,179.6,693.1z M53.8,704.6c-0.8,1.2-2,2-3.5,2c-1.5,0-2.7-0.8-3.5-2c-0.4-0.7-0.7-1.4-0.7-2.2
				c0-2.3,1.9-4.2,4.2-4.2s4.2,1.9,4.2,4.2C54.6,703.2,54.2,704,53.8,704.6z M73.9,704.6c-0.8,1.2-2,2-3.5,2c-1.5,0-2.7-0.8-3.5-2
				c-0.4-0.7-0.7-1.4-0.7-2.2c0-2.3,1.9-4.2,4.2-4.2c2.3,0,4.2,1.9,4.2,4.2C74.7,703.2,74.4,704,73.9,704.6z"/>
			<g>
				<rect x="207.7" y="620.1" width="20" height="59.6"/>
			</g>
			<rect x="197.2" y="689.6" width="4.4" height="8.8"/>
			<g>
				<path d="M229.8,618.2v63.2h-195v-63.2H229.8 M233,615H31.5v69.7H233V615L233,615z"/>
			</g>
		</g>
	</g>
	<g>
		<rect y="327" style="fill:none;" width="233.3" height="19.1"/>
		<text transform="matrix(1 0 0 1 106.2769 337.1758)" style="fill:#808285; font-family:'Muli'; font-size:14;">OR</text>
		<line style="fill:none;stroke:#E6E7E8;stroke-miterlimit:10;" x1="86" y1="332.5" x2="102" y2="332.5"/>
		<line style="fill:none;stroke:#E6E7E8;stroke-miterlimit:10;" x1="131" y1="332.5" x2="147" y2="332.5"/>
	</g>
</g>
</svg>
