<?xml version="1.0" encoding="utf-8"?>
<!-- Generator: Adobe Illustrator 15.0.0, SVG Export Plug-In . SVG Version: 6.00 Build 0)  -->
<!DOCTYPE svg PUBLIC "-//W3C//DTD SVG 1.1//EN" "http://www.w3.org/Graphics/SVG/1.1/DTD/svg11.dtd">
<svg version="1.1" xmlns="http://www.w3.org/2000/svg" xmlns:xlink="http://www.w3.org/1999/xlink" x="0px" y="0px" width="233px"
	 height="164px" viewBox="0 0 233 164" style="enable-background:new 0 0 233 164;" xml:space="preserve">
<g id="underlay" style="display:none;">
	
		<image style="display:inline;overflow:visible;" width="1440" height="900" xlink:href="../IMAGE files/legend_underlay.png"  transform="matrix(1 0 0 1 -1042.1367 -394.9224)">
	</image>
	
		<image style="display:inline;overflow:visible;" width="1440" height="900" xlink:href="../IMAGE files/legend_underlay1.png"  transform="matrix(1 0 0 1 -1042.4961 -488.5273)">
	</image>
</g>
<g id="guides" style="display:none;">
</g>
<g id="circles">
	<g>
		<g>
			<circle style="fill:none;stroke:#58595B;stroke-miterlimit:10;stroke-dasharray:1.9836,1.9836;" cx="24" cy="42" r="12"/>
		</g>
		<g>
			<circle style="fill:none;stroke:#58595B;stroke-miterlimit:10;stroke-dasharray:1.9837,1.9837;" cx="24" cy="30" r="24"/>
		</g>
		<line style="fill:none;stroke:#A7A9AC;stroke-miterlimit:10;" x1="34" y1="30.5" x2="73" y2="30.5"/>
		<line style="fill:none;stroke:#A7A9AC;stroke-miterlimit:10;" x1="34" y1="5.5" x2="73" y2="5.5"/>
		<g>
			<path style="fill:#808285;" d="M79.1,10.6c0.2,0.2,0.5,0.3,0.8,0.4s0.6,0.2,0.8,0.2l0-3.1c-0.3-0.1-0.6-0.3-0.9-0.4
				s-0.5-0.3-0.7-0.5s-0.4-0.4-0.5-0.6c-0.1-0.2-0.2-0.5-0.2-0.8c0-0.3,0.1-0.6,0.2-0.9s0.3-0.5,0.5-0.7c0.2-0.2,0.5-0.4,0.7-0.5
				s0.6-0.2,0.9-0.2l0-0.8h0.7l0,0.8c0.4,0,0.8,0.1,1.1,0.2c0.3,0.1,0.6,0.3,0.9,0.5l-0.3,0.7c-0.2-0.2-0.5-0.3-0.8-0.4
				s-0.6-0.1-0.9-0.2l0,3.1c0.4,0.2,0.8,0.3,1.1,0.5s0.6,0.3,0.8,0.5s0.4,0.4,0.5,0.6S84,9.5,84,9.8c0,0.3-0.1,0.6-0.2,0.9
				s-0.3,0.5-0.5,0.7s-0.5,0.3-0.8,0.4s-0.6,0.2-1,0.2l0,0.9h-0.7l0-0.9c-0.4,0-0.7-0.1-1-0.2s-0.6-0.2-0.9-0.5L79.1,10.6z
				 M80.8,4.3c-0.2,0-0.3,0.1-0.5,0.2S80,4.6,79.9,4.8S79.7,5,79.7,5.2s-0.1,0.3-0.1,0.5c0,0.2,0,0.4,0.1,0.5s0.1,0.3,0.3,0.4
				s0.2,0.2,0.4,0.3s0.3,0.2,0.5,0.2L80.8,4.3z M81.5,11.1c0.2,0,0.4-0.1,0.6-0.1s0.3-0.2,0.5-0.3s0.2-0.2,0.3-0.4s0.1-0.3,0.1-0.5
				c0-0.2,0-0.3-0.1-0.5S82.7,9,82.5,8.9s-0.3-0.2-0.5-0.3s-0.4-0.2-0.6-0.3L81.5,11.1z"/>
			<path style="fill:#808285;" d="M90.7,11.9h-5.5l0-0.9c0.3-0.3,0.6-0.5,0.9-0.8s0.7-0.6,1-0.9s0.6-0.6,1-1s0.6-0.6,0.8-1
				s0.4-0.6,0.6-0.9s0.2-0.6,0.2-0.8c0-0.2,0-0.4-0.1-0.6s-0.2-0.3-0.3-0.4s-0.3-0.2-0.5-0.3S88.2,4.2,88,4.2c-0.2,0-0.4,0-0.6,0.1
				S87,4.5,86.8,4.6S86.5,4.8,86.3,5S86.1,5.4,86,5.6L85.4,5c0.1-0.2,0.2-0.5,0.4-0.7s0.4-0.4,0.6-0.5s0.5-0.2,0.8-0.3
				s0.6-0.1,0.9-0.1c0.4,0,0.7,0.1,1,0.2s0.6,0.2,0.8,0.4s0.4,0.4,0.5,0.7s0.2,0.6,0.2,0.9c0,0.4-0.1,0.7-0.3,1.1S90,7.4,89.7,7.7
				s-0.6,0.7-1,1.1s-0.8,0.8-1.2,1.1c-0.2,0.2-0.4,0.3-0.5,0.5s-0.4,0.3-0.5,0.5h4.3V11.9z"/>
			<path style="fill:#808285;" d="M93.8,11.9h-1.3v-1.2h1.3V11.9z"/>
			<path style="fill:#808285;" d="M98.3,3.4c0.6,0,1,0.1,1.4,0.3s0.7,0.5,0.9,0.9s0.4,0.9,0.5,1.4s0.1,1.1,0.1,1.8
				c0,0.6-0.1,1.2-0.2,1.7s-0.3,1-0.6,1.3s-0.6,0.6-0.9,0.8S98.7,12,98.2,12c-0.5,0-1-0.1-1.3-0.3s-0.7-0.5-0.9-0.9
				s-0.4-0.8-0.5-1.4s-0.2-1.1-0.2-1.7c0-0.7,0.1-1.3,0.2-1.8s0.3-1,0.6-1.4s0.6-0.7,0.9-0.9S97.8,3.4,98.3,3.4z M98.2,4.2
				c-0.3,0-0.6,0.1-0.8,0.3c-0.2,0.2-0.4,0.4-0.6,0.7s-0.3,0.7-0.4,1.1s-0.1,0.9-0.1,1.4c0,0.3,0,0.6,0,0.8s0.1,0.6,0.1,0.8
				s0.1,0.5,0.2,0.7s0.2,0.4,0.4,0.6s0.3,0.3,0.5,0.4s0.4,0.1,0.7,0.1c0.3,0,0.6-0.1,0.8-0.2c0.2-0.2,0.4-0.4,0.6-0.7
				c0.2-0.3,0.3-0.7,0.3-1.1s0.1-0.9,0.1-1.4c0-0.3,0-0.5,0-0.8s-0.1-0.6-0.1-0.8s-0.1-0.5-0.2-0.8c-0.1-0.2-0.2-0.5-0.3-0.6
				S99.1,4.5,99,4.4S98.5,4.2,98.2,4.2z"/>
			<path style="fill:#808285;" d="M105.2,3.4c0.6,0,1,0.1,1.4,0.3s0.7,0.5,0.9,0.9s0.4,0.9,0.5,1.4s0.1,1.1,0.1,1.8
				c0,0.6-0.1,1.2-0.2,1.7s-0.3,1-0.6,1.3s-0.6,0.6-0.9,0.8s-0.8,0.3-1.3,0.3c-0.5,0-1-0.1-1.3-0.3s-0.7-0.5-0.9-0.9
				s-0.4-0.8-0.5-1.4s-0.2-1.1-0.2-1.7c0-0.7,0.1-1.3,0.2-1.8s0.3-1,0.6-1.4s0.6-0.7,0.9-0.9S104.8,3.4,105.2,3.4z M105.2,4.2
				c-0.3,0-0.6,0.1-0.8,0.3c-0.2,0.2-0.4,0.4-0.6,0.7s-0.3,0.7-0.4,1.1s-0.1,0.9-0.1,1.4c0,0.3,0,0.6,0,0.8s0.1,0.6,0.1,0.8
				s0.1,0.5,0.2,0.7s0.2,0.4,0.4,0.6s0.3,0.3,0.5,0.4s0.4,0.1,0.7,0.1c0.3,0,0.6-0.1,0.8-0.2c0.2-0.2,0.4-0.4,0.6-0.7
				c0.2-0.3,0.3-0.7,0.3-1.1s0.1-0.9,0.1-1.4c0-0.3,0-0.5,0-0.8S107,6.4,107,6.2s-0.1-0.5-0.2-0.8c-0.1-0.2-0.2-0.5-0.3-0.6
				s-0.3-0.3-0.5-0.4S105.5,4.2,105.2,4.2z"/>
			<path style="fill:#808285;" d="M114.8,13.4c-0.2-0.3-0.4-0.7-0.6-1.1s-0.4-0.8-0.5-1.2s-0.3-0.9-0.4-1.3s-0.1-0.9-0.1-1.3
				c0-0.5,0-0.9,0.1-1.4s0.2-0.9,0.3-1.3s0.3-0.8,0.5-1.2s0.4-0.8,0.7-1.2h0.9c-0.5,0.8-0.9,1.6-1.1,2.4s-0.4,1.7-0.4,2.6
				c0,0.4,0,0.8,0.1,1.3s0.2,0.9,0.3,1.3s0.3,0.8,0.5,1.3s0.4,0.8,0.6,1.2H114.8z"/>
			<path style="fill:#808285;" d="M117,3.4h1v5.3c0,0.8,0.2,1.4,0.6,1.8c0.4,0.4,1,0.6,1.8,0.6c0.4,0,0.7-0.1,1-0.2
				c0.3-0.1,0.5-0.3,0.7-0.5s0.4-0.5,0.5-0.8s0.2-0.6,0.2-1V3.4h1l0,5.3c0,0.5-0.1,1-0.2,1.4s-0.4,0.8-0.6,1.1s-0.6,0.5-1.1,0.7
				s-0.9,0.2-1.5,0.2c-0.6,0-1.1-0.1-1.5-0.2s-0.8-0.4-1-0.7s-0.5-0.6-0.6-1S117,9.2,117,8.7V3.4z"/>
			<path style="fill:#808285;" d="M126.1,10.3c0.1,0.2,0.3,0.3,0.5,0.4s0.4,0.2,0.6,0.3s0.4,0.1,0.6,0.1s0.4,0,0.6,0
				c0.3,0,0.6,0,0.8-0.1s0.5-0.2,0.7-0.3s0.3-0.3,0.4-0.4s0.2-0.4,0.2-0.6c0-0.3-0.1-0.5-0.2-0.7s-0.3-0.3-0.5-0.5s-0.5-0.3-0.8-0.4
				s-0.6-0.2-0.9-0.3s-0.6-0.2-0.9-0.4s-0.5-0.3-0.8-0.5s-0.4-0.4-0.5-0.7s-0.2-0.6-0.2-0.9c0-0.4,0.1-0.7,0.3-1s0.4-0.5,0.7-0.7
				s0.6-0.3,1-0.4s0.7-0.1,1.1-0.1c0.2,0,0.5,0,0.7,0s0.5,0.1,0.7,0.1c0.2,0.1,0.4,0.2,0.6,0.3s0.3,0.3,0.5,0.4l-0.5,0.7
				c-0.1-0.1-0.3-0.2-0.4-0.3s-0.3-0.2-0.5-0.2s-0.3-0.1-0.5-0.1s-0.4,0-0.5,0c-0.2,0-0.5,0-0.7,0.1s-0.5,0.1-0.6,0.2
				s-0.3,0.2-0.5,0.4c-0.1,0.2-0.2,0.4-0.2,0.6c0,0.2,0.1,0.5,0.2,0.6c0.1,0.2,0.3,0.3,0.5,0.5s0.5,0.3,0.8,0.4s0.6,0.2,0.9,0.4
				c0.3,0.1,0.6,0.3,0.9,0.4s0.5,0.3,0.8,0.5s0.4,0.4,0.5,0.7c0.1,0.3,0.2,0.6,0.2,0.9c0,0.3,0,0.5-0.1,0.7s-0.2,0.4-0.4,0.6
				s-0.3,0.3-0.6,0.4s-0.4,0.2-0.7,0.3s-0.5,0.1-0.8,0.2s-0.5,0.1-0.8,0.1c-0.3,0-0.6,0-0.8-0.1s-0.5-0.1-0.7-0.2s-0.4-0.2-0.6-0.3
				s-0.3-0.3-0.4-0.4L126.1,10.3z"/>
			<path style="fill:#808285;" d="M133.3,3.4h1.8c0.5,0,1,0,1.5,0.1s0.9,0.2,1.3,0.3s0.8,0.3,1.1,0.5s0.6,0.5,0.8,0.8
				s0.4,0.7,0.5,1.1s0.2,0.9,0.2,1.5c0,0.6-0.1,1.2-0.3,1.8s-0.5,1-0.9,1.3s-0.9,0.7-1.5,0.9s-1.3,0.3-2,0.3h-2.4V3.4z M134.3,11
				h1.5c0.6,0,1.2-0.1,1.6-0.2s0.8-0.4,1.1-0.7s0.5-0.7,0.7-1.1s0.2-0.9,0.2-1.4c0-0.6-0.1-1.2-0.3-1.6s-0.4-0.8-0.8-1.1
				s-0.8-0.5-1.3-0.6s-1.1-0.2-1.8-0.2h-1V11z"/>
			<path style="fill:#808285;" d="M141.6,13.4c0.2-0.4,0.4-0.7,0.6-1.1s0.3-0.8,0.5-1.2s0.2-0.9,0.3-1.3s0.1-0.9,0.1-1.4
				c0-0.4,0-0.8-0.1-1.2s-0.2-0.8-0.3-1.3s-0.3-0.8-0.5-1.3s-0.4-0.8-0.7-1.2h0.9c0.2,0.4,0.4,0.7,0.6,1.1s0.4,0.8,0.5,1.2
				s0.3,0.9,0.3,1.3s0.1,0.9,0.1,1.3c0,0.5,0,0.9-0.1,1.4s-0.2,0.9-0.3,1.3s-0.3,0.8-0.5,1.2s-0.4,0.8-0.7,1.2H141.6z"/>
			<path style="fill:#808285;" d="M144.6,13.1l3.7-9.8h1l-3.8,9.8H144.6z"/>
		</g>
		<g>
			<path style="fill:#808285;" d="M164.1,13.1l3.7-9.8h1l-3.8,9.8H164.1z"/>
			<path style="fill:#808285;" d="M174,11.9l0-0.9c-0.3,0.4-0.5,0.6-0.9,0.8s-0.7,0.2-1.2,0.2c-0.5,0-0.9-0.1-1.2-0.2
				s-0.6-0.4-0.8-0.7s-0.4-0.6-0.5-1s-0.2-0.8-0.2-1.2c0-0.4,0.1-0.8,0.2-1.2s0.3-0.7,0.5-1s0.5-0.5,0.9-0.7s0.7-0.3,1.2-0.3
				c0.4,0,0.8,0.1,1.2,0.2s0.6,0.4,0.9,0.7V3.1h1v7.2c0,0.2,0,0.5,0,0.8s0,0.5,0,0.7H174z M172,11.2c0.3,0,0.6-0.1,0.8-0.2
				c0.2-0.1,0.4-0.3,0.6-0.5s0.3-0.5,0.4-0.8s0.1-0.7,0.1-1.1c0-0.3,0-0.6-0.1-0.9c-0.1-0.3-0.2-0.5-0.4-0.7
				c-0.2-0.2-0.4-0.3-0.6-0.4s-0.5-0.2-0.8-0.2c-0.3,0-0.6,0.1-0.9,0.2c-0.2,0.1-0.4,0.3-0.6,0.5c-0.2,0.2-0.3,0.5-0.3,0.8
				s-0.1,0.6-0.1,0.9c0,0.3,0,0.6,0.1,0.9s0.2,0.5,0.3,0.7s0.3,0.4,0.6,0.5C171.4,11.2,171.7,11.2,172,11.2z"/>
			<path style="fill:#808285;" d="M179.3,5.7c0.2,0,0.5,0,0.7,0.1s0.4,0.1,0.6,0.2s0.3,0.2,0.5,0.3s0.3,0.3,0.4,0.4l0-0.8h1l0,1.5
				v4.5h-1l0-0.8c-0.1,0.1-0.2,0.2-0.4,0.4s-0.3,0.2-0.5,0.3s-0.4,0.2-0.6,0.2s-0.4,0.1-0.7,0.1c-0.3,0-0.6,0-0.9-0.1
				s-0.5-0.2-0.7-0.4s-0.4-0.3-0.6-0.5s-0.3-0.4-0.4-0.7s-0.2-0.5-0.2-0.7s-0.1-0.5-0.1-0.8c0-0.4,0.1-0.8,0.2-1.1s0.3-0.7,0.5-1
				s0.5-0.5,0.9-0.7S178.8,5.7,179.3,5.7z M179.4,11.2c0.3,0,0.5-0.1,0.8-0.2s0.5-0.3,0.6-0.5s0.3-0.5,0.4-0.8s0.2-0.7,0.2-1.1
				c0-0.3,0-0.6-0.1-0.9s-0.2-0.5-0.4-0.7s-0.4-0.3-0.6-0.4s-0.5-0.2-0.8-0.2c-0.2,0-0.5,0-0.6,0.1s-0.4,0.2-0.5,0.3
				s-0.3,0.2-0.4,0.4s-0.2,0.3-0.3,0.5s-0.1,0.4-0.2,0.5s0,0.4,0,0.6c0,0.2,0,0.4,0,0.6s0.1,0.4,0.1,0.5s0.1,0.3,0.2,0.5
				s0.2,0.3,0.4,0.4s0.3,0.2,0.5,0.3S179.1,11.2,179.4,11.2z"/>
			<path style="fill:#808285;" d="M183.3,5.9h1.1l1.9,5l2-5h1l-2.7,6.4c-0.1,0.3-0.2,0.5-0.4,0.7s-0.3,0.4-0.5,0.6s-0.4,0.3-0.6,0.5
				s-0.5,0.2-0.8,0.3l-0.5-0.7c0.3-0.1,0.6-0.2,0.8-0.3s0.4-0.3,0.5-0.4s0.2-0.3,0.3-0.4s0.1-0.3,0.2-0.4l0.1-0.3L183.3,5.9z"/>
		</g>
		<g>
			<path style="fill:#808285;" d="M159.7,12.7h-5.9c-1.1,0-1.8-0.6-1.8-1.7c0-1.5,0.4-3.8,2.3-3.8c0.2,0,1.1,0.9,2.4,0.9
				s2.2-0.9,2.4-0.9c2,0,2.3,2.3,2.3,3.8C161.5,12,160.8,12.7,159.7,12.7z M156.8,7.5c-1.4,0-2.6-1.2-2.6-2.6s1.2-2.6,2.6-2.6
				s2.6,1.2,2.6,2.6S158.2,7.5,156.8,7.5z"/>
		</g>
		<g>
			<path style="fill:#808285;" d="M79.1,36.8c0.2,0.2,0.5,0.3,0.8,0.4s0.6,0.2,0.8,0.2l0-3.1c-0.3-0.1-0.6-0.3-0.9-0.4
				s-0.5-0.3-0.7-0.5s-0.4-0.4-0.5-0.6c-0.1-0.2-0.2-0.5-0.2-0.8c0-0.3,0.1-0.6,0.2-0.9s0.3-0.5,0.5-0.7c0.2-0.2,0.5-0.4,0.7-0.5
				s0.6-0.2,0.9-0.2l0-0.8h0.7l0,0.8c0.4,0,0.8,0.1,1.1,0.2c0.3,0.1,0.6,0.3,0.9,0.5l-0.3,0.7c-0.2-0.2-0.5-0.3-0.8-0.4
				s-0.6-0.1-0.9-0.2l0,3.1c0.4,0.2,0.8,0.3,1.1,0.5s0.6,0.3,0.8,0.5s0.4,0.4,0.5,0.6S84,35.7,84,36c0,0.3-0.1,0.6-0.2,0.9
				s-0.3,0.5-0.5,0.7s-0.5,0.3-0.8,0.4s-0.6,0.2-1,0.2l0,0.9h-0.7l0-0.9c-0.4,0-0.7-0.1-1-0.2s-0.6-0.2-0.9-0.5L79.1,36.8z
				 M80.8,30.5c-0.2,0-0.3,0.1-0.5,0.2S80,30.8,79.9,31s-0.2,0.3-0.2,0.4s-0.1,0.3-0.1,0.5c0,0.2,0,0.4,0.1,0.5s0.1,0.3,0.3,0.4
				s0.2,0.2,0.4,0.3s0.3,0.2,0.5,0.2L80.8,30.5z M81.5,37.3c0.2,0,0.4-0.1,0.6-0.1s0.3-0.2,0.5-0.3s0.2-0.2,0.3-0.4s0.1-0.3,0.1-0.5
				c0-0.2,0-0.3-0.1-0.5s-0.2-0.3-0.3-0.4s-0.3-0.2-0.5-0.3s-0.4-0.2-0.6-0.3L81.5,37.3z"/>
			<path style="fill:#808285;" d="M86.2,30.6c0.3-0.1,0.6-0.2,0.9-0.4s0.5-0.3,0.8-0.5l1-0.2v7.6h1.3v0.8h-3.6v-0.8h1.3v-6.5
				c-0.3,0.1-0.5,0.3-0.8,0.4s-0.5,0.2-0.8,0.4V30.6z"/>
			<path style="fill:#808285;" d="M93.8,38.1h-1.3v-1.2h1.3V38.1z"/>
			<path style="fill:#808285;" d="M98.3,29.6c0.6,0,1,0.1,1.4,0.3s0.7,0.5,0.9,0.9s0.4,0.9,0.5,1.4s0.1,1.1,0.1,1.8
				c0,0.6-0.1,1.2-0.2,1.7s-0.3,1-0.6,1.3s-0.6,0.6-0.9,0.8s-0.8,0.3-1.3,0.3c-0.5,0-1-0.1-1.3-0.3S96.2,37.4,96,37
				s-0.4-0.8-0.5-1.4s-0.2-1.1-0.2-1.7c0-0.7,0.1-1.3,0.2-1.8s0.3-1,0.6-1.4s0.6-0.7,0.9-0.9S97.8,29.6,98.3,29.6z M98.2,30.4
				c-0.3,0-0.6,0.1-0.8,0.3c-0.2,0.2-0.4,0.4-0.6,0.7s-0.3,0.7-0.4,1.1s-0.1,0.9-0.1,1.4c0,0.3,0,0.6,0,0.8s0.1,0.6,0.1,0.8
				s0.1,0.5,0.2,0.7s0.2,0.4,0.4,0.6s0.3,0.3,0.5,0.4s0.4,0.1,0.7,0.1c0.3,0,0.6-0.1,0.8-0.2c0.2-0.2,0.4-0.4,0.6-0.7
				c0.2-0.3,0.3-0.7,0.3-1.1s0.1-0.9,0.1-1.4c0-0.3,0-0.5,0-0.8s-0.1-0.6-0.1-0.8s-0.1-0.5-0.2-0.8c-0.1-0.2-0.2-0.5-0.3-0.6
				s-0.3-0.3-0.5-0.4S98.5,30.4,98.2,30.4z"/>
			<path style="fill:#808285;" d="M105.2,29.6c0.6,0,1,0.1,1.4,0.3s0.7,0.5,0.9,0.9s0.4,0.9,0.5,1.4s0.1,1.1,0.1,1.8
				c0,0.6-0.1,1.2-0.2,1.7s-0.3,1-0.6,1.3s-0.6,0.6-0.9,0.8s-0.8,0.3-1.3,0.3c-0.5,0-1-0.1-1.3-0.3s-0.7-0.5-0.9-0.9
				s-0.4-0.8-0.5-1.4s-0.2-1.1-0.2-1.7c0-0.7,0.1-1.3,0.2-1.8s0.3-1,0.6-1.4s0.6-0.7,0.9-0.9S104.8,29.6,105.2,29.6z M105.2,30.4
				c-0.3,0-0.6,0.1-0.8,0.3c-0.2,0.2-0.4,0.4-0.6,0.7s-0.3,0.7-0.4,1.1s-0.1,0.9-0.1,1.4c0,0.3,0,0.6,0,0.8s0.1,0.6,0.1,0.8
				s0.1,0.5,0.2,0.7s0.2,0.4,0.4,0.6s0.3,0.3,0.5,0.4s0.4,0.1,0.7,0.1c0.3,0,0.6-0.1,0.8-0.2c0.2-0.2,0.4-0.4,0.6-0.7
				c0.2-0.3,0.3-0.7,0.3-1.1s0.1-0.9,0.1-1.4c0-0.3,0-0.5,0-0.8s-0.1-0.6-0.1-0.8s-0.1-0.5-0.2-0.8c-0.1-0.2-0.2-0.5-0.3-0.6
				s-0.3-0.3-0.5-0.4S105.5,30.4,105.2,30.4z"/>
			<path style="fill:#808285;" d="M114.8,39.6c-0.2-0.3-0.4-0.7-0.6-1.1s-0.4-0.8-0.5-1.2s-0.3-0.9-0.4-1.3s-0.1-0.9-0.1-1.3
				c0-0.5,0-0.9,0.1-1.4s0.2-0.9,0.3-1.3s0.3-0.8,0.5-1.2s0.4-0.8,0.7-1.2h0.9c-0.5,0.8-0.9,1.6-1.1,2.4s-0.4,1.7-0.4,2.6
				c0,0.4,0,0.8,0.1,1.3s0.2,0.9,0.3,1.3s0.3,0.8,0.5,1.3s0.4,0.8,0.6,1.2H114.8z"/>
			<path style="fill:#808285;" d="M117,29.5h1v5.3c0,0.8,0.2,1.4,0.6,1.8c0.4,0.4,1,0.6,1.8,0.6c0.4,0,0.7-0.1,1-0.2
				c0.3-0.1,0.5-0.3,0.7-0.5s0.4-0.5,0.5-0.8s0.2-0.6,0.2-1v-5.4h1l0,5.3c0,0.5-0.1,1-0.2,1.4s-0.4,0.8-0.6,1.1s-0.6,0.5-1.1,0.7
				s-0.9,0.2-1.5,0.2c-0.6,0-1.1-0.1-1.5-0.2s-0.8-0.4-1-0.7s-0.5-0.6-0.6-1s-0.2-0.9-0.2-1.3V29.5z"/>
			<path style="fill:#808285;" d="M126.1,36.5c0.1,0.2,0.3,0.3,0.5,0.4s0.4,0.2,0.6,0.3s0.4,0.1,0.6,0.1s0.4,0,0.6,0
				c0.3,0,0.6,0,0.8-0.1s0.5-0.2,0.7-0.3s0.3-0.3,0.4-0.4s0.2-0.4,0.2-0.6c0-0.3-0.1-0.5-0.2-0.7s-0.3-0.3-0.5-0.5s-0.5-0.3-0.8-0.4
				s-0.6-0.2-0.9-0.3s-0.6-0.2-0.9-0.4s-0.5-0.3-0.8-0.5s-0.4-0.4-0.5-0.7s-0.2-0.6-0.2-0.9c0-0.4,0.1-0.7,0.3-1s0.4-0.5,0.7-0.7
				s0.6-0.3,1-0.4s0.7-0.1,1.1-0.1c0.2,0,0.5,0,0.7,0s0.5,0.1,0.7,0.1c0.2,0.1,0.4,0.2,0.6,0.3s0.3,0.3,0.5,0.4l-0.5,0.7
				c-0.1-0.1-0.3-0.2-0.4-0.3s-0.3-0.2-0.5-0.2s-0.3-0.1-0.5-0.1s-0.4,0-0.5,0c-0.2,0-0.5,0-0.7,0.1s-0.5,0.1-0.6,0.2
				s-0.3,0.2-0.5,0.4c-0.1,0.2-0.2,0.4-0.2,0.6c0,0.2,0.1,0.5,0.2,0.6c0.1,0.2,0.3,0.3,0.5,0.5s0.5,0.3,0.8,0.4s0.6,0.2,0.9,0.4
				c0.3,0.1,0.6,0.3,0.9,0.4s0.5,0.3,0.8,0.5s0.4,0.4,0.5,0.7c0.1,0.3,0.2,0.6,0.2,0.9c0,0.3,0,0.5-0.1,0.7s-0.2,0.4-0.4,0.6
				s-0.3,0.3-0.6,0.4s-0.4,0.2-0.7,0.3s-0.5,0.1-0.8,0.2s-0.5,0.1-0.8,0.1c-0.3,0-0.6,0-0.8-0.1s-0.5-0.1-0.7-0.2s-0.4-0.2-0.6-0.3
				s-0.3-0.3-0.4-0.4L126.1,36.5z"/>
			<path style="fill:#808285;" d="M133.3,29.5h1.8c0.5,0,1,0,1.5,0.1s0.9,0.2,1.3,0.3s0.8,0.3,1.1,0.5s0.6,0.5,0.8,0.8
				s0.4,0.7,0.5,1.1s0.2,0.9,0.2,1.5c0,0.6-0.1,1.2-0.3,1.8s-0.5,1-0.9,1.3s-0.9,0.7-1.5,0.9s-1.3,0.3-2,0.3h-2.4V29.5z M134.3,37.2
				h1.5c0.6,0,1.2-0.1,1.6-0.2s0.8-0.4,1.1-0.7s0.5-0.7,0.7-1.1s0.2-0.9,0.2-1.4c0-0.6-0.1-1.2-0.3-1.6s-0.4-0.8-0.8-1.1
				s-0.8-0.5-1.3-0.6s-1.1-0.2-1.8-0.2h-1V37.2z"/>
			<path style="fill:#808285;" d="M141.6,39.6c0.2-0.4,0.4-0.7,0.6-1.1s0.3-0.8,0.5-1.2s0.2-0.9,0.3-1.3s0.1-0.9,0.1-1.4
				c0-0.4,0-0.8-0.1-1.2s-0.2-0.8-0.3-1.3s-0.3-0.8-0.5-1.3s-0.4-0.8-0.7-1.2h0.9c0.2,0.4,0.4,0.7,0.6,1.1s0.4,0.8,0.5,1.2
				s0.3,0.9,0.3,1.3s0.1,0.9,0.1,1.3c0,0.5,0,0.9-0.1,1.4s-0.2,0.9-0.3,1.3s-0.3,0.8-0.5,1.2s-0.4,0.8-0.7,1.2H141.6z"/>
			<path style="fill:#808285;" d="M144.6,39.3l3.7-9.8h1l-3.8,9.8H144.6z"/>
		</g>
		<g>
			<path style="fill:#808285;" d="M164.1,39.3l3.7-9.8h1l-3.8,9.8H164.1z"/>
			<path style="fill:#808285;" d="M174,38.1l0-0.9c-0.3,0.4-0.5,0.6-0.9,0.8s-0.7,0.2-1.2,0.2c-0.5,0-0.9-0.1-1.2-0.2
				s-0.6-0.4-0.8-0.7s-0.4-0.6-0.5-1s-0.2-0.8-0.2-1.2c0-0.4,0.1-0.8,0.2-1.2s0.3-0.7,0.5-1s0.5-0.5,0.9-0.7s0.7-0.3,1.2-0.3
				c0.4,0,0.8,0.1,1.2,0.2s0.6,0.4,0.9,0.7v-3.5h1v7.2c0,0.2,0,0.5,0,0.8s0,0.5,0,0.7H174z M172,37.4c0.3,0,0.6-0.1,0.8-0.2
				c0.2-0.1,0.4-0.3,0.6-0.5s0.3-0.5,0.4-0.8s0.1-0.7,0.1-1.1c0-0.3,0-0.6-0.1-0.9c-0.1-0.3-0.2-0.5-0.4-0.7
				c-0.2-0.2-0.4-0.3-0.6-0.4s-0.5-0.2-0.8-0.2c-0.3,0-0.6,0.1-0.9,0.2c-0.2,0.1-0.4,0.3-0.6,0.5c-0.2,0.2-0.3,0.5-0.3,0.8
				s-0.1,0.6-0.1,0.9c0,0.3,0,0.6,0.1,0.9s0.2,0.5,0.3,0.7s0.3,0.4,0.6,0.5C171.4,37.4,171.7,37.4,172,37.4z"/>
			<path style="fill:#808285;" d="M179.3,31.9c0.2,0,0.5,0,0.7,0.1s0.4,0.1,0.6,0.2s0.3,0.2,0.5,0.3s0.3,0.3,0.4,0.4l0-0.8h1l0,1.5
				v4.5h-1l0-0.8c-0.1,0.1-0.2,0.2-0.4,0.4s-0.3,0.2-0.5,0.3s-0.4,0.2-0.6,0.2s-0.4,0.1-0.7,0.1c-0.3,0-0.6,0-0.9-0.1
				s-0.5-0.2-0.7-0.4s-0.4-0.3-0.6-0.5s-0.3-0.4-0.4-0.7s-0.2-0.5-0.2-0.7s-0.1-0.5-0.1-0.8c0-0.4,0.1-0.8,0.2-1.1s0.3-0.7,0.5-1
				s0.5-0.5,0.9-0.7S178.8,31.9,179.3,31.9z M179.4,37.4c0.3,0,0.5-0.1,0.8-0.2s0.5-0.3,0.6-0.5s0.3-0.5,0.4-0.8s0.2-0.7,0.2-1.1
				c0-0.3,0-0.6-0.1-0.9s-0.2-0.5-0.4-0.7s-0.4-0.3-0.6-0.4s-0.5-0.2-0.8-0.2c-0.2,0-0.5,0-0.6,0.1s-0.4,0.2-0.5,0.3
				s-0.3,0.2-0.4,0.4s-0.2,0.3-0.3,0.5s-0.1,0.4-0.2,0.5s0,0.4,0,0.6c0,0.2,0,0.4,0,0.6s0.1,0.4,0.1,0.5s0.1,0.3,0.2,0.5
				s0.2,0.3,0.4,0.4s0.3,0.2,0.5,0.3S179.1,37.4,179.4,37.4z"/>
			<path style="fill:#808285;" d="M183.3,32.1h1.1l1.9,5l2-5h1l-2.7,6.4c-0.1,0.3-0.2,0.5-0.4,0.7s-0.3,0.4-0.5,0.6
				s-0.4,0.3-0.6,0.5s-0.5,0.2-0.8,0.3l-0.5-0.7c0.3-0.1,0.6-0.2,0.8-0.3s0.4-0.3,0.5-0.4s0.2-0.3,0.3-0.4s0.1-0.3,0.2-0.4l0.1-0.3
				L183.3,32.1z"/>
		</g>
		<g>
			<path style="fill:#808285;" d="M159.7,38.9h-5.9c-1.1,0-1.8-0.6-1.8-1.7c0-1.5,0.4-3.8,2.3-3.8c0.2,0,1.1,0.9,2.4,0.9
				s2.2-0.9,2.4-0.9c2,0,2.3,2.3,2.3,3.8C161.5,38.2,160.8,38.9,159.7,38.9z M156.8,33.7c-1.4,0-2.6-1.2-2.6-2.6s1.2-2.6,2.6-2.6
				s2.6,1.2,2.6,2.6S158.2,33.7,156.8,33.7z"/>
		</g>
	</g>
	<g>
		<circle style="fill:#A4AD50;" cx="24" cy="76" r="12"/>
		<g>
			<path style="fill:#939598;" d="M50.2,80.7h-1v-8.5h1.4l2.8,6.1l0.5,1.2h0l0.5-1.2l2.8-6.1h1.4v8.5h-1v-5.5v-1.9l-0.3,0.7l-3,6.6
				h-0.7l-3-6.5l-0.4-0.9v2V80.7z"/>
			<path style="fill:#939598;" d="M65.8,80c-0.3,0.3-0.7,0.5-1.1,0.6c-0.4,0.1-0.8,0.2-1.3,0.2c-0.5,0-0.9-0.1-1.3-0.2
				s-0.7-0.4-0.9-0.6s-0.5-0.6-0.6-1s-0.2-0.8-0.2-1.3c0-0.4,0.1-0.8,0.2-1.2s0.3-0.7,0.6-1s0.6-0.5,0.9-0.7s0.8-0.3,1.3-0.3
				c0.5,0,0.9,0.1,1.2,0.2c0.3,0.2,0.6,0.4,0.8,0.6s0.4,0.6,0.5,0.9s0.2,0.8,0.2,1.2c0,0,0,0.1,0,0.1s0,0.1,0,0.2h-4.6l0,0.3
				c0,0.3,0.1,0.6,0.2,0.8c0.1,0.2,0.2,0.5,0.4,0.6c0.2,0.2,0.4,0.3,0.6,0.4c0.2,0.1,0.5,0.1,0.8,0.1c0.4,0,0.8-0.1,1.1-0.2
				c0.3-0.1,0.7-0.4,0.9-0.6L65.8,80z M65,77.1L65,77.1c0-0.3-0.1-0.6-0.2-0.8s-0.2-0.4-0.3-0.5c-0.1-0.2-0.3-0.3-0.5-0.4
				c-0.2-0.1-0.4-0.1-0.7-0.1c-0.3,0-0.5,0-0.7,0.1s-0.4,0.2-0.6,0.4c-0.2,0.2-0.3,0.4-0.4,0.6c-0.1,0.2-0.2,0.5-0.2,0.7H65z"/>
			<path style="fill:#939598;" d="M68,75.3h-1.2v-0.6H68l0-1.6l0.9-0.3v1.9h1.5v0.6H69v3.6c0,0.1,0,0.3,0,0.4s0,0.3,0.1,0.4
				s0.1,0.2,0.2,0.3s0.2,0.1,0.4,0.1c0.1,0,0.3,0,0.4,0s0.3-0.1,0.5-0.1l0,0.7c-0.1,0.1-0.3,0.1-0.4,0.2s-0.3,0-0.5,0
				c-0.3,0-0.6-0.1-0.8-0.2s-0.3-0.3-0.5-0.4s-0.2-0.4-0.2-0.7S68,79,68,78.8V75.3z"/>
			<path style="fill:#939598;" d="M76.9,80c-0.3,0.3-0.7,0.5-1.1,0.6s-0.8,0.2-1.3,0.2c-0.5,0-0.9-0.1-1.3-0.2s-0.7-0.4-0.9-0.6
				s-0.5-0.6-0.6-1s-0.2-0.8-0.2-1.3c0-0.4,0.1-0.8,0.2-1.2s0.3-0.7,0.6-1s0.6-0.5,0.9-0.7s0.8-0.3,1.3-0.3c0.5,0,0.9,0.1,1.2,0.2
				s0.6,0.4,0.8,0.6s0.4,0.6,0.5,0.9s0.2,0.8,0.2,1.2c0,0,0,0.1,0,0.1s0,0.1,0,0.2h-4.6l0,0.3c0,0.3,0.1,0.6,0.2,0.8
				s0.2,0.5,0.4,0.6s0.4,0.3,0.6,0.4c0.2,0.1,0.5,0.1,0.8,0.1c0.4,0,0.8-0.1,1.1-0.2c0.3-0.1,0.7-0.4,0.9-0.6L76.9,80z M76.1,77.1
				L76.1,77.1c0-0.3-0.1-0.6-0.2-0.8s-0.2-0.4-0.3-0.5s-0.3-0.3-0.5-0.4c-0.2-0.1-0.4-0.1-0.7-0.1c-0.3,0-0.5,0-0.7,0.1
				s-0.4,0.2-0.6,0.4s-0.3,0.4-0.4,0.6c-0.1,0.2-0.2,0.5-0.2,0.7H76.1z"/>
			<path style="fill:#939598;" d="M79.6,80.7h-1v-4.6c0-0.2,0-0.5,0-0.7s0-0.5,0-0.7h1l0,0.9c0.2-0.3,0.4-0.6,0.7-0.8
				s0.6-0.3,0.9-0.3c0.2,0,0.4,0,0.6,0.1l0,0.9c-0.1,0-0.2-0.1-0.3-0.1s-0.2,0-0.4,0c-0.2,0-0.4,0-0.6,0.1s-0.4,0.2-0.5,0.4
				s-0.2,0.4-0.3,0.6s-0.1,0.5-0.1,0.8V80.7z"/>
			<path style="fill:#939598;" d="M87.9,80c-0.3,0.3-0.7,0.5-1.1,0.6s-0.8,0.2-1.3,0.2c-0.5,0-0.9-0.1-1.3-0.2s-0.7-0.4-0.9-0.6
				s-0.5-0.6-0.6-1s-0.2-0.8-0.2-1.3c0-0.4,0.1-0.8,0.2-1.2s0.3-0.7,0.6-1s0.6-0.5,0.9-0.7s0.8-0.3,1.3-0.3c0.5,0,0.9,0.1,1.2,0.2
				s0.6,0.4,0.8,0.6s0.4,0.6,0.5,0.9s0.2,0.8,0.2,1.2c0,0,0,0.1,0,0.1s0,0.1,0,0.2h-4.6l0,0.3c0,0.3,0.1,0.6,0.2,0.8
				s0.2,0.5,0.4,0.6s0.4,0.3,0.6,0.4c0.2,0.1,0.5,0.1,0.8,0.1c0.4,0,0.8-0.1,1.1-0.2c0.3-0.1,0.7-0.4,0.9-0.6L87.9,80z M87.1,77.1
				L87.1,77.1c0-0.3-0.1-0.6-0.2-0.8s-0.2-0.4-0.3-0.5s-0.3-0.3-0.5-0.4c-0.2-0.1-0.4-0.1-0.7-0.1c-0.3,0-0.5,0-0.7,0.1
				s-0.4,0.2-0.6,0.4s-0.3,0.4-0.4,0.6c-0.1,0.2-0.2,0.5-0.2,0.7H87.1z"/>
			<path style="fill:#939598;" d="M94,80.7l0-0.9c-0.3,0.4-0.5,0.6-0.9,0.8s-0.7,0.2-1.2,0.2c-0.5,0-0.9-0.1-1.2-0.2
				s-0.6-0.4-0.8-0.7s-0.4-0.6-0.5-1s-0.2-0.8-0.2-1.2c0-0.4,0.1-0.8,0.2-1.2s0.3-0.7,0.5-1s0.5-0.5,0.9-0.7s0.7-0.3,1.2-0.3
				c0.4,0,0.8,0.1,1.2,0.2s0.6,0.4,0.9,0.7V72h1v7.2c0,0.2,0,0.5,0,0.8s0,0.5,0,0.7H94z M92.1,80.1c0.3,0,0.6-0.1,0.8-0.2
				c0.2-0.1,0.4-0.3,0.6-0.5s0.3-0.5,0.4-0.8s0.1-0.7,0.1-1.1c0-0.3,0-0.6-0.1-0.9s-0.2-0.5-0.4-0.7s-0.4-0.3-0.6-0.4
				c-0.2-0.1-0.5-0.2-0.8-0.2c-0.3,0-0.6,0.1-0.9,0.2c-0.2,0.1-0.4,0.3-0.6,0.5c-0.2,0.2-0.3,0.5-0.3,0.8s-0.1,0.6-0.1,0.9
				c0,0.3,0,0.6,0.1,0.9s0.2,0.5,0.3,0.7c0.1,0.2,0.3,0.4,0.6,0.5C91.5,80,91.8,80.1,92.1,80.1z"/>
			<path style="fill:#939598;" d="M100.6,72.2h1v5.3c0,0.8,0.2,1.4,0.6,1.8c0.4,0.4,1,0.6,1.8,0.6c0.4,0,0.7-0.1,1-0.2
				c0.3-0.1,0.5-0.3,0.7-0.5s0.4-0.5,0.5-0.8s0.2-0.6,0.2-1v-5.4h1l0,5.3c0,0.5-0.1,1-0.2,1.4s-0.4,0.8-0.6,1.1s-0.6,0.5-1.1,0.7
				s-0.9,0.2-1.5,0.2c-0.6,0-1.1-0.1-1.5-0.2s-0.8-0.4-1-0.7s-0.5-0.6-0.6-1s-0.2-0.9-0.2-1.3V72.2z"/>
			<path style="fill:#939598;" d="M113.1,75.7c-0.2-0.1-0.5-0.2-0.8-0.3c-0.3-0.1-0.6-0.1-0.9-0.1c-0.2,0-0.3,0-0.5,0.1
				c-0.2,0-0.3,0.1-0.4,0.2s-0.2,0.2-0.3,0.3s-0.1,0.2-0.1,0.3c0,0.1,0,0.3,0.1,0.4s0.2,0.2,0.3,0.3s0.2,0.1,0.4,0.2
				c0.2,0.1,0.3,0.1,0.5,0.2c0.2,0,0.3,0.1,0.5,0.1s0.4,0.1,0.5,0.2s0.3,0.1,0.5,0.2c0.2,0.1,0.3,0.2,0.4,0.3
				c0.1,0.1,0.2,0.3,0.3,0.4s0.1,0.4,0.1,0.6c0,0.3-0.1,0.6-0.2,0.8s-0.3,0.4-0.6,0.6s-0.5,0.3-0.8,0.3s-0.6,0.1-0.9,0.1
				c-0.2,0-0.4,0-0.6,0s-0.4-0.1-0.6-0.1s-0.4-0.1-0.5-0.2s-0.3-0.2-0.4-0.3l0.3-0.8c0.1,0.1,0.2,0.2,0.4,0.3s0.3,0.2,0.5,0.2
				s0.3,0.1,0.5,0.1c0.2,0,0.3,0,0.5,0c0.2,0,0.4,0,0.6-0.1s0.3-0.1,0.5-0.2c0.1-0.1,0.2-0.2,0.3-0.3s0.1-0.3,0.1-0.4
				c0-0.2,0-0.3-0.1-0.4s-0.2-0.2-0.4-0.3s-0.3-0.2-0.5-0.2c-0.2-0.1-0.4-0.1-0.7-0.2c-0.3-0.1-0.6-0.2-0.8-0.3
				c-0.2-0.1-0.4-0.2-0.6-0.4s-0.3-0.3-0.4-0.5s-0.1-0.4-0.1-0.6c0-0.3,0.1-0.5,0.2-0.7s0.3-0.4,0.5-0.5c0.2-0.1,0.4-0.2,0.7-0.3
				c0.3-0.1,0.5-0.1,0.8-0.1c0.4,0,0.8,0,1.1,0.1c0.3,0.1,0.6,0.2,0.9,0.4L113.1,75.7z"/>
			<path style="fill:#939598;" d="M120.4,80c-0.3,0.3-0.7,0.5-1.1,0.6s-0.8,0.2-1.3,0.2c-0.5,0-0.9-0.1-1.3-0.2s-0.7-0.4-0.9-0.6
				s-0.5-0.6-0.6-1s-0.2-0.8-0.2-1.3c0-0.4,0.1-0.8,0.2-1.2s0.3-0.7,0.6-1s0.6-0.5,0.9-0.7s0.8-0.3,1.2-0.3c0.5,0,0.9,0.1,1.2,0.2
				s0.6,0.4,0.8,0.6s0.4,0.6,0.5,0.9s0.2,0.8,0.2,1.2c0,0,0,0.1,0,0.1s0,0.1,0,0.2H116l0,0.3c0,0.3,0.1,0.6,0.2,0.8s0.2,0.5,0.4,0.6
				s0.4,0.3,0.6,0.4s0.5,0.1,0.8,0.1c0.4,0,0.8-0.1,1.1-0.2s0.7-0.4,0.9-0.6L120.4,80z M119.6,77.1L119.6,77.1
				c0-0.3-0.1-0.6-0.2-0.8s-0.2-0.4-0.3-0.5s-0.3-0.3-0.5-0.4c-0.2-0.1-0.4-0.1-0.7-0.1c-0.3,0-0.5,0-0.7,0.1s-0.4,0.2-0.6,0.4
				s-0.3,0.4-0.4,0.6s-0.2,0.5-0.2,0.7H119.6z"/>
			<path style="fill:#939598;" d="M123.2,80.7h-1v-4.6c0-0.2,0-0.5,0-0.7s0-0.5,0-0.7h1l0,0.9c0.2-0.3,0.4-0.6,0.7-0.8
				s0.6-0.3,0.9-0.3c0.2,0,0.4,0,0.6,0.1l0,0.9c-0.1,0-0.2-0.1-0.3-0.1s-0.2,0-0.4,0c-0.2,0-0.4,0-0.6,0.1s-0.4,0.2-0.5,0.4
				s-0.2,0.4-0.3,0.6s-0.1,0.5-0.1,0.8V80.7z"/>
			<path style="fill:#939598;" d="M130.2,75.7c-0.2-0.1-0.5-0.2-0.8-0.3c-0.3-0.1-0.6-0.1-0.9-0.1c-0.2,0-0.3,0-0.5,0.1
				s-0.3,0.1-0.4,0.2s-0.2,0.2-0.3,0.3s-0.1,0.2-0.1,0.3c0,0.1,0,0.3,0.1,0.4s0.2,0.2,0.3,0.3s0.2,0.1,0.4,0.2
				c0.2,0.1,0.3,0.1,0.5,0.2c0.2,0,0.3,0.1,0.5,0.1s0.4,0.1,0.5,0.2s0.3,0.1,0.5,0.2s0.3,0.2,0.4,0.3s0.2,0.3,0.3,0.4
				s0.1,0.4,0.1,0.6c0,0.3-0.1,0.6-0.2,0.8s-0.3,0.4-0.6,0.6s-0.5,0.3-0.8,0.3s-0.6,0.1-0.9,0.1c-0.2,0-0.4,0-0.6,0
				s-0.4-0.1-0.6-0.1s-0.4-0.1-0.5-0.2s-0.3-0.2-0.4-0.3l0.3-0.8c0.1,0.1,0.2,0.2,0.4,0.3s0.3,0.2,0.5,0.2s0.3,0.1,0.5,0.1
				s0.3,0,0.5,0c0.2,0,0.4,0,0.6-0.1s0.3-0.1,0.5-0.2c0.1-0.1,0.2-0.2,0.3-0.3s0.1-0.3,0.1-0.4c0-0.2,0-0.3-0.1-0.4
				s-0.2-0.2-0.4-0.3s-0.3-0.2-0.5-0.2c-0.2-0.1-0.4-0.1-0.7-0.2c-0.3-0.1-0.6-0.2-0.8-0.3c-0.2-0.1-0.4-0.2-0.6-0.4
				s-0.3-0.3-0.4-0.5s-0.1-0.4-0.1-0.6c0-0.3,0.1-0.5,0.2-0.7s0.3-0.4,0.5-0.5c0.2-0.1,0.4-0.2,0.7-0.3c0.3-0.1,0.5-0.1,0.8-0.1
				c0.4,0,0.8,0,1.1,0.1c0.3,0.1,0.6,0.2,0.9,0.4L130.2,75.7z"/>
		</g>
	</g>
	<g>
		<circle style="fill:#E4DA56;" cx="24" cy="108" r="12"/>
		<g>
			<path style="fill:#939598;" d="M50.2,112.7h-1v-8.5h4.9v0.9h-3.9v2.9h3.7v0.9h-3.7V112.7z"/>
			<path style="fill:#939598;" d="M56.6,104v8.7h-1V104H56.6z"/>
			<path style="fill:#939598;" d="M61,106.5c0.2,0,0.5,0,0.7,0.1s0.4,0.1,0.6,0.2s0.3,0.2,0.5,0.3s0.3,0.3,0.4,0.4l0-0.8h1l0,1.5
				v4.5h-1l0-0.8c-0.1,0.1-0.2,0.2-0.4,0.4s-0.3,0.2-0.5,0.3s-0.4,0.2-0.6,0.2s-0.4,0.1-0.7,0.1c-0.3,0-0.6,0-0.9-0.1
				s-0.5-0.2-0.7-0.4s-0.4-0.3-0.6-0.5s-0.3-0.4-0.4-0.7s-0.2-0.5-0.2-0.7s-0.1-0.5-0.1-0.8c0-0.4,0.1-0.8,0.2-1.1s0.3-0.7,0.5-1
				s0.5-0.5,0.9-0.7S60.5,106.5,61,106.5z M61.1,112.1c0.3,0,0.5-0.1,0.8-0.2s0.5-0.3,0.6-0.5s0.3-0.5,0.4-0.8s0.2-0.7,0.2-1.1
				c0-0.3,0-0.6-0.1-0.9s-0.2-0.5-0.4-0.7s-0.4-0.3-0.6-0.4s-0.5-0.2-0.8-0.2c-0.2,0-0.5,0-0.6,0.1s-0.4,0.2-0.5,0.3
				s-0.3,0.2-0.4,0.4s-0.2,0.3-0.3,0.5s-0.1,0.4-0.2,0.5s0,0.4,0,0.6c0,0.2,0,0.4,0,0.6s0.1,0.4,0.1,0.5s0.1,0.3,0.2,0.5
				s0.2,0.3,0.4,0.4s0.3,0.2,0.5,0.3S60.9,112.1,61.1,112.1z"/>
			<path style="fill:#939598;" d="M66.3,107.3h-1.2v-0.6h1.2l0-1.6l0.9-0.3v1.9h1.5v0.6h-1.5v3.6c0,0.1,0,0.3,0,0.4s0,0.3,0.1,0.4
				s0.1,0.2,0.2,0.3s0.2,0.1,0.4,0.1c0.1,0,0.3,0,0.4,0s0.3-0.1,0.5-0.1l0,0.7c-0.1,0.1-0.3,0.1-0.4,0.2s-0.3,0-0.5,0
				c-0.3,0-0.6-0.1-0.8-0.2s-0.3-0.3-0.5-0.4s-0.2-0.4-0.2-0.7s-0.1-0.5-0.1-0.8V107.3z"/>
			<path style="fill:#939598;" d="M74.9,108.9v3.8h-1v-8.5H76c0.2,0,0.5,0,0.8,0s0.6,0,0.8,0.1s0.5,0.1,0.8,0.2s0.5,0.2,0.7,0.4
				s0.4,0.4,0.5,0.6s0.2,0.6,0.2,0.9c0,0.3,0,0.5-0.1,0.7s-0.2,0.4-0.4,0.6s-0.4,0.3-0.6,0.5s-0.5,0.2-0.7,0.3h0
				c0.2,0.1,0.4,0.2,0.6,0.3s0.3,0.3,0.4,0.6s0.2,0.5,0.4,0.9c0.1,0.3,0.3,0.7,0.4,1.1l0.5,1.3h-1.1l-0.9-2.5
				c-0.1-0.3-0.2-0.5-0.3-0.7s-0.2-0.3-0.3-0.4s-0.3-0.2-0.5-0.2s-0.4-0.1-0.7-0.1H74.9z M74.9,108h1.6c0.3,0,0.5,0,0.8-0.1
				s0.5-0.1,0.7-0.2c0.2-0.1,0.4-0.3,0.5-0.5c0.1-0.2,0.2-0.4,0.2-0.7c0-0.3-0.1-0.5-0.2-0.7c-0.1-0.2-0.3-0.3-0.4-0.4
				c-0.2-0.1-0.4-0.2-0.7-0.2s-0.5-0.1-0.8-0.1h-1.6V108z"/>
			<path style="fill:#939598;" d="M84.2,106.5c0.2,0,0.5,0,0.7,0.1s0.4,0.1,0.6,0.2s0.3,0.2,0.5,0.3s0.3,0.3,0.4,0.4l0-0.8h1l0,1.5
				v4.5h-1l0-0.8c-0.1,0.1-0.2,0.2-0.4,0.4s-0.3,0.2-0.5,0.3s-0.4,0.2-0.6,0.2s-0.4,0.1-0.7,0.1c-0.3,0-0.6,0-0.9-0.1
				s-0.5-0.2-0.7-0.4s-0.4-0.3-0.6-0.5s-0.3-0.4-0.4-0.7s-0.2-0.5-0.2-0.7s-0.1-0.5-0.1-0.8c0-0.4,0.1-0.8,0.2-1.1s0.3-0.7,0.5-1
				s0.5-0.5,0.9-0.7S83.7,106.5,84.2,106.5z M84.3,112.1c0.3,0,0.5-0.1,0.8-0.2s0.5-0.3,0.6-0.5s0.3-0.5,0.4-0.8s0.2-0.7,0.2-1.1
				c0-0.3,0-0.6-0.1-0.9s-0.2-0.5-0.4-0.7s-0.4-0.3-0.6-0.4s-0.5-0.2-0.8-0.2c-0.2,0-0.5,0-0.6,0.1s-0.4,0.2-0.5,0.3
				s-0.3,0.2-0.4,0.4s-0.2,0.3-0.3,0.5s-0.1,0.4-0.2,0.5s0,0.4,0,0.6c0,0.2,0,0.4,0,0.6s0.1,0.4,0.1,0.5s0.1,0.3,0.2,0.5
				s0.2,0.3,0.4,0.4s0.3,0.2,0.5,0.3S84,112.1,84.3,112.1z"/>
			<path style="fill:#939598;" d="M89.5,107.3h-1.2v-0.6h1.2l0-1.6l0.9-0.3v1.9h1.5v0.6h-1.5v3.6c0,0.1,0,0.3,0,0.4s0,0.3,0.1,0.4
				s0.1,0.2,0.2,0.3s0.2,0.1,0.4,0.1c0.1,0,0.3,0,0.4,0s0.3-0.1,0.5-0.1l0,0.7c-0.1,0.1-0.3,0.1-0.4,0.2s-0.3,0-0.5,0
				c-0.3,0-0.6-0.1-0.8-0.2s-0.3-0.3-0.5-0.4s-0.2-0.4-0.2-0.7s-0.1-0.5-0.1-0.8V107.3z"/>
			<path style="fill:#939598;" d="M98.3,112c-0.3,0.3-0.7,0.5-1.1,0.6s-0.8,0.2-1.3,0.2c-0.5,0-0.9-0.1-1.3-0.2s-0.7-0.4-0.9-0.6
				s-0.5-0.6-0.6-1s-0.2-0.8-0.2-1.3c0-0.4,0.1-0.8,0.2-1.2s0.3-0.7,0.6-1s0.6-0.5,0.9-0.7s0.8-0.3,1.3-0.3c0.5,0,0.9,0.1,1.2,0.2
				s0.6,0.4,0.8,0.6s0.4,0.6,0.5,0.9s0.2,0.8,0.2,1.2c0,0,0,0.1,0,0.1s0,0.1,0,0.2h-4.6l0,0.3c0,0.3,0.1,0.6,0.2,0.8
				s0.2,0.5,0.4,0.6s0.4,0.3,0.6,0.4c0.2,0.1,0.5,0.1,0.8,0.1c0.4,0,0.8-0.1,1.1-0.2c0.3-0.1,0.7-0.4,0.9-0.6L98.3,112z M97.5,109.1
				L97.5,109.1c0-0.3-0.1-0.6-0.2-0.8s-0.2-0.4-0.3-0.5s-0.3-0.3-0.5-0.4c-0.2-0.1-0.4-0.1-0.7-0.1c-0.3,0-0.5,0-0.7,0.1
				s-0.4,0.2-0.6,0.4s-0.3,0.4-0.4,0.6c-0.1,0.2-0.2,0.5-0.2,0.7H97.5z"/>
			<path style="fill:#939598;" d="M103.7,104.2h1v5.3c0,0.8,0.2,1.4,0.6,1.8c0.4,0.4,1,0.6,1.8,0.6c0.4,0,0.7-0.1,1-0.2
				c0.3-0.1,0.5-0.3,0.7-0.5s0.4-0.5,0.5-0.8s0.2-0.6,0.2-1v-5.4h1l0,5.3c0,0.5-0.1,1-0.2,1.4s-0.4,0.8-0.6,1.1s-0.6,0.5-1.1,0.7
				s-0.9,0.2-1.5,0.2c-0.6,0-1.1-0.1-1.5-0.2s-0.8-0.4-1-0.7s-0.5-0.6-0.6-1s-0.2-0.9-0.2-1.3V104.2z"/>
			<path style="fill:#939598;" d="M116.2,107.7c-0.2-0.1-0.5-0.2-0.8-0.3c-0.3-0.1-0.6-0.1-0.9-0.1c-0.2,0-0.3,0-0.5,0.1
				c-0.2,0-0.3,0.1-0.4,0.2s-0.2,0.2-0.3,0.3s-0.1,0.2-0.1,0.3c0,0.1,0,0.3,0.1,0.4s0.2,0.2,0.3,0.3s0.2,0.1,0.4,0.2
				c0.2,0.1,0.3,0.1,0.5,0.2c0.2,0,0.3,0.1,0.5,0.1s0.4,0.1,0.5,0.2s0.3,0.1,0.5,0.2s0.3,0.2,0.4,0.3s0.2,0.3,0.3,0.4
				s0.1,0.4,0.1,0.6c0,0.3-0.1,0.6-0.2,0.8s-0.3,0.4-0.6,0.6s-0.5,0.3-0.8,0.3s-0.6,0.1-0.9,0.1c-0.2,0-0.4,0-0.6,0
				s-0.4-0.1-0.6-0.1s-0.4-0.1-0.5-0.2s-0.3-0.2-0.4-0.3l0.3-0.8c0.1,0.1,0.2,0.2,0.4,0.3s0.3,0.2,0.5,0.2s0.3,0.1,0.5,0.1
				c0.2,0,0.3,0,0.5,0c0.2,0,0.4,0,0.6-0.1s0.3-0.1,0.5-0.2c0.1-0.1,0.2-0.2,0.3-0.3s0.1-0.3,0.1-0.4c0-0.2,0-0.3-0.1-0.4
				s-0.2-0.2-0.4-0.3s-0.3-0.2-0.5-0.2c-0.2-0.1-0.4-0.1-0.7-0.2c-0.3-0.1-0.6-0.2-0.8-0.3c-0.2-0.1-0.4-0.2-0.6-0.4
				s-0.3-0.3-0.4-0.5s-0.1-0.4-0.1-0.6c0-0.3,0.1-0.5,0.2-0.7s0.3-0.4,0.5-0.5c0.2-0.1,0.4-0.2,0.7-0.3c0.3-0.1,0.5-0.1,0.8-0.1
				c0.4,0,0.8,0,1.1,0.1c0.3,0.1,0.6,0.2,0.9,0.4L116.2,107.7z"/>
			<path style="fill:#939598;" d="M123.6,112c-0.3,0.3-0.7,0.5-1.1,0.6s-0.8,0.2-1.3,0.2c-0.5,0-0.9-0.1-1.3-0.2s-0.7-0.4-0.9-0.6
				s-0.5-0.6-0.6-1s-0.2-0.8-0.2-1.3c0-0.4,0.1-0.8,0.2-1.2s0.3-0.7,0.6-1s0.6-0.5,0.9-0.7s0.8-0.3,1.2-0.3c0.5,0,0.9,0.1,1.2,0.2
				s0.6,0.4,0.8,0.6s0.4,0.6,0.5,0.9s0.2,0.8,0.2,1.2c0,0,0,0.1,0,0.1s0,0.1,0,0.2h-4.6l0,0.3c0,0.3,0.1,0.6,0.2,0.8
				s0.2,0.5,0.4,0.6s0.4,0.3,0.6,0.4s0.5,0.1,0.8,0.1c0.4,0,0.8-0.1,1.1-0.2s0.7-0.4,0.9-0.6L123.6,112z M122.8,109.1L122.8,109.1
				c0-0.3-0.1-0.6-0.2-0.8s-0.2-0.4-0.3-0.5s-0.3-0.3-0.5-0.4c-0.2-0.1-0.4-0.1-0.7-0.1c-0.3,0-0.5,0-0.7,0.1s-0.4,0.2-0.6,0.4
				s-0.3,0.4-0.4,0.6s-0.2,0.5-0.2,0.7H122.8z"/>
			<path style="fill:#939598;" d="M126.3,112.7h-1v-4.6c0-0.2,0-0.5,0-0.7s0-0.5,0-0.7h1l0,0.9c0.2-0.3,0.4-0.6,0.7-0.8
				s0.6-0.3,0.9-0.3c0.2,0,0.4,0,0.6,0.1l0,0.9c-0.1,0-0.2-0.1-0.3-0.1s-0.2,0-0.4,0c-0.2,0-0.4,0-0.6,0.1s-0.4,0.2-0.5,0.4
				s-0.2,0.4-0.3,0.6s-0.1,0.5-0.1,0.8V112.7z"/>
			<path style="fill:#939598;" d="M133.4,107.7c-0.2-0.1-0.5-0.2-0.8-0.3c-0.3-0.1-0.6-0.1-0.9-0.1c-0.2,0-0.3,0-0.5,0.1
				s-0.3,0.1-0.4,0.2s-0.2,0.2-0.3,0.3s-0.1,0.2-0.1,0.3c0,0.1,0,0.3,0.1,0.4s0.2,0.2,0.3,0.3s0.2,0.1,0.4,0.2
				c0.2,0.1,0.3,0.1,0.5,0.2c0.2,0,0.3,0.1,0.5,0.1s0.4,0.1,0.5,0.2s0.3,0.1,0.5,0.2s0.3,0.2,0.4,0.3s0.2,0.3,0.3,0.4
				s0.1,0.4,0.1,0.6c0,0.3-0.1,0.6-0.2,0.8s-0.3,0.4-0.6,0.6s-0.5,0.3-0.8,0.3s-0.6,0.1-0.9,0.1c-0.2,0-0.4,0-0.6,0
				s-0.4-0.1-0.6-0.1s-0.4-0.1-0.5-0.2s-0.3-0.2-0.4-0.3l0.3-0.8c0.1,0.1,0.2,0.2,0.4,0.3s0.3,0.2,0.5,0.2s0.3,0.1,0.5,0.1
				s0.3,0,0.5,0c0.2,0,0.4,0,0.6-0.1s0.3-0.1,0.5-0.2c0.1-0.1,0.2-0.2,0.3-0.3s0.1-0.3,0.1-0.4c0-0.2,0-0.3-0.1-0.4
				s-0.2-0.2-0.4-0.3s-0.3-0.2-0.5-0.2c-0.2-0.1-0.4-0.1-0.7-0.2c-0.3-0.1-0.6-0.2-0.8-0.3c-0.2-0.1-0.4-0.2-0.6-0.4
				s-0.3-0.3-0.4-0.5s-0.1-0.4-0.1-0.6c0-0.3,0.1-0.5,0.2-0.7s0.3-0.4,0.5-0.5c0.2-0.1,0.4-0.2,0.7-0.3c0.3-0.1,0.5-0.1,0.8-0.1
				c0.4,0,0.8,0,1.1,0.1c0.3,0.1,0.6,0.2,0.9,0.4L133.4,107.7z"/>
		</g>
	</g>
	<g>
		<path style="fill:#939598;" d="M1.2,146.3v-8.5h1.2l4.4,6.5l0.5,0.7v-1.4v-5.9h1v8.5H7l-4.4-6.5L2.2,139v1.1v6.1H1.2z"/>
		<path style="fill:#939598;" d="M13.1,140.1c0.5,0,0.9,0.1,1.3,0.2s0.7,0.4,1,0.7s0.4,0.6,0.6,1s0.2,0.8,0.2,1.2
			c0,0.4-0.1,0.8-0.2,1.2s-0.3,0.7-0.6,1s-0.6,0.5-1,0.7s-0.8,0.3-1.3,0.3c-0.5,0-0.9-0.1-1.3-0.2s-0.7-0.4-1-0.7s-0.5-0.6-0.6-1
			s-0.2-0.8-0.2-1.2s0.1-0.8,0.2-1.2s0.3-0.7,0.6-1s0.6-0.5,1-0.7S12.6,140.1,13.1,140.1z M15.1,143.3c0-0.3,0-0.6-0.1-0.9
			c-0.1-0.3-0.2-0.5-0.4-0.8c-0.2-0.2-0.4-0.4-0.6-0.5c-0.3-0.1-0.6-0.2-0.9-0.2c-0.3,0-0.6,0.1-0.9,0.2c-0.3,0.1-0.5,0.3-0.6,0.5
			c-0.2,0.2-0.3,0.5-0.4,0.8c-0.1,0.3-0.1,0.6-0.1,0.9s0,0.6,0.1,0.9c0.1,0.3,0.2,0.5,0.4,0.7c0.2,0.2,0.4,0.4,0.7,0.5
			c0.3,0.1,0.6,0.2,0.9,0.2c0.3,0,0.6-0.1,0.9-0.2c0.3-0.1,0.5-0.3,0.6-0.5c0.2-0.2,0.3-0.5,0.4-0.8C15,143.9,15.1,143.6,15.1,143.3
			z"/>
		<path style="fill:#939598;" d="M18.1,140.9h-1.2v-0.6h1.2l0-1.6l0.9-0.3v1.9h1.5v0.6h-1.5v3.6c0,0.1,0,0.3,0,0.4s0,0.3,0.1,0.4
			s0.1,0.2,0.2,0.3s0.2,0.1,0.4,0.1c0.1,0,0.3,0,0.4,0s0.3-0.1,0.5-0.1l0,0.7c-0.1,0.1-0.3,0.1-0.4,0.2s-0.3,0-0.5,0
			c-0.3,0-0.6-0.1-0.8-0.2s-0.3-0.3-0.5-0.4s-0.2-0.4-0.2-0.7s-0.1-0.5-0.1-0.8V140.9z"/>
		<path style="fill:#939598;" d="M26.9,145.6c-0.3,0.3-0.7,0.5-1.1,0.6s-0.8,0.2-1.3,0.2c-0.5,0-0.9-0.1-1.3-0.2s-0.7-0.4-0.9-0.6
			s-0.5-0.6-0.6-1s-0.2-0.8-0.2-1.3c0-0.4,0.1-0.8,0.2-1.2s0.3-0.7,0.6-1s0.6-0.5,0.9-0.7s0.8-0.3,1.3-0.3c0.5,0,0.9,0.1,1.2,0.2
			s0.6,0.4,0.8,0.6s0.4,0.6,0.5,0.9s0.2,0.8,0.2,1.2c0,0,0,0.1,0,0.1s0,0.1,0,0.2h-4.6l0,0.3c0,0.3,0.1,0.6,0.2,0.8s0.2,0.5,0.4,0.6
			s0.4,0.3,0.6,0.4c0.2,0.1,0.5,0.1,0.8,0.1c0.4,0,0.8-0.1,1.1-0.2c0.3-0.1,0.7-0.4,0.9-0.6L26.9,145.6z M26.2,142.7L26.2,142.7
			c0-0.3-0.1-0.6-0.2-0.8s-0.2-0.4-0.3-0.5s-0.3-0.3-0.5-0.4c-0.2-0.1-0.4-0.1-0.7-0.1c-0.3,0-0.5,0-0.7,0.1s-0.4,0.2-0.6,0.4
			s-0.3,0.4-0.4,0.6c-0.1,0.2-0.2,0.5-0.2,0.7H26.2z"/>
		<path style="fill:#939598;" d="M29.9,141.3h-1.3v-1.2h1.3V141.3z M29.9,146.3h-1.3v-1.2h1.3V146.3z"/>
		<path style="fill:#939598;" d="M36.8,146.3h-1v-5.4h-1.2l0-0.6h1.2l0-0.7c0-0.3,0-0.6,0.1-0.9c0.1-0.3,0.2-0.5,0.3-0.7
			c0.1-0.2,0.3-0.3,0.5-0.5s0.5-0.2,0.8-0.2c0.1,0,0.2,0,0.2,0s0.1,0,0.2,0s0.1,0,0.2,0c0.1,0,0.1,0,0.2,0l0,0.8
			c-0.1,0-0.2-0.1-0.3-0.1s-0.2,0-0.3,0c-0.2,0-0.4,0-0.5,0.1s-0.2,0.1-0.3,0.2s-0.1,0.2-0.1,0.4s0,0.3,0,0.5l0,0.8h1.4l0,0.6h-1.5
			V146.3z"/>
		<path style="fill:#939598;" d="M40.5,137.5v8.7h-1v-8.7H40.5z"/>
		<path style="fill:#939598;" d="M44.9,140.1c0.2,0,0.5,0,0.7,0.1s0.4,0.1,0.6,0.2s0.3,0.2,0.5,0.3s0.3,0.3,0.4,0.4l0-0.8h1l0,1.5
			v4.5h-1l0-0.8c-0.1,0.1-0.2,0.2-0.4,0.4s-0.3,0.2-0.5,0.3s-0.4,0.2-0.6,0.2s-0.4,0.1-0.7,0.1c-0.3,0-0.6,0-0.9-0.1
			s-0.5-0.2-0.7-0.4s-0.4-0.3-0.6-0.5s-0.3-0.4-0.4-0.7s-0.2-0.5-0.2-0.7s-0.1-0.5-0.1-0.8c0-0.4,0.1-0.8,0.2-1.1s0.3-0.7,0.5-1
			s0.5-0.5,0.9-0.7S44.4,140.1,44.9,140.1z M45,145.6c0.3,0,0.5-0.1,0.8-0.2s0.5-0.3,0.6-0.5s0.3-0.5,0.4-0.8s0.2-0.7,0.2-1.1
			c0-0.3,0-0.6-0.1-0.9s-0.2-0.5-0.4-0.7s-0.4-0.3-0.6-0.4s-0.5-0.2-0.8-0.2c-0.2,0-0.5,0-0.6,0.1s-0.4,0.2-0.5,0.3
			s-0.3,0.2-0.4,0.4s-0.2,0.3-0.3,0.5s-0.1,0.4-0.2,0.5s0,0.4,0,0.6c0,0.2,0,0.4,0,0.6s0.1,0.4,0.1,0.5s0.1,0.3,0.2,0.5
			s0.2,0.3,0.4,0.4s0.3,0.2,0.5,0.3S44.7,145.6,45,145.6z"/>
		<path style="fill:#939598;" d="M50.2,140.9H49v-0.6h1.2l0-1.6l0.9-0.3v1.9h1.5v0.6h-1.5v3.6c0,0.1,0,0.3,0,0.4s0,0.3,0.1,0.4
			s0.1,0.2,0.2,0.3s0.2,0.1,0.4,0.1c0.1,0,0.3,0,0.4,0s0.3-0.1,0.5-0.1l0,0.7c-0.1,0.1-0.3,0.1-0.4,0.2s-0.3,0-0.5,0
			c-0.3,0-0.6-0.1-0.8-0.2s-0.3-0.3-0.5-0.4s-0.2-0.4-0.2-0.7s-0.1-0.5-0.1-0.8V140.9z"/>
		<path style="fill:#939598;" d="M59,145.6c-0.3,0.3-0.7,0.5-1.1,0.6s-0.8,0.2-1.3,0.2c-0.5,0-0.9-0.1-1.3-0.2s-0.7-0.4-0.9-0.6
			s-0.5-0.6-0.6-1s-0.2-0.8-0.2-1.3c0-0.4,0.1-0.8,0.2-1.2s0.3-0.7,0.6-1s0.6-0.5,0.9-0.7s0.8-0.3,1.3-0.3c0.5,0,0.9,0.1,1.2,0.2
			s0.6,0.4,0.8,0.6s0.4,0.6,0.5,0.9s0.2,0.8,0.2,1.2c0,0,0,0.1,0,0.1s0,0.1,0,0.2h-4.6l0,0.3c0,0.3,0.1,0.6,0.2,0.8s0.2,0.5,0.4,0.6
			s0.4,0.3,0.6,0.4c0.2,0.1,0.5,0.1,0.8,0.1c0.4,0,0.8-0.1,1.1-0.2c0.3-0.1,0.7-0.4,0.9-0.6L59,145.6z M58.2,142.7L58.2,142.7
			c0-0.3-0.1-0.6-0.2-0.8s-0.2-0.4-0.3-0.5s-0.3-0.3-0.5-0.4c-0.2-0.1-0.4-0.1-0.7-0.1c-0.3,0-0.5,0-0.7,0.1s-0.4,0.2-0.6,0.4
			s-0.3,0.4-0.4,0.6c-0.1,0.2-0.2,0.5-0.2,0.7H58.2z"/>
		<path style="fill:#939598;" d="M65.3,146.3h-1v-4.6c0-0.2,0-0.5,0-0.7s0-0.5,0-0.7h1l0,0.9c0.2-0.3,0.4-0.6,0.7-0.8
			s0.6-0.3,0.9-0.3c0.2,0,0.4,0,0.6,0.1l0,0.9c-0.1,0-0.2-0.1-0.3-0.1s-0.2,0-0.4,0c-0.2,0-0.4,0-0.6,0.1s-0.4,0.2-0.5,0.4
			s-0.2,0.4-0.3,0.6s-0.1,0.5-0.1,0.8V146.3z"/>
		<path style="fill:#939598;" d="M71,140.1c0.2,0,0.5,0,0.7,0.1s0.4,0.1,0.6,0.2s0.3,0.2,0.5,0.3s0.3,0.3,0.4,0.4l0-0.8h1l0,1.5v4.5
			h-1l0-0.8c-0.1,0.1-0.2,0.2-0.4,0.4s-0.3,0.2-0.5,0.3s-0.4,0.2-0.6,0.2s-0.4,0.1-0.7,0.1c-0.3,0-0.6,0-0.9-0.1s-0.5-0.2-0.7-0.4
			s-0.4-0.3-0.6-0.5s-0.3-0.4-0.4-0.7s-0.2-0.5-0.2-0.7s-0.1-0.5-0.1-0.8c0-0.4,0.1-0.8,0.2-1.1s0.3-0.7,0.5-1s0.5-0.5,0.9-0.7
			S70.6,140.1,71,140.1z M71.2,145.6c0.3,0,0.5-0.1,0.8-0.2s0.5-0.3,0.6-0.5s0.3-0.5,0.4-0.8s0.2-0.7,0.2-1.1c0-0.3,0-0.6-0.1-0.9
			s-0.2-0.5-0.4-0.7s-0.4-0.3-0.6-0.4s-0.5-0.2-0.8-0.2c-0.2,0-0.5,0-0.6,0.1s-0.4,0.2-0.5,0.3s-0.3,0.2-0.4,0.4s-0.2,0.3-0.3,0.5
			s-0.1,0.4-0.2,0.5s0,0.4,0,0.6c0,0.2,0,0.4,0,0.6s0.1,0.4,0.1,0.5s0.1,0.3,0.2,0.5s0.2,0.3,0.4,0.4s0.3,0.2,0.5,0.3
			S70.9,145.6,71.2,145.6z"/>
		<path style="fill:#939598;" d="M76.3,140.9h-1.2v-0.6h1.2l0-1.6l0.9-0.3v1.9h1.5v0.6h-1.5v3.6c0,0.1,0,0.3,0,0.4s0,0.3,0.1,0.4
			s0.1,0.2,0.2,0.3s0.2,0.1,0.4,0.1c0.1,0,0.3,0,0.4,0s0.3-0.1,0.5-0.1l0,0.7c-0.1,0.1-0.3,0.1-0.4,0.2s-0.3,0-0.5,0
			c-0.3,0-0.6-0.1-0.8-0.2s-0.3-0.3-0.5-0.4s-0.2-0.4-0.2-0.7s-0.1-0.5-0.1-0.8V140.9z"/>
		<path style="fill:#939598;" d="M85.2,145.6c-0.3,0.3-0.7,0.5-1.1,0.6s-0.8,0.2-1.3,0.2c-0.5,0-0.9-0.1-1.3-0.2s-0.7-0.4-0.9-0.6
			s-0.5-0.6-0.6-1s-0.2-0.8-0.2-1.3c0-0.4,0.1-0.8,0.2-1.2s0.3-0.7,0.6-1s0.6-0.5,0.9-0.7s0.8-0.3,1.3-0.3c0.5,0,0.9,0.1,1.2,0.2
			s0.6,0.4,0.8,0.6s0.4,0.6,0.5,0.9s0.2,0.8,0.2,1.2c0,0,0,0.1,0,0.1s0,0.1,0,0.2h-4.6l0,0.3c0,0.3,0.1,0.6,0.2,0.8s0.2,0.5,0.4,0.6
			s0.4,0.3,0.6,0.4c0.2,0.1,0.5,0.1,0.8,0.1c0.4,0,0.8-0.1,1.1-0.2c0.3-0.1,0.7-0.4,0.9-0.6L85.2,145.6z M84.4,142.7L84.4,142.7
			c0-0.3-0.1-0.6-0.2-0.8s-0.2-0.4-0.3-0.5s-0.3-0.3-0.5-0.4c-0.2-0.1-0.4-0.1-0.7-0.1c-0.3,0-0.5,0-0.7,0.1s-0.4,0.2-0.6,0.4
			s-0.3,0.4-0.4,0.6c-0.1,0.2-0.2,0.5-0.2,0.7H84.4z"/>
		<path style="fill:#939598;" d="M91.3,146.3h-1c0-0.3,0-0.5,0-0.7c0-0.1,0-0.2,0-0.3s0-0.2,0-0.3s0-0.1,0-0.2s0-0.1,0-0.1v-7.2h1
			v3.6c0.2-0.3,0.6-0.6,0.9-0.8s0.8-0.2,1.2-0.2c0.5,0,0.9,0.1,1.2,0.3s0.6,0.4,0.8,0.7s0.4,0.6,0.5,1s0.1,0.8,0.1,1.2
			c0,0.4-0.1,0.9-0.2,1.2s-0.3,0.7-0.5,1s-0.5,0.5-0.9,0.7s-0.7,0.3-1.2,0.3c-0.4,0-0.8-0.1-1.1-0.2s-0.6-0.4-0.9-0.7L91.3,146.3z
			 M95.2,143.1c0-0.3,0-0.6-0.1-0.8s-0.2-0.5-0.4-0.7s-0.4-0.3-0.6-0.5s-0.5-0.2-0.8-0.2c-0.3,0-0.6,0.1-0.8,0.2s-0.4,0.3-0.6,0.5
			s-0.3,0.5-0.4,0.8s-0.1,0.6-0.1,0.9c0,0.3,0,0.6,0.1,0.9s0.2,0.5,0.3,0.7s0.3,0.3,0.6,0.4s0.5,0.2,0.9,0.2c0.4,0,0.6-0.1,0.9-0.2
			s0.4-0.3,0.6-0.5s0.3-0.5,0.3-0.8S95.2,143.4,95.2,143.1z"/>
		<path style="fill:#939598;" d="M97.7,140.3h1v6h-1V140.3z M98.7,137.7v0.9h-0.9v-0.9H98.7z"/>
		<path style="fill:#939598;" d="M101.6,137.5v8.7h-1v-8.7H101.6z"/>
		<path style="fill:#939598;" d="M104.6,137.5v8.7h-1v-8.7H104.6z"/>
		<path style="fill:#939598;" d="M106.6,140.3h1v6h-1V140.3z M107.5,137.7v0.9h-0.9v-0.9H107.5z"/>
		<path style="fill:#939598;" d="M110.5,146.3h-1v-4.6c0-0.2,0-0.4,0-0.5s0-0.3,0-0.5c0-0.2,0-0.3,0-0.5h1l0,0.8
			c0.2-0.3,0.5-0.6,0.8-0.7s0.7-0.2,1.2-0.2c0.4,0,0.8,0.1,1.1,0.2s0.5,0.3,0.7,0.6s0.3,0.6,0.3,0.9s0.1,0.8,0.1,1.2v3.2h-1v-3.1
			c0-0.3,0-0.6,0-0.9s-0.1-0.5-0.2-0.7s-0.2-0.3-0.4-0.5s-0.4-0.2-0.8-0.2c-0.3,0-0.6,0.1-0.8,0.2s-0.4,0.2-0.6,0.4
			s-0.3,0.3-0.4,0.5s-0.1,0.3-0.1,0.5V146.3z"/>
		<path style="fill:#939598;" d="M116.8,147.4c0.3,0.2,0.6,0.3,1,0.4s0.7,0.1,1,0.1c0.3,0,0.7,0,0.9-0.1s0.5-0.2,0.7-0.4
			s0.3-0.4,0.4-0.6s0.2-0.5,0.2-0.9v-0.7c-0.2,0.3-0.5,0.6-0.9,0.8s-0.7,0.3-1.2,0.3c-0.4,0-0.8-0.1-1.2-0.2s-0.6-0.3-0.9-0.6
			s-0.4-0.6-0.5-0.9s-0.2-0.8-0.2-1.2c0-0.4,0.1-0.8,0.2-1.2s0.3-0.7,0.5-1s0.5-0.5,0.9-0.7s0.8-0.3,1.2-0.3c0.5,0,0.8,0.1,1.2,0.2
			s0.6,0.4,0.8,0.7c0-0.1,0-0.1,0-0.2s0-0.2,0-0.3c0-0.1,0-0.2,0-0.3h1c0,0.2,0,0.4,0,0.6c0,0.2,0,0.3,0,0.5s0,0.3,0,0.4v3.7
			c0,0.3,0,0.5,0,0.8s-0.1,0.5-0.2,0.8s-0.2,0.5-0.3,0.7s-0.3,0.4-0.6,0.6s-0.5,0.3-0.8,0.4s-0.7,0.1-1.1,0.1c-0.4,0-0.8,0-1.1-0.1
			s-0.7-0.2-1-0.4L116.8,147.4z M121,143.1c0-0.3,0-0.6-0.1-0.8c-0.1-0.3-0.2-0.5-0.4-0.7s-0.4-0.3-0.6-0.5s-0.5-0.2-0.8-0.2
			c-0.3,0-0.6,0.1-0.8,0.2s-0.4,0.3-0.6,0.5s-0.3,0.5-0.4,0.8s-0.1,0.6-0.1,0.9c0,0.3,0,0.6,0.1,0.9c0.1,0.3,0.2,0.5,0.3,0.7
			c0.2,0.2,0.3,0.3,0.6,0.4s0.5,0.2,0.9,0.2c0.4,0,0.6-0.1,0.9-0.2s0.4-0.3,0.6-0.5s0.3-0.5,0.3-0.8S121,143.4,121,143.1z"/>
		<path style="fill:#939598;" d="M131.8,146.3l0-0.9c-0.3,0.4-0.5,0.6-0.9,0.8s-0.7,0.2-1.2,0.2c-0.5,0-0.9-0.1-1.2-0.2
			s-0.6-0.4-0.8-0.7s-0.4-0.6-0.5-1s-0.2-0.8-0.2-1.2c0-0.4,0.1-0.8,0.2-1.2s0.3-0.7,0.5-1s0.5-0.5,0.9-0.7s0.7-0.3,1.2-0.3
			c0.4,0,0.8,0.1,1.2,0.2s0.6,0.4,0.9,0.7v-3.5h1v7.2c0,0.2,0,0.5,0,0.8s0,0.5,0,0.7H131.8z M129.9,145.6c0.3,0,0.6-0.1,0.8-0.2
			c0.2-0.1,0.4-0.3,0.6-0.5s0.3-0.5,0.4-0.8s0.1-0.7,0.1-1.1c0-0.3,0-0.6-0.1-0.9s-0.2-0.5-0.4-0.7s-0.4-0.3-0.6-0.4
			s-0.5-0.2-0.8-0.2c-0.3,0-0.6,0.1-0.9,0.2s-0.4,0.3-0.6,0.5s-0.3,0.5-0.3,0.8s-0.1,0.6-0.1,0.9c0,0.3,0,0.6,0.1,0.9
			s0.2,0.5,0.3,0.7c0.1,0.2,0.3,0.4,0.6,0.5S129.5,145.6,129.9,145.6z"/>
		<path style="fill:#939598;" d="M137.3,140.1c0.5,0,0.9,0.1,1.3,0.2s0.7,0.4,1,0.7s0.4,0.6,0.6,1s0.2,0.8,0.2,1.2
			c0,0.4-0.1,0.8-0.2,1.2s-0.3,0.7-0.6,1s-0.6,0.5-1,0.7s-0.8,0.3-1.3,0.3c-0.5,0-0.9-0.1-1.3-0.2s-0.7-0.4-1-0.7s-0.5-0.6-0.6-1
			s-0.2-0.8-0.2-1.2s0.1-0.8,0.2-1.2s0.3-0.7,0.6-1s0.6-0.5,1-0.7S136.8,140.1,137.3,140.1z M139.4,143.3c0-0.3,0-0.6-0.1-0.9
			s-0.2-0.5-0.4-0.8s-0.4-0.4-0.6-0.5s-0.6-0.2-0.9-0.2c-0.3,0-0.6,0.1-0.9,0.2c-0.3,0.1-0.5,0.3-0.6,0.5c-0.2,0.2-0.3,0.5-0.4,0.8
			s-0.1,0.6-0.1,0.9s0,0.6,0.1,0.9s0.2,0.5,0.4,0.7c0.2,0.2,0.4,0.4,0.7,0.5c0.3,0.1,0.6,0.2,0.9,0.2c0.3,0,0.6-0.1,0.9-0.2
			s0.5-0.3,0.6-0.5s0.3-0.5,0.4-0.8S139.4,143.6,139.4,143.3z"/>
		<path style="fill:#939598;" d="M147,145.6c-0.3,0.3-0.7,0.5-1.1,0.6s-0.8,0.2-1.3,0.2c-0.5,0-0.9-0.1-1.3-0.2s-0.7-0.4-0.9-0.6
			s-0.5-0.6-0.6-1s-0.2-0.8-0.2-1.3c0-0.4,0.1-0.8,0.2-1.2s0.3-0.7,0.6-1s0.6-0.5,0.9-0.7s0.8-0.3,1.3-0.3c0.5,0,0.9,0.1,1.2,0.2
			s0.6,0.4,0.8,0.6s0.4,0.6,0.5,0.9s0.2,0.8,0.2,1.2c0,0,0,0.1,0,0.1s0,0.1,0,0.2h-4.6l0,0.3c0,0.3,0.1,0.6,0.2,0.8s0.2,0.5,0.4,0.6
			s0.4,0.3,0.6,0.4c0.2,0.1,0.5,0.1,0.8,0.1c0.4,0,0.8-0.1,1.1-0.2c0.3-0.1,0.7-0.4,0.9-0.6L147,145.6z M146.3,142.7L146.3,142.7
			c0-0.3-0.1-0.6-0.2-0.8s-0.2-0.4-0.3-0.5s-0.3-0.3-0.5-0.4s-0.4-0.1-0.7-0.1c-0.3,0-0.5,0-0.7,0.1s-0.4,0.2-0.6,0.4
			s-0.3,0.4-0.4,0.6c-0.1,0.2-0.2,0.5-0.2,0.7H146.3z"/>
		<path style="fill:#939598;" d="M152.5,141.3c-0.2-0.1-0.5-0.2-0.8-0.3s-0.6-0.1-0.9-0.1c-0.2,0-0.3,0-0.5,0.1
			c-0.2,0-0.3,0.1-0.4,0.2s-0.2,0.2-0.3,0.3s-0.1,0.2-0.1,0.3c0,0.1,0,0.3,0.1,0.4s0.2,0.2,0.3,0.3s0.2,0.1,0.4,0.2s0.3,0.1,0.5,0.2
			c0.2,0,0.3,0.1,0.5,0.1s0.4,0.1,0.5,0.2s0.3,0.1,0.5,0.2c0.2,0.1,0.3,0.2,0.4,0.3c0.1,0.1,0.2,0.3,0.3,0.4s0.1,0.4,0.1,0.6
			c0,0.3-0.1,0.6-0.2,0.8s-0.3,0.4-0.6,0.6s-0.5,0.3-0.8,0.3s-0.6,0.1-0.9,0.1c-0.2,0-0.4,0-0.6,0s-0.4-0.1-0.6-0.1
			s-0.4-0.1-0.5-0.2s-0.3-0.2-0.4-0.3l0.3-0.8c0.1,0.1,0.2,0.2,0.4,0.3s0.3,0.2,0.5,0.2s0.3,0.1,0.5,0.1c0.2,0,0.3,0,0.5,0
			c0.2,0,0.4,0,0.6-0.1s0.3-0.1,0.5-0.2s0.2-0.2,0.3-0.3s0.1-0.3,0.1-0.4c0-0.2,0-0.3-0.1-0.4s-0.2-0.2-0.4-0.3s-0.3-0.2-0.5-0.2
			s-0.4-0.1-0.7-0.2c-0.3-0.1-0.6-0.2-0.8-0.3s-0.4-0.2-0.6-0.4s-0.3-0.3-0.4-0.5s-0.1-0.4-0.1-0.6c0-0.3,0.1-0.5,0.2-0.7
			s0.3-0.4,0.5-0.5s0.4-0.2,0.7-0.3s0.5-0.1,0.8-0.1c0.4,0,0.8,0,1.1,0.1s0.6,0.2,0.9,0.4L152.5,141.3z"/>
		<path style="fill:#939598;" d="M159.2,146.3h-1v-4.6c0-0.2,0-0.4,0-0.5s0-0.3,0-0.5c0-0.2,0-0.3,0-0.5h1l0,0.8
			c0.2-0.3,0.5-0.6,0.8-0.7s0.7-0.2,1.2-0.2c0.4,0,0.8,0.1,1.1,0.2s0.5,0.3,0.7,0.6s0.3,0.6,0.3,0.9s0.1,0.8,0.1,1.2v3.2h-1v-3.1
			c0-0.3,0-0.6,0-0.9s-0.1-0.5-0.2-0.7s-0.2-0.3-0.4-0.5s-0.4-0.2-0.8-0.2c-0.3,0-0.6,0.1-0.8,0.2s-0.4,0.2-0.6,0.4
			s-0.3,0.3-0.4,0.5s-0.1,0.3-0.1,0.5V146.3z"/>
		<path style="fill:#939598;" d="M168,140.1c0.5,0,0.9,0.1,1.3,0.2s0.7,0.4,1,0.7s0.4,0.6,0.6,1s0.2,0.8,0.2,1.2
			c0,0.4-0.1,0.8-0.2,1.2s-0.3,0.7-0.6,1s-0.6,0.5-1,0.7s-0.8,0.3-1.3,0.3c-0.5,0-0.9-0.1-1.3-0.2s-0.7-0.4-1-0.7s-0.5-0.6-0.6-1
			s-0.2-0.8-0.2-1.2s0.1-0.8,0.2-1.2s0.3-0.7,0.6-1s0.6-0.5,1-0.7S167.5,140.1,168,140.1z M170,143.3c0-0.3,0-0.6-0.1-0.9
			s-0.2-0.5-0.4-0.8s-0.4-0.4-0.6-0.5s-0.6-0.2-0.9-0.2c-0.3,0-0.6,0.1-0.9,0.2c-0.3,0.1-0.5,0.3-0.6,0.5c-0.2,0.2-0.3,0.5-0.4,0.8
			s-0.1,0.6-0.1,0.9s0,0.6,0.1,0.9s0.2,0.5,0.4,0.7c0.2,0.2,0.4,0.4,0.7,0.5c0.3,0.1,0.6,0.2,0.9,0.2c0.3,0,0.6-0.1,0.9-0.2
			s0.5-0.3,0.6-0.5s0.3-0.5,0.4-0.8S170,143.6,170,143.3z"/>
		<path style="fill:#939598;" d="M173.1,140.9h-1.2v-0.6h1.2l0-1.6l0.9-0.3v1.9h1.5v0.6H174v3.6c0,0.1,0,0.3,0,0.4s0,0.3,0.1,0.4
			s0.1,0.2,0.2,0.3s0.2,0.1,0.4,0.1c0.1,0,0.3,0,0.4,0s0.3-0.1,0.5-0.1l0,0.7c-0.1,0.1-0.3,0.1-0.4,0.2s-0.3,0-0.5,0
			c-0.3,0-0.6-0.1-0.8-0.2s-0.3-0.3-0.5-0.4s-0.2-0.4-0.2-0.7s-0.1-0.5-0.1-0.8V140.9z"/>
		<path style="fill:#939598;" d="M180.8,140.9h-1.2v-0.6h1.2l0-1.6l0.9-0.3v1.9h1.5v0.6h-1.5v3.6c0,0.1,0,0.3,0,0.4s0,0.3,0.1,0.4
			s0.1,0.2,0.2,0.3s0.2,0.1,0.4,0.1c0.1,0,0.3,0,0.4,0s0.3-0.1,0.5-0.1l0,0.7c-0.1,0.1-0.3,0.1-0.4,0.2s-0.3,0-0.5,0
			c-0.3,0-0.6-0.1-0.8-0.2s-0.3-0.3-0.5-0.4s-0.2-0.4-0.2-0.7s-0.1-0.5-0.1-0.8V140.9z"/>
		<path style="fill:#939598;" d="M187.1,140.1c0.2,0,0.5,0,0.7,0.1s0.4,0.1,0.6,0.2s0.3,0.2,0.5,0.3s0.3,0.3,0.4,0.4l0-0.8h1l0,1.5
			v4.5h-1l0-0.8c-0.1,0.1-0.2,0.2-0.4,0.4s-0.3,0.2-0.5,0.3s-0.4,0.2-0.6,0.2s-0.4,0.1-0.7,0.1c-0.3,0-0.6,0-0.9-0.1
			s-0.5-0.2-0.7-0.4s-0.4-0.3-0.6-0.5s-0.3-0.4-0.4-0.7s-0.2-0.5-0.2-0.7s-0.1-0.5-0.1-0.8c0-0.4,0.1-0.8,0.2-1.1s0.3-0.7,0.5-1
			s0.5-0.5,0.9-0.7S186.6,140.1,187.1,140.1z M187.2,145.6c0.3,0,0.5-0.1,0.8-0.2s0.5-0.3,0.6-0.5s0.3-0.5,0.4-0.8s0.2-0.7,0.2-1.1
			c0-0.3,0-0.6-0.1-0.9s-0.2-0.5-0.4-0.7s-0.4-0.3-0.6-0.4s-0.5-0.2-0.8-0.2c-0.2,0-0.5,0-0.6,0.1s-0.4,0.2-0.5,0.3
			s-0.3,0.2-0.4,0.4s-0.2,0.3-0.3,0.5s-0.1,0.4-0.2,0.5s0,0.4,0,0.6c0,0.2,0,0.4,0,0.6s0.1,0.4,0.1,0.5s0.1,0.3,0.2,0.5
			s0.2,0.3,0.4,0.4s0.3,0.2,0.5,0.3S186.9,145.6,187.2,145.6z"/>
		<path style="fill:#939598;" d="M193,137.5v5.3l2.7-2.6h1.3l-3.1,2.8c0.6,0.5,1.1,1.1,1.7,1.6s1.1,1.1,1.7,1.6H196l-3-2.9v2.9h-1
			v-8.7H193z"/>
		<path style="fill:#939598;" d="M203.2,145.6c-0.3,0.3-0.7,0.5-1.1,0.6s-0.8,0.2-1.3,0.2c-0.5,0-0.9-0.1-1.3-0.2s-0.7-0.4-0.9-0.6
			s-0.5-0.6-0.6-1s-0.2-0.8-0.2-1.3c0-0.4,0.1-0.8,0.2-1.2s0.3-0.7,0.6-1s0.6-0.5,0.9-0.7s0.8-0.3,1.3-0.3c0.5,0,0.9,0.1,1.2,0.2
			s0.6,0.4,0.8,0.6s0.4,0.6,0.5,0.9s0.2,0.8,0.2,1.2c0,0,0,0.1,0,0.1s0,0.1,0,0.2h-4.6l0,0.3c0,0.3,0.1,0.6,0.2,0.8s0.2,0.5,0.4,0.6
			s0.4,0.3,0.6,0.4c0.2,0.1,0.5,0.1,0.8,0.1c0.4,0,0.8-0.1,1.1-0.2c0.3-0.1,0.7-0.4,0.9-0.6L203.2,145.6z M202.4,142.7L202.4,142.7
			c0-0.3-0.1-0.6-0.2-0.8s-0.2-0.4-0.3-0.5s-0.3-0.3-0.5-0.4s-0.4-0.1-0.7-0.1c-0.3,0-0.5,0-0.7,0.1s-0.4,0.2-0.6,0.4
			s-0.3,0.4-0.4,0.6c-0.1,0.2-0.2,0.5-0.2,0.7H202.4z"/>
		<path style="fill:#939598;" d="M208.4,140.3h1v6h-1V140.3z M209.4,137.7v0.9h-0.9v-0.9H209.4z"/>
		<path style="fill:#939598;" d="M212.4,146.3h-1v-4.6c0-0.2,0-0.4,0-0.5s0-0.3,0-0.5c0-0.2,0-0.3,0-0.5h1l0,0.8
			c0.2-0.3,0.5-0.6,0.8-0.7s0.7-0.2,1.2-0.2c0.4,0,0.8,0.1,1.1,0.2s0.5,0.3,0.7,0.6s0.3,0.6,0.3,0.9s0.1,0.8,0.1,1.2v3.2h-1v-3.1
			c0-0.3,0-0.6,0-0.9s-0.1-0.5-0.2-0.7s-0.2-0.3-0.4-0.5s-0.4-0.2-0.8-0.2c-0.3,0-0.6,0.1-0.8,0.2s-0.4,0.2-0.6,0.4
			s-0.3,0.3-0.4,0.5s-0.1,0.3-0.1,0.5V146.3z"/>
		<path style="fill:#939598;" d="M219,140.9h-1.2v-0.6h1.2l0-1.6l0.9-0.3v1.9h1.5v0.6h-1.5v3.6c0,0.1,0,0.3,0,0.4s0,0.3,0.1,0.4
			s0.1,0.2,0.2,0.3s0.2,0.1,0.4,0.1c0.1,0,0.3,0,0.4,0s0.3-0.1,0.5-0.1l0,0.7c-0.1,0.1-0.3,0.1-0.4,0.2s-0.3,0-0.5,0
			c-0.3,0-0.6-0.1-0.8-0.2s-0.3-0.3-0.5-0.4s-0.2-0.4-0.2-0.7s-0.1-0.5-0.1-0.8V140.9z"/>
		<path style="fill:#939598;" d="M225.3,140.1c0.5,0,0.9,0.1,1.3,0.2s0.7,0.4,1,0.7s0.4,0.6,0.6,1s0.2,0.8,0.2,1.2
			c0,0.4-0.1,0.8-0.2,1.2s-0.3,0.7-0.6,1s-0.6,0.5-1,0.7s-0.8,0.3-1.3,0.3c-0.5,0-0.9-0.1-1.3-0.2s-0.7-0.4-1-0.7s-0.5-0.6-0.6-1
			s-0.2-0.8-0.2-1.2s0.1-0.8,0.2-1.2s0.3-0.7,0.6-1s0.6-0.5,1-0.7S224.8,140.1,225.3,140.1z M227.4,143.3c0-0.3,0-0.6-0.1-0.9
			s-0.2-0.5-0.4-0.8s-0.4-0.4-0.6-0.5s-0.6-0.2-0.9-0.2c-0.3,0-0.6,0.1-0.9,0.2c-0.3,0.1-0.5,0.3-0.6,0.5c-0.2,0.2-0.3,0.5-0.4,0.8
			s-0.1,0.6-0.1,0.9s0,0.6,0.1,0.9s0.2,0.5,0.4,0.7c0.2,0.2,0.4,0.4,0.7,0.5c0.3,0.1,0.6,0.2,0.9,0.2c0.3,0,0.6-0.1,0.9-0.2
			s0.5-0.3,0.6-0.5s0.3-0.5,0.4-0.8S227.4,143.6,227.4,143.3z"/>
		<path style="fill:#939598;" d="M3.5,154.5c0.2,0,0.5,0,0.7,0.1s0.4,0.1,0.6,0.2s0.3,0.2,0.5,0.3s0.3,0.3,0.4,0.4l0-0.8h1l0,1.5
			v4.5h-1l0-0.8c-0.1,0.1-0.2,0.2-0.4,0.4s-0.3,0.2-0.5,0.3s-0.4,0.2-0.6,0.2s-0.4,0.1-0.7,0.1c-0.3,0-0.6,0-0.9-0.1
			s-0.5-0.2-0.7-0.4s-0.4-0.3-0.6-0.5s-0.3-0.4-0.4-0.7s-0.2-0.5-0.2-0.7s-0.1-0.5-0.1-0.8c0-0.4,0.1-0.8,0.2-1.1s0.3-0.7,0.5-1
			s0.5-0.5,0.9-0.7S3,154.5,3.5,154.5z M3.6,160c0.3,0,0.5-0.1,0.8-0.2s0.5-0.3,0.6-0.5s0.3-0.5,0.4-0.8s0.2-0.7,0.2-1.1
			c0-0.3,0-0.6-0.1-0.9s-0.2-0.5-0.4-0.7s-0.4-0.3-0.6-0.4s-0.5-0.2-0.8-0.2c-0.2,0-0.5,0-0.6,0.1s-0.4,0.2-0.5,0.3
			s-0.3,0.2-0.4,0.4s-0.2,0.3-0.3,0.5s-0.1,0.4-0.2,0.5s0,0.4,0,0.6c0,0.2,0,0.4,0,0.6s0.1,0.4,0.1,0.5s0.1,0.3,0.2,0.5
			s0.2,0.3,0.4,0.4s0.3,0.2,0.5,0.3S3.3,160,3.6,160z"/>
		<path style="fill:#939598;" d="M12.5,156c-0.2-0.2-0.4-0.4-0.7-0.5s-0.6-0.2-0.9-0.2c-0.3,0-0.6,0.1-0.9,0.2s-0.5,0.3-0.6,0.5
			s-0.3,0.5-0.4,0.8s-0.1,0.6-0.1,0.9c0,0.3,0,0.6,0.1,0.9s0.2,0.5,0.4,0.7s0.4,0.4,0.6,0.5s0.6,0.2,0.9,0.2c0.7,0,1.3-0.2,1.8-0.7
			l0.3,0.8c-0.3,0.2-0.6,0.4-1,0.5s-0.7,0.2-1.2,0.2c-0.5,0-0.9-0.1-1.3-0.2s-0.7-0.4-0.9-0.7c-0.2-0.3-0.4-0.6-0.6-1
			c-0.1-0.4-0.2-0.8-0.2-1.2c0-0.4,0.1-0.9,0.2-1.2c0.1-0.4,0.3-0.7,0.6-1c0.3-0.3,0.6-0.5,0.9-0.7s0.8-0.3,1.3-0.3
			c0.5,0,0.9,0.1,1.2,0.2s0.6,0.4,0.8,0.6L12.5,156z"/>
		<path style="fill:#939598;" d="M18.7,156c-0.2-0.2-0.4-0.4-0.7-0.5s-0.6-0.2-0.9-0.2c-0.3,0-0.6,0.1-0.9,0.2s-0.5,0.3-0.6,0.5
			s-0.3,0.5-0.4,0.8s-0.1,0.6-0.1,0.9c0,0.3,0,0.6,0.1,0.9s0.2,0.5,0.4,0.7s0.4,0.4,0.6,0.5s0.6,0.2,0.9,0.2c0.7,0,1.3-0.2,1.8-0.7
			l0.3,0.8c-0.3,0.2-0.6,0.4-1,0.5s-0.7,0.2-1.2,0.2c-0.5,0-0.9-0.1-1.3-0.2s-0.7-0.4-0.9-0.7c-0.2-0.3-0.4-0.6-0.6-1
			c-0.1-0.4-0.2-0.8-0.2-1.2c0-0.4,0.1-0.9,0.2-1.2c0.1-0.4,0.3-0.7,0.6-1c0.3-0.3,0.6-0.5,0.9-0.7s0.8-0.3,1.3-0.3
			c0.5,0,0.9,0.1,1.2,0.2s0.6,0.4,0.8,0.6L18.7,156z"/>
		<path style="fill:#939598;" d="M23.3,154.5c0.5,0,0.9,0.1,1.3,0.2s0.7,0.4,1,0.7s0.4,0.6,0.6,1s0.2,0.8,0.2,1.2
			c0,0.4-0.1,0.8-0.2,1.2s-0.3,0.7-0.6,1s-0.6,0.5-1,0.7s-0.8,0.3-1.3,0.3c-0.5,0-0.9-0.1-1.3-0.2s-0.7-0.4-1-0.7s-0.5-0.6-0.6-1
			s-0.2-0.8-0.2-1.2s0.1-0.8,0.2-1.2s0.3-0.7,0.6-1s0.6-0.5,1-0.7S22.8,154.5,23.3,154.5z M25.3,157.7c0-0.3,0-0.6-0.1-0.9
			s-0.2-0.5-0.4-0.8s-0.4-0.4-0.6-0.5c-0.3-0.1-0.6-0.2-0.9-0.2c-0.3,0-0.6,0.1-0.9,0.2c-0.3,0.1-0.5,0.3-0.6,0.5
			c-0.2,0.2-0.3,0.5-0.4,0.8s-0.1,0.6-0.1,0.9s0,0.6,0.1,0.9s0.2,0.5,0.4,0.7c0.2,0.2,0.4,0.4,0.7,0.5c0.3,0.1,0.6,0.2,0.9,0.2
			c0.3,0,0.6-0.1,0.9-0.2c0.3-0.1,0.5-0.3,0.6-0.5s0.3-0.5,0.4-0.8S25.3,158,25.3,157.7z"/>
		<path style="fill:#939598;" d="M32,154.7h1v4.6c0,0.3,0,0.5,0,0.7s0,0.5,0,0.7h-1l0-0.8c-0.5,0.6-1.1,0.9-2,0.9
			c-0.3,0-0.6,0-0.8-0.1s-0.4-0.2-0.6-0.3s-0.3-0.3-0.4-0.4s-0.2-0.3-0.3-0.5s-0.1-0.4-0.1-0.6s0-0.4,0-0.6v-3.7h1v3.7
			c0,0.6,0.1,1,0.4,1.3s0.6,0.4,1.1,0.4c0.3,0,0.5-0.1,0.7-0.2s0.4-0.2,0.6-0.4s0.3-0.4,0.3-0.6s0.1-0.5,0.1-0.7V154.7z"/>
		<path style="fill:#939598;" d="M36,160.7h-1v-4.6c0-0.2,0-0.4,0-0.5s0-0.3,0-0.5c0-0.2,0-0.3,0-0.5h1l0,0.8
			c0.2-0.3,0.5-0.6,0.8-0.7s0.7-0.2,1.2-0.2c0.4,0,0.8,0.1,1.1,0.2s0.5,0.3,0.7,0.6s0.3,0.6,0.3,0.9s0.1,0.8,0.1,1.2v3.2h-1v-3.1
			c0-0.3,0-0.6,0-0.9s-0.1-0.5-0.2-0.7s-0.2-0.3-0.4-0.5s-0.4-0.2-0.8-0.2c-0.3,0-0.6,0.1-0.8,0.2s-0.4,0.2-0.6,0.4
			s-0.3,0.3-0.4,0.5s-0.1,0.3-0.1,0.5V160.7z"/>
		<path style="fill:#939598;" d="M42.6,155.3h-1.2v-0.6h1.2l0-1.6l0.9-0.3v1.9H45v0.6h-1.5v3.6c0,0.1,0,0.3,0,0.4s0,0.3,0.1,0.4
			s0.1,0.2,0.2,0.3s0.2,0.1,0.4,0.1c0.1,0,0.3,0,0.4,0s0.3-0.1,0.5-0.1l0,0.7c-0.1,0.1-0.3,0.1-0.4,0.2s-0.3,0-0.5,0
			c-0.3,0-0.6-0.1-0.8-0.2s-0.3-0.3-0.5-0.4s-0.2-0.4-0.2-0.7s-0.1-0.5-0.1-0.8V155.3z"/>
		<path style="fill:#939598;" d="M50.1,154.7l1.5,4.3c0,0,0,0.1,0,0.2s0,0.1,0.1,0.2c0,0.1,0,0.1,0.1,0.2c0-0.1,0-0.1,0.1-0.2
			c0-0.1,0-0.1,0.1-0.2s0-0.1,0.1-0.2l1.6-4.4h1l1.5,4.3c0,0,0,0.1,0,0.2s0,0.1,0.1,0.2c0,0.1,0,0.1,0.1,0.2c0-0.1,0.1-0.1,0.1-0.2
			c0-0.1,0-0.1,0.1-0.2s0-0.1,0.1-0.2l1.4-4.3h1l-2.2,6h-0.9l-1.6-4.9l-1.8,4.9h-0.9l-2.1-6H50.1z"/>
		<path style="fill:#939598;" d="M62.3,154.5c0.2,0,0.5,0,0.7,0.1s0.4,0.1,0.6,0.2s0.3,0.2,0.5,0.3s0.3,0.3,0.4,0.4l0-0.8h1l0,1.5
			v4.5h-1l0-0.8c-0.1,0.1-0.2,0.2-0.4,0.4s-0.3,0.2-0.5,0.3s-0.4,0.2-0.6,0.2s-0.4,0.1-0.7,0.1c-0.3,0-0.6,0-0.9-0.1
			s-0.5-0.2-0.7-0.4s-0.4-0.3-0.6-0.5s-0.3-0.4-0.4-0.7s-0.2-0.5-0.2-0.7s-0.1-0.5-0.1-0.8c0-0.4,0.1-0.8,0.2-1.1s0.3-0.7,0.5-1
			s0.5-0.5,0.9-0.7S61.8,154.5,62.3,154.5z M62.4,160c0.3,0,0.5-0.1,0.8-0.2s0.5-0.3,0.6-0.5s0.3-0.5,0.4-0.8s0.2-0.7,0.2-1.1
			c0-0.3,0-0.6-0.1-0.9s-0.2-0.5-0.4-0.7s-0.4-0.3-0.6-0.4s-0.5-0.2-0.8-0.2c-0.2,0-0.5,0-0.6,0.1s-0.4,0.2-0.5,0.3
			s-0.3,0.2-0.4,0.4s-0.2,0.3-0.3,0.5s-0.1,0.4-0.2,0.5s0,0.4,0,0.6c0,0.2,0,0.4,0,0.6s0.1,0.4,0.1,0.5s0.1,0.3,0.2,0.5
			s0.2,0.3,0.4,0.4s0.3,0.2,0.5,0.3S62.1,160,62.4,160z"/>
		<path style="fill:#939598;" d="M67.6,155.3h-1.2v-0.6h1.2l0-1.6l0.9-0.3v1.9H70v0.6h-1.5v3.6c0,0.1,0,0.3,0,0.4s0,0.3,0.1,0.4
			s0.1,0.2,0.2,0.3s0.2,0.1,0.4,0.1c0.1,0,0.3,0,0.4,0s0.3-0.1,0.5-0.1l0,0.7c-0.1,0.1-0.3,0.1-0.4,0.2s-0.3,0-0.5,0
			c-0.3,0-0.6-0.1-0.8-0.2s-0.3-0.3-0.5-0.4s-0.2-0.4-0.2-0.7s-0.1-0.5-0.1-0.8V155.3z"/>
		<path style="fill:#939598;" d="M76.4,160c-0.3,0.3-0.7,0.5-1.1,0.6s-0.8,0.2-1.3,0.2c-0.5,0-0.9-0.1-1.3-0.2s-0.7-0.4-0.9-0.6
			s-0.5-0.6-0.6-1s-0.2-0.8-0.2-1.3c0-0.4,0.1-0.8,0.2-1.2s0.3-0.7,0.6-1s0.6-0.5,0.9-0.7s0.8-0.3,1.3-0.3c0.5,0,0.9,0.1,1.2,0.2
			s0.6,0.4,0.8,0.6s0.4,0.6,0.5,0.9s0.2,0.8,0.2,1.2c0,0,0,0.1,0,0.1s0,0.1,0,0.2H72l0,0.3c0,0.3,0.1,0.6,0.2,0.8s0.2,0.5,0.4,0.6
			s0.4,0.3,0.6,0.4c0.2,0.1,0.5,0.1,0.8,0.1c0.4,0,0.8-0.1,1.1-0.2c0.3-0.1,0.7-0.4,0.9-0.6L76.4,160z M75.6,157.1L75.6,157.1
			c0-0.3-0.1-0.6-0.2-0.8s-0.2-0.4-0.3-0.5s-0.3-0.3-0.5-0.4c-0.2-0.1-0.4-0.1-0.7-0.1c-0.3,0-0.5,0-0.7,0.1s-0.4,0.2-0.6,0.4
			s-0.3,0.4-0.4,0.6c-0.1,0.2-0.2,0.5-0.2,0.7H75.6z"/>
		<path style="fill:#939598;" d="M79.1,160.7h-1v-4.6c0-0.2,0-0.5,0-0.7s0-0.5,0-0.7h1l0,0.9c0.2-0.3,0.4-0.6,0.7-0.8
			s0.6-0.3,0.9-0.3c0.2,0,0.4,0,0.6,0.1l0,0.9c-0.1,0-0.2-0.1-0.3-0.1s-0.2,0-0.4,0c-0.2,0-0.4,0-0.6,0.1s-0.4,0.2-0.5,0.4
			s-0.2,0.4-0.3,0.6s-0.1,0.5-0.1,0.8V160.7z"/>
		<path style="fill:#939598;" d="M90.2,156c-0.2-0.2-0.4-0.4-0.7-0.5s-0.6-0.2-0.9-0.2c-0.3,0-0.6,0.1-0.9,0.2s-0.5,0.3-0.6,0.5
			s-0.3,0.5-0.4,0.8s-0.1,0.6-0.1,0.9c0,0.3,0,0.6,0.1,0.9s0.2,0.5,0.4,0.7s0.4,0.4,0.6,0.5s0.6,0.2,0.9,0.2c0.7,0,1.3-0.2,1.8-0.7
			l0.3,0.8c-0.3,0.2-0.6,0.4-1,0.5s-0.7,0.2-1.2,0.2c-0.5,0-0.9-0.1-1.3-0.2s-0.7-0.4-0.9-0.7s-0.4-0.6-0.6-1s-0.2-0.8-0.2-1.2
			c0-0.4,0.1-0.9,0.2-1.2s0.3-0.7,0.6-1s0.6-0.5,0.9-0.7s0.8-0.3,1.3-0.3c0.5,0,0.9,0.1,1.2,0.2s0.6,0.4,0.8,0.6L90.2,156z"/>
		<path style="fill:#939598;" d="M94.8,154.5c0.5,0,0.9,0.1,1.3,0.2s0.7,0.4,1,0.7s0.4,0.6,0.6,1s0.2,0.8,0.2,1.2
			c0,0.4-0.1,0.8-0.2,1.2s-0.3,0.7-0.6,1s-0.6,0.5-1,0.7s-0.8,0.3-1.3,0.3c-0.5,0-0.9-0.1-1.3-0.2s-0.7-0.4-1-0.7s-0.5-0.6-0.6-1
			s-0.2-0.8-0.2-1.2s0.1-0.8,0.2-1.2s0.3-0.7,0.6-1s0.6-0.5,1-0.7S94.3,154.5,94.8,154.5z M96.8,157.7c0-0.3,0-0.6-0.1-0.9
			s-0.2-0.5-0.4-0.8s-0.4-0.4-0.6-0.5c-0.3-0.1-0.6-0.2-0.9-0.2c-0.3,0-0.6,0.1-0.9,0.2c-0.3,0.1-0.5,0.3-0.6,0.5
			c-0.2,0.2-0.3,0.5-0.4,0.8s-0.1,0.6-0.1,0.9s0,0.6,0.1,0.9s0.2,0.5,0.4,0.7c0.2,0.2,0.4,0.4,0.7,0.5c0.3,0.1,0.6,0.2,0.9,0.2
			c0.3,0,0.6-0.1,0.9-0.2c0.3-0.1,0.5-0.3,0.6-0.5s0.3-0.5,0.4-0.8S96.8,158,96.8,157.7z"/>
		<path style="fill:#939598;" d="M100.4,160.7h-1v-4.6c0-0.2,0-0.4,0-0.5s0-0.3,0-0.5c0-0.2,0-0.3,0-0.5h1l0,0.8
			c0.2-0.3,0.5-0.6,0.8-0.7s0.7-0.2,1.2-0.2c0.4,0,0.8,0.1,1.1,0.2s0.5,0.3,0.7,0.6s0.3,0.6,0.3,0.9s0.1,0.8,0.1,1.2v3.2h-1v-3.1
			c0-0.3,0-0.6,0-0.9s-0.1-0.5-0.2-0.7s-0.2-0.3-0.4-0.5s-0.4-0.2-0.8-0.2c-0.3,0-0.6,0.1-0.8,0.2s-0.4,0.2-0.6,0.4
			s-0.3,0.3-0.4,0.5s-0.1,0.3-0.1,0.5V160.7z"/>
		<path style="fill:#939598;" d="M110.2,155.7c-0.2-0.1-0.5-0.2-0.8-0.3c-0.3-0.1-0.6-0.1-0.9-0.1c-0.2,0-0.3,0-0.5,0.1
			c-0.2,0-0.3,0.1-0.4,0.2s-0.2,0.2-0.3,0.3s-0.1,0.2-0.1,0.3c0,0.1,0,0.3,0.1,0.4s0.2,0.2,0.3,0.3s0.2,0.1,0.4,0.2
			c0.2,0.1,0.3,0.1,0.5,0.2c0.2,0,0.3,0.1,0.5,0.1s0.4,0.1,0.5,0.2s0.3,0.1,0.5,0.2c0.2,0.1,0.3,0.2,0.4,0.3
			c0.1,0.1,0.2,0.3,0.3,0.4s0.1,0.4,0.1,0.6c0,0.3-0.1,0.6-0.2,0.8s-0.3,0.4-0.6,0.6s-0.5,0.3-0.8,0.3s-0.6,0.1-0.9,0.1
			c-0.2,0-0.4,0-0.6,0s-0.4-0.1-0.6-0.1s-0.4-0.1-0.5-0.2s-0.3-0.2-0.4-0.3l0.3-0.8c0.1,0.1,0.2,0.2,0.4,0.3s0.3,0.2,0.5,0.2
			s0.3,0.1,0.5,0.1c0.2,0,0.3,0,0.5,0c0.2,0,0.4,0,0.6-0.1s0.3-0.1,0.5-0.2c0.1-0.1,0.2-0.2,0.3-0.3s0.1-0.3,0.1-0.4
			c0-0.2,0-0.3-0.1-0.4s-0.2-0.2-0.4-0.3s-0.3-0.2-0.5-0.2c-0.2-0.1-0.4-0.1-0.7-0.2c-0.3-0.1-0.6-0.2-0.8-0.3
			c-0.2-0.1-0.4-0.2-0.6-0.4s-0.3-0.3-0.4-0.5s-0.1-0.4-0.1-0.6c0-0.3,0.1-0.5,0.2-0.7s0.3-0.4,0.5-0.5c0.2-0.1,0.4-0.2,0.7-0.3
			c0.3-0.1,0.5-0.1,0.8-0.1c0.4,0,0.8,0,1.1,0.1c0.3,0.1,0.6,0.2,0.9,0.4L110.2,155.7z"/>
		<path style="fill:#939598;" d="M116.6,154.7h1v4.6c0,0.3,0,0.5,0,0.7s0,0.5,0,0.7h-1l0-0.8c-0.5,0.6-1.1,0.9-2,0.9
			c-0.3,0-0.6,0-0.8-0.1c-0.2-0.1-0.4-0.2-0.6-0.3s-0.3-0.3-0.4-0.4s-0.2-0.3-0.3-0.5s-0.1-0.4-0.1-0.6s0-0.4,0-0.6v-3.7h1v3.7
			c0,0.6,0.1,1,0.4,1.3s0.6,0.4,1.1,0.4c0.3,0,0.5-0.1,0.7-0.2s0.4-0.2,0.6-0.4s0.3-0.4,0.3-0.6s0.1-0.5,0.1-0.7V154.7z"/>
		<path style="fill:#939598;" d="M120.5,154.7l0,0.8c0.2-0.3,0.5-0.6,0.8-0.7s0.7-0.2,1.1-0.2c0.2,0,0.4,0,0.6,0.1s0.4,0.1,0.6,0.2
			s0.3,0.2,0.4,0.4s0.2,0.3,0.3,0.5c0.2-0.4,0.5-0.7,0.9-0.9s0.8-0.3,1.3-0.3c0.4,0,0.8,0.1,1.1,0.2s0.5,0.3,0.7,0.5
			s0.3,0.5,0.3,0.8s0.1,0.6,0.1,0.9v3.7h-1v-3.3c0-0.2,0-0.5,0-0.8s-0.1-0.5-0.2-0.7s-0.2-0.4-0.4-0.5s-0.5-0.2-0.8-0.2
			c-0.3,0-0.5,0.1-0.7,0.2s-0.4,0.3-0.5,0.4s-0.2,0.4-0.3,0.6s-0.1,0.5-0.1,0.7v3.4h-1V157c0-0.2,0-0.4-0.1-0.6s-0.1-0.4-0.3-0.5
			s-0.3-0.3-0.5-0.4s-0.4-0.1-0.7-0.1s-0.5,0.1-0.7,0.2s-0.4,0.2-0.5,0.4s-0.2,0.4-0.3,0.6s-0.1,0.5-0.1,0.7v3.4h-1v-4.5
			c0-0.3,0-0.5,0-0.8s0-0.5,0-0.8H120.5z"/>
		<path style="fill:#939598;" d="M131.6,163.2h-1v-6.9c0-0.1,0-0.2,0-0.3s0-0.2,0-0.4s0-0.3,0-0.4s0-0.3,0-0.4h1l0,0.9
			c0.2-0.3,0.5-0.6,0.9-0.8s0.7-0.3,1.1-0.3c0.5,0,0.9,0.1,1.2,0.2s0.6,0.4,0.9,0.7s0.4,0.6,0.5,1s0.2,0.8,0.2,1.2
			c0,0.4-0.1,0.8-0.2,1.2s-0.3,0.7-0.5,1s-0.5,0.5-0.9,0.7s-0.7,0.3-1.2,0.3c-0.8,0-1.5-0.3-2-0.9V163.2z M131.6,157.8
			c0,0.3,0,0.6,0.1,0.9s0.2,0.5,0.4,0.7s0.4,0.4,0.6,0.5s0.5,0.2,0.8,0.2c0.3,0,0.6-0.1,0.8-0.2s0.4-0.3,0.6-0.5s0.3-0.5,0.3-0.8
			s0.1-0.6,0.1-0.9c0-0.3,0-0.6-0.1-0.9s-0.2-0.5-0.3-0.7s-0.3-0.4-0.6-0.5s-0.5-0.2-0.9-0.2c-0.4,0-0.7,0.1-0.9,0.2
			s-0.4,0.3-0.6,0.5s-0.3,0.5-0.3,0.8S131.6,157.5,131.6,157.8z"/>
		<path style="fill:#939598;" d="M138.4,155.3h-1.2v-0.6h1.2l0-1.6l0.9-0.3v1.9h1.5v0.6h-1.5v3.6c0,0.1,0,0.3,0,0.4s0,0.3,0.1,0.4
			s0.1,0.2,0.2,0.3s0.2,0.1,0.4,0.1c0.1,0,0.3,0,0.4,0s0.3-0.1,0.5-0.1l0,0.7c-0.1,0.1-0.3,0.1-0.4,0.2s-0.3,0-0.5,0
			c-0.3,0-0.6-0.1-0.8-0.2s-0.3-0.3-0.5-0.4s-0.2-0.4-0.2-0.7s-0.1-0.5-0.1-0.8V155.3z"/>
		<path style="fill:#939598;" d="M142.2,154.7h1v6h-1V154.7z M143.2,152.1v0.9h-0.9v-0.9H143.2z"/>
		<path style="fill:#939598;" d="M147.8,154.5c0.5,0,0.9,0.1,1.3,0.2s0.7,0.4,1,0.7s0.4,0.6,0.6,1s0.2,0.8,0.2,1.2
			c0,0.4-0.1,0.8-0.2,1.2s-0.3,0.7-0.6,1s-0.6,0.5-1,0.7s-0.8,0.3-1.3,0.3c-0.5,0-0.9-0.1-1.3-0.2s-0.7-0.4-1-0.7s-0.5-0.6-0.6-1
			s-0.2-0.8-0.2-1.2s0.1-0.8,0.2-1.2s0.3-0.7,0.6-1s0.6-0.5,1-0.7S147.3,154.5,147.8,154.5z M149.8,157.7c0-0.3,0-0.6-0.1-0.9
			s-0.2-0.5-0.4-0.8s-0.4-0.4-0.6-0.5s-0.6-0.2-0.9-0.2c-0.3,0-0.6,0.1-0.9,0.2c-0.3,0.1-0.5,0.3-0.6,0.5c-0.2,0.2-0.3,0.5-0.4,0.8
			s-0.1,0.6-0.1,0.9s0,0.6,0.1,0.9s0.2,0.5,0.4,0.7c0.2,0.2,0.4,0.4,0.7,0.5c0.3,0.1,0.6,0.2,0.9,0.2c0.3,0,0.6-0.1,0.9-0.2
			s0.5-0.3,0.6-0.5s0.3-0.5,0.4-0.8S149.8,158,149.8,157.7z"/>
		<path style="fill:#939598;" d="M153.4,160.7h-1v-4.6c0-0.2,0-0.4,0-0.5s0-0.3,0-0.5c0-0.2,0-0.3,0-0.5h1l0,0.8
			c0.2-0.3,0.5-0.6,0.8-0.7s0.7-0.2,1.2-0.2c0.4,0,0.8,0.1,1.1,0.2s0.5,0.3,0.7,0.6s0.3,0.6,0.3,0.9s0.1,0.8,0.1,1.2v3.2h-1v-3.1
			c0-0.3,0-0.6,0-0.9s-0.1-0.5-0.2-0.7s-0.2-0.3-0.4-0.5s-0.4-0.2-0.8-0.2c-0.3,0-0.6,0.1-0.8,0.2s-0.4,0.2-0.6,0.4
			s-0.3,0.3-0.4,0.5s-0.1,0.3-0.1,0.5V160.7z"/>
	</g>
	<g>
		<g>
			<circle style="fill:none;stroke:#58595B;stroke-miterlimit:10;stroke-dasharray:1.963,1.963;" cx="628" cy="44" r="10"/>
		</g>
		<g>
			<circle style="fill:none;stroke:#58595B;stroke-miterlimit:10;stroke-dasharray:2.0133,2.0133;" cx="628" cy="29" r="25"/>
		</g>
		<line style="fill:none;stroke:#A7A9AC;stroke-miterlimit:10;" x1="638" y1="35.5" x2="677" y2="35.5"/>
		<line style="fill:none;stroke:#A7A9AC;stroke-miterlimit:10;" x1="638" y1="5.5" x2="677" y2="5.5"/>
		<rect x="681.7" y="3.1" style="fill:none;" width="75.2" height="19.1"/>
		<text transform="matrix(1 0 0 1 681.666 11.8838)" style="fill:#808285; font-family:'Muli'; font-size:12;">5 CCF</text>
		<rect x="681.7" y="34.3" style="fill:none;" width="75.2" height="19.1"/>
		<text transform="matrix(1 0 0 1 681.666 43.0811)" style="fill:#808285; font-family:'Muli'; font-size:12;">1 CCF</text>
	</g>
	<g>
		<circle style="fill:#CC6633;" cx="628" cy="91" r="12"/>
		<rect x="652" y="86.9" style="fill:none;" width="184.2" height="19.1"/>
		<text transform="matrix(1 0 0 1 652 95.6943)" style="fill:#939598; font-family:'Muli'; font-size:12;">Agency Surveyed User</text>
	</g>
	<rect x="604" y="152" style="fill:none;" width="232.5" height="24.1"/>
	<text transform="matrix(1 0 0 1 604 160.7207)" style="fill:#939598; font-family:'Muli'; font-size:12;">Note: agency data is as given.</text>
	<rect y="199.3" style="fill:none;" width="233.1" height="19.1"/>
	<text transform="matrix(1 0 0 1 44.4604 209.5078)" style="fill:#939598; font-family:'Muli'; font-size:14;">WHAT IS A CCF/HCF?  </text>
	<rect y="230.3" style="fill:none;" width="262.7" height="19.1"/>
	<text transform="matrix(1 0 0 1 0 241.9434)"><tspan x="0" y="0" style="fill:#231F20; font-family:'Muli'; font-size:16;">1</tspan><tspan x="9.3" y="0" style="fill:#939598; font-family:'Muli'; font-size:16;"> CCF/HCF = </tspan><tspan x="103" y="0" style="fill:#231F20; font-family:'Muli'; font-size:16;">100</tspan><tspan x="130.9" y="0" style="fill:#939598; font-family:'Muli'; font-size:16;"> Cubic Feet =   </tspan></text>
	<g>
		<rect y="284.3" style="fill:none;" width="35.2" height="19.1"/>
		<text transform="matrix(1 0 0 1 0 295.9961)" style="fill:#231F20; font-family:'Muli'; font-size:16;">748  </text>
		<rect x="70" y="284.3" style="fill:none;" width="114.2" height="19.1"/>
		<text transform="matrix(1 0 0 1 70.0322 295.9961)" style="fill:#939598; font-family:'Muli'; font-size:16;">gallons  </text>
		<g>
			<path style="fill:#D8A271;" d="M48,260.7c0,0-0.3,1.1,0.2,1.5c0.5,0.4,0.4,0.9,0.4,0.9s5.2,2.5,5.9,3.5c0.7,1,3,10.5,3,10.5
				c3.2,7.8,0.9,15.4-0.5,17.2c-1.4,1.8-7.9,2.1-8.1,1.7c-0.2-0.3-1.3-1.6-1.8-1.3c-0.5,0.3-1.9,1.7-1.9,1.7l-8.8-1.9
				c-7-6.6-0.9-26-0.7-26.1c0.2-0.1,7-4.9,7.2-5.3c-0.5-0.5,0-1,0-1v-1.6C46.6,259.7,48,260.7,48,260.7z M52.7,268.1
				c-0.9-0.7-2.1-0.6-2.1,0.8c-0.1,1.4,0.7,7.1,1.6,7.7c0.9,0.6,1.6,0.2,1.8-0.9C54.2,274.5,52.7,268.1,52.7,268.1z"/>
		</g>
	</g>
	<g>
		<g>
			<rect y="413.7" style="fill:none;" width="27" height="19.1"/>
			<text transform="matrix(1 0 0 1 0 425.3604)" style="fill:#231F20; font-family:'Muli'; font-size:16;">3  </text>
		</g>
		<g>
			<rect x="70.2" y="413.7" style="fill:none;" width="204.8" height="19.1"/>
			<text transform="matrix(1 0 0 1 70.25 425.3604)" style="fill:#939598; font-family:'Muli'; font-size:16;">refrigerators  </text>
		</g>
		<g>
			<g>
				<path style="fill:#D8A271;" d="M35,335.8c0.7-0.2,1.3-0.5,2-0.4c9.7,1.2,19.4,2.5,29.1,3.7c1.3,0.2,2.5,1,3.1,2.2
					c0.6,0.9,0.8,2,0.7,3.1c0,1,0.1,2.1-0.1,3.1c0,2.1,0.1,4.2-0.1,6.2c0,1.7,0,3.4,0,5.1l-0.1,0.1c-4.9,2.3-9.8,4.5-14.7,6.8
					c-1.3,0.6-2.5,1.2-3.8,1.7c0-2.8,0.1-5.5-0.1-8.3c0-1.5-0.1-3.1,0.1-4.6c0-0.9,0-1.7,0-2.6c0-2-1-3.9-2.7-4.9
					c-0.9-0.5-1.9-0.5-2.9-0.6c-9.7-1.3-19.3-2.7-29-4c0.1-0.2,0.3-0.2,0.5-0.3C23.1,339.9,29,337.9,35,335.8z"/>
				<g>
					<path style="fill:#D8A271;" d="M14.3,343.4c0.4-0.1,0.8-0.3,1.2-0.3c7.8,1.1,15.6,2.1,23.3,3.2c2.5,0.3,5,0.7,7.4,1
						c1.4,0.2,2.4,1.3,3.1,2.5c0.5,0.8,0.7,1.8,0.7,2.7c0,4.9,0,9.9,0,14.8c-0.1,0-0.3,0-0.4,0c-8.6-1.4-17.1-2.7-25.7-4.1
						c-3.8-0.6-7.7-1.2-11.5-1.8c0-0.9,0-1.8,0-2.7c-0.1-1.1,0-2.2-0.1-3.3c0-0.8,0-1.6,0-2.4c-0.1-1.1,0-2.3-0.1-3.4
						c0-1,0-2.1,0-3.1C12.3,345.3,13,343.9,14.3,343.4z M16,353.3c-0.3,0.1-0.6,0.4-0.7,0.7c-0.3,1,0.4,2.2,1.5,2.3
						c2.6,0.4,5.1,0.8,7.7,1.2c0.4,0,0.7,0.2,1.1,0c0.4-0.1,0.6-0.5,0.8-0.9c0.2-0.8-0.2-1.7-1-2.1c-0.3-0.2-0.7-0.2-1.1-0.2
						c-2.4-0.4-4.8-0.7-7.2-1.1C16.7,353.2,16.3,353.1,16,353.3z"/>
				</g>
				<path style="fill:#D8A271;" d="M67.5,361.4c0.8-0.3,1.5-0.7,2.3-1c0,2,0.1,4,0,6c0,1.9,0.1,3.8-0.1,5.7c0,1.8,0,3.7,0,5.5
					c-0.1,1.4,0,2.9-0.1,4.4c-0.2,2.3,0,4.7-0.1,7c0,1.6,0,3.2,0,4.7c-0.2,2.4,0,4.8-0.1,7.2c0,1.9,0,3.8,0,5.8
					c-0.2,1.5,0.1,3.1-0.1,4.6c-0.1,0.9-0.6,1.8-1.4,2.3c-5.4,3.4-10.7,6.8-16.1,10.2c-0.4,0.2-0.7,0.5-1.1,0.7
					c0.2-0.4,0.4-0.7,0.5-1c0.1-0.4,0.2-0.9,0.2-1.3c0-17.6,0-35.2,0-52.9c0-0.2,0.2-0.3,0.3-0.3C56.9,366.3,62.2,363.9,67.5,361.4z
					"/>
				<g>
					<path style="fill:#D8A271;" d="M12.6,362.9c1.4,0.1,2.8,0.4,4.1,0.6c6.2,1,12.3,2,18.5,3c4.9,0.8,9.9,1.6,14.8,2.4
						c0,17.7,0,35.4,0,53.1c0,1.1-0.5,2.4-1.5,2.9c-0.7,0.4-1.5,0.4-2.3,0.4c-9.3-2.1-18.6-4.2-27.9-6.3c-0.7-0.2-1.4-0.3-2-0.6
						c-1.4-0.8-2.4-2.3-2.6-3.8c-0.1-1.2-0.1-2.5-0.1-3.7c-0.1-1.2,0-2.4-0.1-3.6c0-0.9,0.1-1.9-0.1-2.8c0-0.9,0.1-1.9-0.1-2.8
						c0-0.9,0-1.7,0-2.6c-0.1-1,0-1.9-0.1-2.9c-0.1-1.1,0-2.2-0.1-3.2c0-0.8,0-1.6,0-2.4c-0.1-1.2,0-2.3-0.1-3.5
						c0-0.9,0.1-1.9-0.1-2.8c0-0.8,0-1.6,0-2.4c-0.1-1.1,0-2.2-0.1-3.3c0-0.9,0-1.7,0-2.6c-0.1-1.1,0-2.3-0.1-3.4
						c0-1.7-0.1-3.3-0.1-5c-0.1-1,0-2-0.1-3.1C12.5,364.1,12.5,363.5,12.6,362.9z M16.5,375c-0.3,0.2-0.5,0.4-0.6,0.7
						c-0.1,0.5,0,0.9,0,1.4c0,2.4,0.1,4.8,0.1,7.3c0,1.1,1.1,2.1,2.2,1.8c0.5-0.1,0.8-0.6,0.8-1.1c0-2.8-0.1-5.5-0.1-8.3
						C18.9,375.6,17.6,374.6,16.5,375z"/>
				</g>
			</g>
		</g>
	</g>
	<g>
		<g>
			<rect x="-0.2" y="695.3" style="fill:none;" width="36.3" height="19.1"/>
			<text transform="matrix(1 0 0 1 -0.2178 707.0137)" style="fill:#808285; font-family:'Muli'; font-size:16;">1/10  </text>
		</g>
		<g>
			<rect x="83.1" y="695.3" style="fill:none;" width="127" height="19.1"/>
			<text transform="matrix(1 0 0 1 83.0981 707.0137)" style="fill:#808285; font-family:'Muli'; font-size:16;">cargo container  </text>
		</g>
		<g>
			<path d="M179.6,690.1h15.8c0.8-0.2,4.2-0.2,5,0H233v-4.3H31.4v2.7c0.7,1.5,1.2,1.6,2.8,1.6h3.5l2.9,11.5H41
				c1,4.3,4.8,7.4,9.4,7.4c4.6,0,8.4-3.2,9.4-7.4h1.3c1,4.3,4.8,7.4,9.4,7.4c4.6,0,8.4-3.2,9.4-7.4h0.4l1.9-11.5c0,0,51.6,0,51.6,0
				h40.8C175.4,689.9,178.8,689.9,179.6,690.1z M53.8,701.6c-0.8,1.2-2,2-3.5,2c-1.5,0-2.7-0.8-3.5-2c-0.4-0.7-0.7-1.4-0.7-2.2
				c0-2.3,1.9-4.2,4.2-4.2s4.2,1.9,4.2,4.2C54.6,700.2,54.2,701,53.8,701.6z M73.9,701.6c-0.8,1.2-2,2-3.5,2c-1.5,0-2.7-0.8-3.5-2
				c-0.4-0.7-0.7-1.4-0.7-2.2c0-2.3,1.9-4.2,4.2-4.2c2.3,0,4.2,1.9,4.2,4.2C74.7,700.2,74.4,701,73.9,701.6z"/>
			<g>
				<rect x="207.7" y="617.1" width="20" height="59.6"/>
			</g>
			<rect x="197.2" y="686.6" width="4.4" height="8.8"/>
			<g>
				<path d="M229.8,615.2v63.2h-195v-63.2H229.8 M233,612H31.5v69.7H233V612L233,612z"/>
			</g>
		</g>
	</g>
	<g>
		<rect y="324" style="fill:none;" width="233.3" height="19.1"/>
		<text transform="matrix(1 0 0 1 106.2769 334.1748)" style="fill:#808285; font-family:'Muli'; font-size:14;">OR</text>
		<line style="fill:none;stroke:#E6E7E8;stroke-miterlimit:10;" x1="86" y1="329.5" x2="102" y2="329.5"/>
		<line style="fill:none;stroke:#E6E7E8;stroke-miterlimit:10;" x1="131" y1="329.5" x2="147" y2="329.5"/>
	</g>
</g>
</svg>
